<svg width="218" height="100" viewBox="0 0 218 100" fill="none" xmlns="http://www.w3.org/2000/svg">
<path d="M189.612 35.8466L190.682 22.7672C190.704 22.4357 190.82 22.1182 191.016 21.854C191.212 21.5897 191.479 21.3902 191.786 21.2801C192.092 21.17 192.423 21.1541 192.739 21.2344C193.055 21.3147 193.341 21.4877 193.562 21.7319L202.131 30.6705C202.324 30.862 202.557 31.0062 202.813 31.0922C203.068 31.1781 203.339 31.2035 203.605 31.1665L216.135 29.1888C216.444 29.1517 216.758 29.2042 217.04 29.3402C217.323 29.4762 217.562 29.6903 217.731 29.9581C217.901 30.226 217.994 30.5367 217.999 30.8551C218.005 31.1736 217.923 31.4869 217.763 31.7594L211.855 40.4038C211.68 40.655 211.577 40.951 211.557 41.259C211.536 41.5669 211.6 41.875 211.74 42.1489L216.155 51.5007C216.291 51.7951 216.343 52.1224 216.306 52.4451C216.268 52.7678 216.142 53.0728 215.943 53.3251C215.743 53.5773 215.477 53.7666 215.177 53.8712C214.876 53.9758 214.552 53.9914 214.242 53.9164L204.807 51.5056C204.479 51.4236 204.136 51.4434 203.82 51.5625C203.504 51.6816 203.231 51.8945 203.035 52.1739L197.507 59.9992C197.315 60.2613 197.054 60.4619 196.754 60.5777C196.454 60.6934 196.128 60.7194 195.814 60.6528C195.5 60.5862 195.21 60.4296 194.979 60.2013C194.748 59.9731 194.585 59.6826 194.509 59.3637L192.234 49.3117C192.168 49.0152 192.028 48.7409 191.827 48.5159C191.626 48.2909 191.372 48.1227 191.089 48.028L182.035 45.1233C181.732 45.0256 181.461 44.8426 181.254 44.5953C181.047 44.3479 180.913 44.0463 180.866 43.7249C180.818 43.4036 180.861 43.0755 180.988 42.7782C181.115 42.481 181.321 42.2268 181.583 42.0445L188.892 37.0204C189.085 36.8866 189.249 36.7133 189.373 36.5112C189.497 36.3092 189.578 36.0829 189.612 35.8466Z" fill="#ACDEE7"/>
<path opacity="0.5" d="M113.783 15.5684L125.385 0.95216C125.677 0.581076 126.071 0.299847 126.522 0.142232C126.972 -0.0153839 127.459 -0.0426911 127.924 0.0635705C128.388 0.169832 128.811 0.405159 129.142 0.741312C129.473 1.07747 129.697 1.50019 129.787 1.95873L133.303 19.1917C133.381 19.5727 133.551 19.9295 133.799 20.2322C134.047 20.5349 134.366 20.7745 134.73 20.931L151.74 28.338C152.184 28.5311 152.559 28.8475 152.82 29.248C153.08 29.6485 153.215 30.1154 153.206 30.5909C153.198 31.0665 153.047 31.5296 152.772 31.923C152.497 32.3163 152.111 32.6224 151.66 32.8035L137.557 38.4019C137.147 38.5654 136.789 38.833 136.519 39.1767C136.25 39.5205 136.079 39.9281 136.024 40.3574L134.138 54.867C134.073 55.3246 133.878 55.7556 133.574 56.1102C133.271 56.4648 132.871 56.7286 132.422 56.871C131.972 57.0135 131.491 57.0288 131.034 56.9152C130.577 56.8017 130.163 56.564 129.839 56.2294L120.125 46.0515C119.783 45.7 119.341 45.4558 118.856 45.3496C118.371 45.2434 117.864 45.2801 117.4 45.4548L104.435 50.4C103.99 50.5699 103.504 50.6109 103.037 50.518C102.57 50.4251 102.14 50.2023 101.8 49.8763C101.46 49.5502 101.223 49.1348 101.118 48.6796C101.014 48.2245 101.045 47.749 101.21 47.3101L106.332 33.6701C106.486 33.2725 106.53 32.8422 106.458 32.4235C106.386 32.0048 106.202 31.6128 105.923 31.2879L97.034 20.801C96.7342 20.4489 96.5429 20.0205 96.4822 19.5654C96.4215 19.1104 96.4939 18.6473 96.6911 18.2299C96.8883 17.8126 97.2021 17.458 97.5963 17.2073C97.9905 16.9567 98.4487 16.8202 98.918 16.8137L111.862 16.5469C112.235 16.5331 112.602 16.4381 112.934 16.2689C113.266 16.0996 113.556 15.8604 113.783 15.5684Z" fill="#EFBA1D"/>
<path d="M18.194 50.9266L21.8737 26.0228C21.9634 25.3932 22.2334 24.8026 22.6513 24.3221C23.0693 23.8416 23.6173 23.4916 24.2297 23.314C24.8421 23.1365 25.493 23.139 26.1038 23.3212C26.7147 23.5035 27.2596 23.8576 27.6733 24.3413L43.3274 42.46C43.6873 42.8666 44.14 43.1811 44.6472 43.3768C45.1544 43.5726 45.7014 43.644 46.2422 43.5849L71.0597 41.243C71.7117 41.1746 72.3693 41.3007 72.9492 41.6052C73.5291 41.9098 74.0054 42.3791 74.3175 42.9538C74.6297 43.5285 74.7637 44.1828 74.7027 44.8337C74.6418 45.4847 74.3885 46.1031 73.975 46.6106L61.2573 62.4613C60.8835 62.9159 60.6416 63.4638 60.5578 64.0456C60.474 64.6274 60.5516 65.2209 60.782 65.7618L68.3198 84.1887C68.5653 84.7712 68.638 85.4118 68.5294 86.0345C68.4208 86.6572 68.1354 87.2358 67.707 87.7017C67.2787 88.1676 66.7254 88.5013 66.1127 88.6631C65.5001 88.8249 64.8538 88.8081 64.2506 88.6146L46.0328 82.8839C45.3988 82.6879 44.7206 82.6848 44.0846 82.8749C43.4487 83.0649 42.8839 83.4397 42.4623 83.9512L30.6842 98.2877C30.2699 98.751 29.7342 99.0898 29.1373 99.2658C28.5403 99.4417 27.906 99.4478 27.3059 99.2835C26.7058 99.1192 26.1638 98.791 25.7409 98.3358C25.318 97.8806 25.031 97.3166 24.9125 96.7074L21.7428 77.3128C21.6508 76.7289 21.4072 76.1791 21.0362 75.7183C20.6652 75.2574 20.1798 74.9015 19.628 74.6858L2.14882 68.0484C1.56319 67.8294 1.05166 67.4494 0.673686 66.9525C0.29571 66.4556 0.0666124 65.8621 0.0128884 65.2406C-0.0408356 64.6191 0.0830065 63.9949 0.370109 63.4405C0.657211 62.8861 1.09596 62.4241 1.63532 62.1079L16.5715 53.3427C17.0074 53.0884 17.3799 52.7388 17.661 52.3203C17.942 51.9018 18.1242 51.4253 18.194 50.9266Z" fill="#FFC7A2"/>
</svg>
