<svg width="127" height="129" viewBox="0 0 127 129" fill="none" xmlns="http://www.w3.org/2000/svg">
<path opacity="0.2" d="M68.3494 74.5506C86.7699 55.7185 85.8832 33.1483 82.2293 17.9734C82.0747 17.3268 82.1005 16.6502 82.304 16.0173C82.5075 15.3844 82.8808 14.8194 83.3832 14.384C83.8857 13.9487 84.498 13.6595 85.1534 13.5482C85.8088 13.4368 86.4823 13.5076 87.1003 13.7526C97.367 17.6022 108.038 24.9752 118.397 37.9445C118.545 38.134 118.674 38.3379 118.781 38.553C120.839 42.4944 140.264 81.9177 110.996 111.861C80.1403 143.404 34.9204 125.488 15.71 95.7174L15.6361 95.6646C15.267 95.0692 15.0788 94.3794 15.0943 93.679C15.1098 92.9787 15.3284 92.2979 15.7235 91.7193C16.1186 91.1408 16.6732 90.6895 17.3199 90.4202C17.9666 90.1509 18.6777 90.0752 19.3666 90.2023C36.0734 93.3118 53.7691 89.486 68.3494 74.5506Z" fill="#FF9689"/>
<g opacity="0.05" style="mix-blend-mode:multiply">
<path d="M113.249 61.285C113.623 61.0971 114.034 60.9954 114.453 60.9875C114.871 60.9796 115.286 61.0657 115.667 61.2394C116.048 61.4131 116.385 61.6699 116.653 61.9911C116.922 62.3122 117.115 62.6895 117.218 63.0951C119.384 71.8355 122.974 96.4275 100.524 113.221C77.1789 130.695 46.948 121.579 28.9886 107.277C28.4952 106.881 28.1502 106.331 28.0096 105.714C27.8691 105.098 27.9412 104.452 28.2145 103.882C28.4877 103.312 28.9459 102.851 29.5144 102.574C30.0828 102.298 30.7282 102.222 31.3454 102.359C35.7667 103.301 40.3093 103.996 44.078 104.993C51.2406 106.888 59.0516 107.145 65.8953 104.276C77.3823 99.4589 83.6551 87.2031 91.8187 77.821C97.8217 70.971 105.1 65.3546 113.249 61.285Z" fill="#FF0000"/>
</g>
<path d="M59.1672 21.3728L64.5522 6.53138C64.6873 6.15812 64.7123 5.75394 64.6244 5.36687C64.5365 4.97979 64.3393 4.62605 64.0563 4.34774C63.7732 4.06943 63.4163 3.87824 63.0278 3.79683C62.6393 3.71543 62.2356 3.74726 61.8647 3.88854L47.8164 9.22024C47.5067 9.33674 47.1737 9.37798 46.8448 9.34051C46.516 9.30305 46.2008 9.18797 45.9252 9.00477L32.9681 0.353794C32.6302 0.126121 32.2327 0.00311143 31.8253 5.19117e-05C31.4178 -0.00300983 31.0185 0.114011 30.6772 0.336582C30.3359 0.559151 30.0677 0.877357 29.9062 1.25145C29.7447 1.62553 29.697 2.03893 29.7691 2.43996L32.0092 14.9328C32.0716 15.2938 32.0387 15.665 31.9136 16.0094C31.7884 16.3538 31.5755 16.6595 31.2959 16.8964L21.6152 24.8613C21.3099 25.1117 21.0824 25.444 20.9596 25.8193C20.8367 26.1946 20.8236 26.5971 20.9217 26.9796C21.0198 27.3621 21.2251 27.7086 21.5135 27.9783C21.8018 28.2481 22.1611 28.4299 22.5493 28.5024L34.2737 30.7522C34.678 30.8325 35.0494 31.0306 35.3413 31.3216C35.6332 31.6126 35.8325 31.9834 35.914 32.3875L38.1465 43.7966C38.2231 44.1871 38.4105 44.5473 38.6863 44.8342C38.962 45.1211 39.3145 45.3225 39.7017 45.4145C40.0888 45.5066 40.4943 45.4852 40.8696 45.353C41.2449 45.2209 41.5743 44.9835 41.8184 44.6692L49.3871 34.844C49.6107 34.557 49.9053 34.3334 50.2419 34.1953C50.5785 34.0572 50.9454 34.0095 51.3061 34.0568L62.8524 35.566C63.2402 35.618 63.6348 35.5593 63.9906 35.3965C64.3464 35.2337 64.6488 34.9736 64.863 34.6462C65.0772 34.3187 65.1944 33.9374 65.201 33.5462C65.2076 33.155 65.1034 32.7699 64.9004 32.4354L59.3071 23.1829C59.149 22.9112 59.0544 22.6072 59.0301 22.2938C59.0059 21.9804 59.0528 21.6655 59.1672 21.3728Z" fill="#ACDEE7"/>
<path d="M21.2367 56.8653L21.702 47.3813C21.7151 47.1428 21.6591 46.9056 21.5407 46.6982C21.4223 46.4907 21.2466 46.3218 21.0346 46.2118C20.8226 46.1017 20.5834 46.0552 20.3457 46.0778C20.1079 46.1003 19.8817 46.191 19.6942 46.339L12.5598 51.8821C12.405 52.0052 12.2224 52.0885 12.028 52.1248C11.8336 52.1611 11.6332 52.1492 11.4445 52.0902L2.4678 49.4028C2.23356 49.3309 1.98326 49.3299 1.74847 49.4C1.51367 49.4701 1.30488 49.6082 1.14843 49.7968C0.991978 49.9854 0.894883 50.2161 0.869354 50.4598C0.843824 50.7035 0.890955 50.9493 1.00492 51.1662L4.44919 58.0114C4.55539 58.2065 4.60588 58.427 4.59513 58.6489C4.58437 58.8707 4.5128 59.0854 4.38823 59.2693L0.214843 65.5868C0.0809785 65.7834 0.00642431 66.0143 6.84915e-05 66.252C-0.00628578 66.4898 0.0557698 66.7243 0.178943 66.9278C0.302115 67.1313 0.481233 67.2951 0.694843 67.3997C0.908451 67.5043 1.1476 67.5453 1.38386 67.5178L8.52229 66.7369C8.77136 66.7091 9.02304 66.7573 9.24416 66.8753C9.46528 66.9932 9.64547 67.1754 9.76106 67.3977L13.1029 73.5006C13.219 73.7194 13.3972 73.8991 13.6151 74.0169C13.833 74.1348 14.0809 74.1855 14.3275 74.1628C14.5742 74.1402 14.8087 74.045 15.0015 73.8895C15.1942 73.7339 15.3367 73.5248 15.4109 73.2884L18.0306 66.3084C18.1039 66.1035 18.2311 65.922 18.3988 65.7832C18.5665 65.6444 18.7686 65.5535 18.9837 65.5199L25.9038 64.3415C26.1337 64.2986 26.347 64.1925 26.5198 64.035C26.6926 63.8774 26.8179 63.6748 26.8818 63.4499C26.9457 63.225 26.9456 62.9868 26.8814 62.7619C26.8172 62.5371 26.6915 62.3346 26.5185 62.1774L21.6717 57.845C21.5288 57.7261 21.4153 57.5758 21.3398 57.4059C21.2644 57.236 21.2291 57.051 21.2367 56.8653Z" fill="#EFBA1D"/>
</svg>
