<svg width="75" height="77" viewBox="0 0 75 77" fill="none" xmlns="http://www.w3.org/2000/svg">
<path d="M18.2631 27.8492L21.9567 2.8509C22.0468 2.21884 22.3178 1.62605 22.7373 1.14372C23.1569 0.661388 23.707 0.310047 24.3217 0.131825C24.9365 -0.0463969 25.5897 -0.0438954 26.2029 0.139037C26.8161 0.321971 27.3631 0.677503 27.7784 1.16304L43.4918 19.3505C43.8531 19.7587 44.3075 20.0743 44.8167 20.2708C45.3259 20.4673 45.8749 20.5389 46.4177 20.4797L71.3295 18.1288C71.9839 18.0602 72.644 18.1867 73.2261 18.4924C73.8082 18.7982 74.2863 19.2693 74.5997 19.8462C74.913 20.4231 75.0475 21.0798 74.9863 21.7332C74.9251 22.3866 74.6709 23.0074 74.2558 23.5168L61.4898 39.4277C61.1146 39.884 60.8718 40.434 60.7877 41.018C60.7035 41.602 60.7815 42.1978 61.0127 42.7407L68.5792 61.2376C68.8256 61.8223 68.8986 62.4653 68.7896 63.0904C68.6806 63.7154 68.3941 64.2962 67.9641 64.7639C67.5341 65.2316 66.9787 65.5666 66.3637 65.729C65.7488 65.8914 65.1 65.8745 64.4945 65.6803L46.2076 59.9278C45.5712 59.7311 44.8904 59.728 44.252 59.9188C43.6136 60.1096 43.0467 60.4857 42.6235 60.9992L30.8007 75.3901C30.3848 75.8552 29.8471 76.1953 29.2479 76.3719C28.6487 76.5485 28.012 76.5547 27.4096 76.3897C26.8072 76.2248 26.2631 75.8953 25.8387 75.4384C25.4142 74.9815 25.1261 74.4154 25.007 73.8038L21.8253 54.3356C21.733 53.7495 21.4885 53.1976 21.1161 52.735C20.7437 52.2724 20.2564 51.9151 19.7025 51.6987L2.15698 45.036C1.56913 44.8162 1.05566 44.4348 0.676244 43.936C0.296832 43.4372 0.0668653 42.8414 0.0129373 42.2175C-0.0409906 41.5937 0.0833216 40.9672 0.371514 40.4107C0.659706 39.8542 1.10012 39.3904 1.64153 39.073L16.6344 30.2745C17.072 30.0192 17.4459 29.6683 17.728 29.2483C18.0101 28.8282 18.193 28.3499 18.2631 27.8492Z" fill="#FFC7A2"/>
</svg>
