<svg width="27" height="26" viewBox="0 0 27 26" fill="none" xmlns="http://www.w3.org/2000/svg">
<path d="M13.5 23.8332C11.0877 23.8332 9.35182 23.832 7.99841 23.7056C6.66051 23.5807 5.80466 23.3407 5.12165 22.9274C4.34101 22.4552 3.68091 21.8196 3.1904 21.0679C2.76136 20.4102 2.51199 19.586 2.38244 18.2977C2.25119 16.9944 2.25 15.3228 2.25 12.9998C2.25 10.6769 2.25119 9.00529 2.38244 7.70201C2.51199 6.41366 2.76136 5.58951 3.1904 4.93179C3.68089 4.18005 4.34099 3.5444 5.12165 3.07207C5.80466 2.65893 6.66051 2.41879 7.99841 2.29404C9.35165 2.16765 11.0876 2.1665 13.5 2.1665C15.9123 2.1665 17.6482 2.16765 19.0016 2.29404C20.3395 2.41879 21.1953 2.65893 21.8784 3.07207C22.6589 3.54442 23.319 4.18007 23.8094 4.93179C24.2386 5.58951 24.4878 6.41366 24.6176 7.70201C24.7488 9.00529 24.75 10.6769 24.75 12.9998C24.75 15.3228 24.7488 16.9944 24.6176 18.2977C24.4878 19.586 24.2386 20.4102 23.8094 21.0679C23.319 21.8195 22.6589 22.4551 21.8784 22.9274C21.1953 23.3407 20.3395 23.5807 19.0016 23.7056C17.6482 23.832 15.9123 23.8332 13.5 23.8332Z" fill="#B5D44F" stroke="#B5D44F" stroke-width="2"/>
<path d="M13.5 18.4167C15.9853 18.4167 18 16.4766 18 14.0833C18 11.6901 15.9853 9.75 13.5 9.75C11.0147 9.75 9 11.6901 9 14.0833C9 16.4766 11.0147 18.4167 13.5 18.4167Z" fill="#B5D44F" stroke="white" stroke-width="2"/>
<path d="M18.9844 8.9375C19.6834 8.9375 20.25 8.39185 20.25 7.71875C20.25 7.04565 19.6834 6.5 18.9844 6.5C18.2854 6.5 17.7188 7.04565 17.7188 7.71875C17.7188 8.39185 18.2854 8.9375 18.9844 8.9375Z" fill="white"/>
</svg>
