<svg width="27" height="26" viewBox="0 0 27 26" fill="none" xmlns="http://www.w3.org/2000/svg">
<path d="M14.9308 6.20416C14.9308 6.47025 14.9308 7.33754 14.9308 8.5697H19.3301L18.8531 12.3461H14.9308C14.9308 18.1701 14.9308 25.9746 14.9308 25.9746H9.72453C9.72453 25.9746 9.72453 18.2734 9.72453 12.3461H7.01172V8.5697H9.72453C9.72453 7.07206 9.72453 6.00712 9.72453 5.71061C9.72453 4.29788 9.614 3.62757 10.2374 2.53282C10.8611 1.43813 12.6203 -0.00882807 15.663 0.0260079C18.7065 0.0621133 19.9893 0.344051 19.9893 0.344051L19.3301 4.36882C19.3301 4.36882 17.3867 3.87467 16.4328 4.05078C15.4801 4.22694 14.9308 4.79203 14.9308 6.20416Z" fill="#B5D44F"/>
</svg>
