<svg width="80" height="62" viewBox="0 0 80 62" fill="none" xmlns="http://www.w3.org/2000/svg">
<path d="M72.3571 23.9007H72.2143C69.1571 15.4673 61.7714 8.49881 51.9286 5.28475C51.2041 3.79442 50.092 2.52438 48.7078 1.60656C47.3236 0.688734 45.7178 0.156613 44.0571 0.0654717C42.5041 -0.125707 40.9281 0.10364 39.495 0.729351C38.0619 1.35506 36.8249 2.35397 35.9143 3.62084C22.4143 5.04299 11.6286 13.135 7.77143 23.9007H7.64286C3.42857 23.9007 0 27.8258 0 32.6469C0 37.468 3.42857 41.3931 7.64286 41.3931H7.74286C12.0286 53.3107 24.8857 62 40 62C55.1143 62 67.9857 53.3107 72.2571 41.3931H72.3571C76.6429 41.3931 80 37.468 80 32.6469C80 27.8258 76.5714 23.9007 72.3571 23.9007ZM43.7857 2.90977C45.021 2.95275 46.2174 3.3501 47.2312 4.05401C48.2449 4.75792 49.0328 5.73842 49.5 6.87756C49.6732 7.41526 49.76 7.97682 49.7571 8.54147C49.7571 11.3858 48.9143 13.3768 47.1857 14.5287C43.5857 16.9321 36.6714 15.4531 32.6286 14.159C34.7792 11.9593 36.4733 9.35944 37.6143 6.5078C37.712 6.20823 37.8363 5.91791 37.9857 5.64029C38.5679 4.65702 39.4336 3.87082 40.4706 3.38386C41.5075 2.89691 42.6675 2.73172 43.8 2.90977H43.7857ZM2.85714 32.6469C2.77254 31.3654 3.12602 30.0931 3.86006 29.037C4.5941 27.9809 5.66552 27.2032 6.9 26.8303C6.45411 28.7521 6.22413 30.7172 6.21429 32.6895C6.22022 34.6331 6.44544 36.5699 6.88571 38.4635C5.65389 38.0879 4.58568 37.3091 3.8544 36.2532C3.12312 35.1974 2.7717 33.9265 2.85714 32.6469ZM40 59.1415C22.9429 59.1415 9.07143 47.2665 9.07143 32.6895C9.07143 19.748 19.8429 8.89701 34.4857 6.66424L34.3571 6.92022C34.3182 7.01912 34.2704 7.11432 34.2143 7.20465C34.1429 7.36109 34.0571 7.5033 33.9857 7.64552L33.8286 7.91573L33.5571 8.37081L33.4143 8.59836L33.0286 9.16722V9.25255L32.5571 9.90673L32.4714 10.0063L32.0857 10.5183L31.9286 10.6889C31.8309 10.8225 31.726 10.9507 31.6143 11.0729L31.4429 11.2862L31.1571 11.5991L30.9714 11.8124L30.7286 12.0826L30.5571 12.2675L30.3286 12.5093L30.1714 12.6799C30.1012 12.7427 30.0345 12.8091 29.9714 12.879L29.8286 13.0212L29.6714 13.1777L29.5429 13.2914L29.4143 13.4194L29.3429 13.4905L29.2429 13.5759C29.0658 13.7372 28.9324 13.9403 28.855 14.1665C28.7776 14.3927 28.7587 14.6346 28.8 14.87C28.8392 15.1077 28.9385 15.3316 29.0884 15.5206C29.2383 15.7097 29.434 15.8577 29.6571 15.9509L29.8429 16.022H29.9429L30.3 16.1642H30.3857L31.0143 16.3917H31.1857L31.8286 16.605L32.0429 16.6762L33 16.9748H33.1857L34.1 17.2166L34.4143 17.3019L35.6143 17.6006L36.8429 17.8423L37.1429 18.2121L38.3 18.397H38.5286C38.9714 18.4681 39.4286 18.5107 39.8857 18.5534H40.2429C40.6143 18.5534 40.9857 18.5534 41.3714 18.5534H42.2571H43.4857L44.1 18.4823L45.2 18.2974L45.7143 18.2121C46.0827 18.1199 46.4452 18.0059 46.8 17.8708L47.3 17.6859C48.4326 17.2208 49.4463 16.5095 50.2669 15.604C51.0876 14.6984 51.6944 13.6216 52.0429 12.4524C52.0429 12.4524 52.0429 12.4524 52.0429 12.3813C52.1615 12.0131 52.257 11.6378 52.3286 11.2578C52.3286 11.0871 52.3286 10.9022 52.3286 10.7316C52.3286 10.5609 52.4143 10.2338 52.4429 9.96362C52.4714 9.69341 52.4429 9.50853 52.4429 9.28099C52.4429 9.05344 52.4429 8.81168 52.4429 8.56991C63.4714 12.8364 70.7429 22.2652 70.7429 32.7464C70.9286 47.2666 57.0571 59.1415 40 59.1415ZM73.1143 38.4635C74.038 34.6403 74.038 30.6535 73.1143 26.8303C74.3461 27.2058 75.4143 27.9847 76.1456 29.0405C76.8769 30.0963 77.2283 31.3672 77.1429 32.6469C77.2283 33.9265 76.8769 35.1974 76.1456 36.2532C75.4143 37.3091 74.3461 38.0879 73.1143 38.4635Z" fill="#64A7E9"/>
<path d="M27.557 24.4553C26.1091 24.547 24.7558 25.2029 23.7905 26.2811C22.8251 27.3592 22.3255 28.7726 22.3998 30.215C22.3998 30.5922 22.5503 30.9539 22.8182 31.2206C23.0862 31.4873 23.4495 31.6372 23.8284 31.6372C24.2073 31.6372 24.5706 31.4873 24.8386 31.2206C25.1065 30.9539 25.257 30.5922 25.257 30.215C25.1838 29.5267 25.3832 28.837 25.8126 28.2926C26.2421 27.7483 26.8679 27.392 27.557 27.2996C28.2461 27.392 28.8718 27.7483 29.3013 28.2926C29.7308 28.837 29.9301 29.5267 29.857 30.215C29.857 30.5922 30.0075 30.9539 30.2754 31.2206C30.5433 31.4873 30.9067 31.6372 31.2855 31.6372C31.6644 31.6372 32.0278 31.4873 32.2957 31.2206C32.5636 30.9539 32.7141 30.5922 32.7141 30.215C32.7884 28.7726 32.2888 27.3592 31.3234 26.2811C30.3581 25.2029 29.0048 24.547 27.557 24.4553Z" fill="#64A7E9"/>
<path d="M51.1996 24.4553C49.7517 24.547 48.3984 25.2029 47.4331 26.2811C46.4677 27.3592 45.9681 28.7726 46.0424 30.215C46.0424 30.5922 46.1929 30.9539 46.4608 31.2206C46.7287 31.4873 47.0921 31.6372 47.471 31.6372C47.8499 31.6372 48.2132 31.4873 48.4811 31.2206C48.749 30.9539 48.8995 30.5922 48.8995 30.215C48.8264 29.5267 49.0257 28.837 49.4552 28.2926C49.8847 27.7483 50.5104 27.392 51.1996 27.2996C51.8887 27.392 52.5144 27.7483 52.9439 28.2926C53.3734 28.837 53.5727 29.5267 53.4996 30.215C53.4996 30.5922 53.6501 30.9539 53.918 31.2206C54.1859 31.4873 54.5492 31.6372 54.9281 31.6372C55.307 31.6372 55.6704 31.4873 55.9383 31.2206C56.2062 30.9539 56.3567 30.5922 56.3567 30.215C56.431 28.7726 55.9314 27.3592 54.966 26.2811C54.0007 25.2029 52.6474 24.547 51.1996 24.4553Z" fill="#64A7E9"/>
<path d="M46.2146 40.554C45.8357 40.554 45.4723 40.7038 45.2044 40.9705C44.9365 41.2372 44.786 41.5989 44.786 41.9761C44.786 43.2396 44.2818 44.4514 43.3843 45.3449C42.4868 46.2384 41.2695 46.7403 40.0003 46.7403C38.731 46.7403 37.5138 46.2384 36.6163 45.3449C35.7188 44.4514 35.2146 43.2396 35.2146 41.9761C35.2146 41.5989 35.0641 41.2372 34.7961 40.9705C34.5282 40.7038 34.1649 40.554 33.786 40.554C33.4071 40.554 33.0438 40.7038 32.7758 40.9705C32.5079 41.2372 32.3574 41.5989 32.3574 41.9761C32.3574 43.994 33.1626 45.9293 34.596 47.3561C36.0293 48.783 37.9733 49.5846 40.0003 49.5846C42.0273 49.5846 43.9713 48.783 45.4046 47.3561C46.8379 45.9293 47.6431 43.994 47.6431 41.9761C47.6431 41.5989 47.4926 41.2372 47.2247 40.9705C46.9568 40.7038 46.5934 40.554 46.2146 40.554Z" fill="#64A7E9"/>
</svg>
