<svg width="80" height="72" viewBox="0 0 80 72" fill="none" xmlns="http://www.w3.org/2000/svg">
<path d="M72.9778 31.9981C71.0368 25.1404 66.8224 19.1412 61.0222 14.9794C60.2588 13.6435 59.1347 12.5482 57.7778 11.8179C61.7037 6.48479 61.7926 5.28816 61.837 4.75632C61.8664 4.23527 61.7837 3.71397 61.5947 3.22734C61.4056 2.74071 61.1145 2.29997 60.7407 1.93464C59.8074 0.974379 57.8667 -0.118839 53.9852 0.102759C50.3407 0.309584 46.8148 3.32332 44.7704 5.42112C43.3763 4.39424 41.6887 3.84011 39.9556 3.84011C38.2224 3.84011 36.5348 4.39424 35.1407 5.42112C33.1556 3.26423 29.6296 0.235718 25.9704 0.0288928C22.0889 -0.192705 20.1481 0.900513 19.2593 1.93464C18.8685 2.31543 18.5675 2.77803 18.3779 3.28901C18.1883 3.79998 18.1149 4.34657 18.163 4.88928C18.163 5.40634 18.2963 6.61775 22.2667 11.9213C20.871 12.6567 19.73 13.7945 18.9926 15.1862C18.9047 15.2166 18.8203 15.2563 18.7407 15.3044C13.0932 19.4259 8.97264 25.2959 7.02222 31.9981C3.08148 32.5152 0 36.3562 0 41.0246C0 45.9441 3.43704 49.8885 7.68889 50.1101C12.2222 62.7117 24.9926 71.8267 40 71.8267C55.0074 71.8267 67.7778 62.7117 72.3111 50.1101C76.563 49.9624 80 45.9441 80 41.0246C80 36.371 76.9185 32.5152 72.9778 31.9981ZM54.1926 2.98354C57.3037 2.80626 58.4 3.66311 58.637 3.92902C58.719 3.99832 58.7851 4.08423 58.8311 4.18103C58.8771 4.27784 58.9018 4.38331 58.9037 4.4904C57.9678 6.55722 56.7515 8.48594 55.2889 10.2224C55.0634 10.5376 54.905 10.8955 54.8235 11.2741C54.7419 11.6527 54.739 12.0439 54.8148 12.4236C54.8907 12.7975 55.0429 13.1518 55.2621 13.4645C55.4813 13.7771 55.7628 14.0413 56.0889 14.2407C57.8519 15.3192 58.4889 16.2499 58.3852 16.5897C57.6984 17.8598 56.5948 18.856 55.2593 19.4114C54.0992 20.0813 52.724 20.2772 51.4222 19.958C49.6717 19.031 48.1528 17.7233 46.9778 16.1317C47.1837 15.8048 47.3669 15.4643 47.5259 15.1124C48.0444 15.3192 48.6963 15.5851 49.4815 15.9397C49.6768 16.0284 49.8891 16.0738 50.1037 16.0726C50.437 16.0674 50.7589 15.9502 51.0172 15.7401C51.2755 15.5299 51.4551 15.239 51.5271 14.9143C51.5991 14.5897 51.5591 14.2504 51.4137 13.9512C51.2683 13.6521 51.026 13.4105 50.7259 13.2657C49.6741 12.7782 48.8148 12.4384 48.1778 12.202C48.1778 12.0986 48.1778 11.9952 48.1778 11.8918C48.2004 11.5869 48.2004 11.2807 48.1778 10.9758C49.3655 10.5049 50.5959 10.1488 51.8518 9.91218C52.0464 9.87823 52.2323 9.8064 52.3991 9.70079C52.5658 9.59518 52.71 9.45786 52.8235 9.29667C52.937 9.13548 53.0175 8.95358 53.0605 8.76135C53.1035 8.56912 53.1081 8.37033 53.0741 8.17632C53.04 7.98232 52.968 7.7969 52.8621 7.63066C52.7562 7.46441 52.6185 7.3206 52.4568 7.20742C52.2952 7.09425 52.1128 7.01393 51.92 6.97105C51.7272 6.92818 51.5279 6.92358 51.3333 6.95753C49.9299 7.19527 48.5548 7.57646 47.2296 8.09507C47.1111 7.87347 46.9778 7.65187 46.8444 7.44505C49.4815 4.78587 52.1926 3.08695 54.1926 2.98354ZM40 6.72116C41.0255 6.72116 42.028 7.02441 42.8807 7.59257C43.7334 8.16072 44.398 8.96827 44.7905 9.91308C45.1829 10.8579 45.2856 11.8975 45.0855 12.9005C44.8855 13.9035 44.3916 14.8249 43.6665 15.548C42.9413 16.2711 42.0174 16.7636 41.0116 16.9631C40.0057 17.1626 38.9632 17.0602 38.0157 16.6688C37.0682 16.2775 36.2584 15.6147 35.6887 14.7644C35.1189 13.9141 34.8148 12.9144 34.8148 11.8918C34.8148 10.5205 35.3611 9.20528 36.3335 8.2356C37.3059 7.26592 38.6248 6.72116 40 6.72116ZM23.8963 14.2407C24.2268 14.0412 24.5121 13.7753 24.7339 13.46C24.9558 13.1446 25.1095 12.7866 25.1852 12.4089C25.2586 12.0305 25.2531 11.6411 25.169 11.2649C25.0848 10.8887 24.9239 10.5339 24.6963 10.2224C23.2458 8.4879 22.0304 6.57063 21.0815 4.51995C21.0801 4.40803 21.1032 4.29715 21.1493 4.19508C21.1953 4.093 21.2632 4.0022 21.3481 3.92902C21.6148 3.66311 22.7111 2.79148 25.7926 2.98354C27.7926 3.08695 30.5037 4.78587 33.2 7.50414C33.0667 7.72574 32.9333 7.93257 32.8148 8.15416C31.4892 7.63713 30.1142 7.25598 28.7111 7.01662C28.5194 6.98029 28.3225 6.98206 28.1315 7.02184C27.9405 7.06163 27.7593 7.13864 27.5982 7.24845C27.4372 7.35826 27.2994 7.49872 27.193 7.66175C27.0865 7.82479 27.0134 8.00719 26.9778 8.19848C26.9082 8.58015 26.9919 8.97382 27.2109 9.29446C27.4298 9.61509 27.7665 9.83697 28.1481 9.91218C29.44 10.1393 30.7057 10.4956 31.9259 10.9758C31.9038 11.2808 31.9038 11.5869 31.9259 11.8918C31.9259 11.9952 31.9259 12.0986 31.9259 12.202C31.2889 12.4384 30.4444 12.7782 29.3778 13.2657C29.0777 13.4105 28.8354 13.6521 28.69 13.9512C28.5446 14.2504 28.5046 14.5897 28.5766 14.9143C28.6486 15.239 28.8282 15.5299 29.0865 15.7401C29.3448 15.9502 29.6667 16.0674 30 16.0726C30.2143 16.0711 30.4261 16.0259 30.6222 15.9397C31.3926 15.5851 32.1037 15.3044 32.5778 15.1124C32.7368 15.4643 32.92 15.8048 33.1259 16.1317C31.9509 17.7233 30.432 19.031 28.6815 19.958C27.3797 20.2772 26.0045 20.0813 24.8444 19.4114C23.5089 18.856 22.4053 17.8598 21.7185 16.5897C21.4963 16.2499 22.1333 15.3192 23.8963 14.2407ZM2.96296 41.0246C2.90587 39.8428 3.19125 38.6696 3.78499 37.6453C4.37873 36.621 5.25571 35.7888 6.31111 35.2482C5.67626 39.1439 5.82736 43.1267 6.75556 46.9634C5.57765 46.4966 4.57721 45.6716 3.89638 44.6055C3.21554 43.5393 2.88893 42.2864 2.96296 41.0246ZM40 68.8721C22.8444 68.8721 8.88889 55.9308 8.88889 40.02C8.91493 35.8931 9.85856 31.8233 11.6518 28.1038C13.445 24.3843 16.0433 21.1078 19.2593 18.5102C20.2924 20.056 21.7328 21.2879 23.4222 22.0705C24.6779 22.7051 26.0594 23.0532 27.4667 23.0899C28.2044 23.1021 28.938 22.9769 29.6296 22.7206C31.7832 21.6973 33.662 20.1782 35.1111 18.2886C36.5264 19.3716 38.2605 19.9586 40.0444 19.9586C41.8284 19.9586 43.5625 19.3716 44.9778 18.2886C46.4302 20.175 48.3081 21.6934 50.4593 22.7206C51.1369 22.9715 51.8549 23.0967 52.5778 23.0899C53.985 23.0532 55.3665 22.7051 56.6222 22.0705C58.2954 21.2811 59.7198 20.0498 60.7407 18.5102C63.9591 21.1057 66.559 24.3818 68.3525 28.1018C70.1459 31.8217 71.0882 35.8925 71.1111 40.02C71.1111 55.9308 57.1556 68.8721 40 68.8721ZM73.2444 46.9634C74.1726 43.1267 74.3237 39.1439 73.6889 35.2482C74.7431 35.7902 75.619 36.6227 76.2126 37.6467C76.8061 38.6707 77.0923 39.8431 77.037 41.0246C77.1133 42.2868 76.7877 43.5407 76.1065 44.6073C75.4254 45.6739 74.4237 46.4985 73.2444 46.9634Z" fill="#FF7D97"/>
<path d="M27.0959 32.5151C25.5944 32.6103 24.191 33.2918 23.1899 34.4117C22.1888 35.5317 21.6707 37 21.7478 38.4983C21.7478 38.8901 21.9038 39.2659 22.1817 39.5429C22.4595 39.82 22.8363 39.9756 23.2292 39.9756C23.6221 39.9756 23.999 39.82 24.2768 39.5429C24.5546 39.2659 24.7107 38.8901 24.7107 38.4983C24.6349 37.7832 24.8416 37.0668 25.2869 36.5013C25.7323 35.9358 26.3813 35.5658 27.0959 35.4698C27.8105 35.5658 28.4595 35.9358 28.9049 36.5013C29.3502 37.0668 29.5569 37.7832 29.4811 38.4983C29.4811 38.8901 29.6372 39.2659 29.915 39.5429C30.1928 39.82 30.5697 39.9756 30.9626 39.9756C31.3555 39.9756 31.7323 39.82 32.0101 39.5429C32.288 39.2659 32.444 38.8901 32.444 38.4983C32.5211 37 32.003 35.5317 31.0019 34.4117C30.0008 33.2918 28.5974 32.6103 27.0959 32.5151Z" fill="#FF7D97"/>
<path d="M51.6135 32.5151C50.112 32.6103 48.7086 33.2918 47.7075 34.4117C46.7064 35.5317 46.1882 37 46.2653 38.4983C46.2653 38.8901 46.4214 39.2659 46.6992 39.5429C46.9771 39.82 47.3539 39.9756 47.7468 39.9756C48.1397 39.9756 48.5165 39.82 48.7944 39.5429C49.0722 39.2659 49.2283 38.8901 49.2283 38.4983C49.1524 37.7832 49.3591 37.0668 49.8045 36.5013C50.2499 35.9358 50.8988 35.5658 51.6135 35.4698C52.3281 35.5658 52.9771 35.9358 53.4224 36.5013C53.8678 37.0668 54.0745 37.7832 53.9987 38.4983C53.9987 38.8901 54.1547 39.2659 54.4326 39.5429C54.7104 39.82 55.0872 39.9756 55.4801 39.9756C55.8731 39.9756 56.2499 39.82 56.5277 39.5429C56.8055 39.2659 56.9616 38.8901 56.9616 38.4983C57.0387 37 56.5206 35.5317 55.5195 34.4117C54.5184 33.2918 53.115 32.6103 51.6135 32.5151Z" fill="#FF7D97"/>
<path d="M46.4446 49.209C46.0517 49.209 45.6749 49.3646 45.397 49.6417C45.1192 49.9187 44.9631 50.2945 44.9631 50.6863C44.9631 51.9989 44.4402 53.2577 43.5095 54.1858C42.5788 55.1139 41.3164 55.6353 40.0001 55.6353C38.6839 55.6353 37.4215 55.1139 36.4908 54.1858C35.5601 53.2577 35.0372 51.9989 35.0372 50.6863C35.0372 50.2945 34.8811 49.9187 34.6033 49.6417C34.3254 49.3646 33.9486 49.209 33.5557 49.209C33.1628 49.209 32.786 49.3646 32.5081 49.6417C32.2303 49.9187 32.0742 50.2945 32.0742 50.6863C32.0742 52.7825 32.9093 54.7928 34.3957 56.275C35.8821 57.7573 37.8981 58.59 40.0001 58.59C42.1022 58.59 44.1182 57.7573 45.6046 56.275C47.091 54.7928 47.9261 52.7825 47.9261 50.6863C47.9261 50.2945 47.77 49.9187 47.4922 49.6417C47.2143 49.3646 46.8375 49.209 46.4446 49.209Z" fill="#FF7D97"/>
</svg>
