<svg width="265" height="272" viewBox="0 0 265 272" fill="none" xmlns="http://www.w3.org/2000/svg">
<path d="M217.389 40.293C208.359 27.4557 190.748 21.285 177.096 26.6339C168.065 3.95765 135.729 -4.2637 111.485 2.06611C83.7254 9.31392 71.3552 36.8023 78.5634 61.2035C70.9527 59.5563 62.6748 60.7668 55.7089 64.7682C41.9747 72.6638 37.409 89.6988 41.3746 104.328C45.5862 119.863 58.8397 131.89 74.9705 133.848C88.4811 135.488 100.725 130.657 111.511 123.358C123.046 141.17 151.193 142.843 171.408 136.935C184.308 133.167 195.948 125.56 203.413 114.326C207.412 108.311 210.815 100.134 210.617 92.5528C228.679 84.672 228.295 55.788 217.393 40.293H217.389Z" fill="white"/>
<path d="M167.195 57.8831L173 57.7017L172.525 42.4757L157.299 42L157.117 47.8055L162.907 47.9865L152.571 58.3218C144.295 52.0551 132.426 52.6885 124.883 60.2307C116.643 68.4706 116.643 81.8777 124.883 90.1176C129.002 94.2374 134.414 96.2973 139.826 96.2973C145.238 96.2973 150.649 94.2376 154.77 90.1176C162.312 82.5746 162.945 70.7045 156.679 62.4289L167.014 52.0936L167.195 57.8831ZM150.662 86.0105C144.687 91.985 134.965 91.985 128.99 86.0105C123.015 80.0352 123.015 70.3136 128.99 64.3381C131.978 61.3501 135.901 59.8571 139.826 59.8571C143.75 59.8571 147.675 61.3511 150.662 64.3381C156.637 70.3131 156.637 80.0352 150.662 86.0105Z" fill="#64A7E9"/>
<path d="M146.405 64.2549C146.405 63.1451 146.317 62.0487 146.151 60.9727C144.188 60.1268 142.086 59.6998 139.983 59.6998C139.93 59.6998 139.877 59.7029 139.824 59.7039C140.277 61.1585 140.513 62.6884 140.513 64.2554C140.513 68.3305 138.927 72.1611 136.045 75.0423C133.164 77.9236 129.333 79.5103 125.258 79.5103C121.183 79.5103 117.352 77.9236 114.471 75.0423C111.59 72.1609 110.003 68.3302 110.003 64.2554C110.003 60.1806 111.59 56.3499 114.471 53.4685C117.352 50.5872 121.183 49.0004 125.258 49.0004C129.333 49.0004 133.164 50.5872 136.045 53.4685C136.244 53.6671 136.434 53.8707 136.62 54.0778C139.017 53.701 141.464 53.7335 143.853 54.1691C142.892 52.4029 141.674 50.7636 140.212 49.3019C136.218 45.3082 130.907 43.1082 125.258 43.1082C119.61 43.1082 114.3 45.3077 110.305 49.3019C106.311 53.2961 104.111 58.607 104.111 64.2551C104.111 68.9088 105.608 73.3315 108.368 76.9796L99.5182 85.8291L95.1664 81.4774L91 85.6438L95.3518 89.9955L91 94.3472L95.1664 98.5136L99.5182 94.1618L103.87 98.5136L108.036 94.3472L103.685 89.9955L112.534 81.146C116.182 83.9059 120.604 85.4024 125.258 85.4024C130.907 85.4024 136.217 83.2028 140.212 79.2086C144.205 75.2139 146.405 69.9033 146.405 64.2549Z" fill="#FF7D97"/>
<path d="M136.62 54.0778C139.017 53.701 141.464 53.7335 143.853 54.1691C142.928 52.4706 141.759 50.8933 140.372 49.4744L136.207 53.6395C136.346 53.7843 136.487 53.9287 136.62 54.0778Z" fill="#FF7D97"/>
<path d="M139.983 59.6998C139.93 59.6998 139.877 59.7029 139.824 59.7039C140.277 61.1585 140.513 62.6884 140.513 64.2554C140.513 68.3305 138.927 72.1611 136.045 75.0423C133.164 77.9236 129.333 79.5103 125.258 79.5103C121.262 79.5103 117.503 77.9812 114.642 75.2048L93.25 96.597L95.1664 98.5136L99.5182 94.1618L103.87 98.5136L108.036 94.3472L103.685 89.9955L112.534 81.146C116.182 83.9059 120.604 85.4024 125.258 85.4024C130.907 85.4024 136.217 83.2028 140.212 79.2086C144.205 75.2139 146.405 69.9033 146.405 64.2549C146.405 63.1451 146.317 62.0487 146.151 60.9727C144.188 60.1268 142.086 59.6998 139.983 59.6998Z" fill="#FF7D97"/>
<path d="M34.1779 189.35C32.2412 189.35 30.5146 188.93 28.9979 188.09C27.5046 187.227 26.3262 186.048 25.4629 184.555C24.5996 183.062 24.1679 181.37 24.1679 179.48V164.395H28.9279V179.62C28.9279 180.717 29.1496 181.662 29.5929 182.455C30.0596 183.248 30.6896 183.867 31.4829 184.31C32.2996 184.73 33.1979 184.94 34.1779 184.94C35.1812 184.94 36.0679 184.73 36.8379 184.31C37.6079 183.867 38.2146 183.248 38.6579 182.455C39.1246 181.662 39.3579 180.728 39.3579 179.655V164.395H44.1529V179.515C44.1529 181.405 43.7212 183.097 42.8579 184.59C41.9946 186.06 40.8162 187.227 39.3229 188.09C37.8529 188.93 36.1379 189.35 34.1779 189.35ZM59.738 189V179.305C59.738 178.302 59.423 177.485 58.793 176.855C58.163 176.225 57.3463 175.91 56.343 175.91C55.6897 175.91 55.1063 176.05 54.593 176.33C54.0797 176.61 53.6713 177.007 53.368 177.52C53.088 178.033 52.948 178.628 52.948 179.305L51.163 178.395C51.163 177.065 51.443 175.91 52.003 174.93C52.5863 173.927 53.3797 173.145 54.383 172.585C55.4097 172.025 56.5647 171.745 57.848 171.745C59.0847 171.745 60.193 172.06 61.173 172.69C62.153 173.297 62.923 174.102 63.483 175.105C64.043 176.085 64.323 177.147 64.323 178.29V189H59.738ZM48.363 189V172.095H52.948V189H48.363ZM68.0163 189V172.095H72.6363V189H68.0163ZM70.3263 169.365C69.5797 169.365 68.9613 169.12 68.4713 168.63C67.9813 168.117 67.7363 167.487 67.7363 166.74C67.7363 166.017 67.9813 165.398 68.4713 164.885C68.9613 164.372 69.5797 164.115 70.3263 164.115C71.0963 164.115 71.7147 164.372 72.1813 164.885C72.6713 165.398 72.9163 166.017 72.9163 166.74C72.9163 167.487 72.6713 168.117 72.1813 168.63C71.7147 169.12 71.0963 169.365 70.3263 169.365ZM82.508 189.385C81.5513 189.385 80.6063 189.257 79.673 189C78.763 188.743 77.923 188.393 77.153 187.95C76.383 187.483 75.718 186.923 75.158 186.27L77.888 183.505C78.4713 184.158 79.148 184.648 79.918 184.975C80.688 185.302 81.5396 185.465 82.473 185.465C83.2196 185.465 83.7796 185.36 84.153 185.15C84.5496 184.94 84.748 184.625 84.748 184.205C84.748 183.738 84.538 183.377 84.118 183.12C83.7213 182.863 83.1963 182.653 82.543 182.49C81.8896 182.303 81.2013 182.105 80.478 181.895C79.778 181.662 79.1013 181.37 78.448 181.02C77.7946 180.647 77.258 180.145 76.838 179.515C76.4413 178.862 76.243 178.022 76.243 176.995C76.243 175.922 76.4996 174.988 77.013 174.195C77.5496 173.402 78.308 172.783 79.288 172.34C80.268 171.897 81.423 171.675 82.753 171.675C84.153 171.675 85.413 171.92 86.533 172.41C87.6763 172.9 88.6213 173.635 89.368 174.615L86.603 177.38C86.0896 176.75 85.5063 176.295 84.853 176.015C84.223 175.735 83.5346 175.595 82.788 175.595C82.1113 175.595 81.5863 175.7 81.213 175.91C80.863 176.12 80.688 176.412 80.688 176.785C80.688 177.205 80.8863 177.532 81.283 177.765C81.703 177.998 82.2396 178.208 82.893 178.395C83.5463 178.558 84.223 178.757 84.923 178.99C85.6463 179.2 86.323 179.503 86.953 179.9C87.6063 180.297 88.1313 180.822 88.528 181.475C88.948 182.128 89.158 182.968 89.158 183.995C89.158 185.652 88.563 186.97 87.373 187.95C86.183 188.907 84.5613 189.385 82.508 189.385ZM100.335 189.35C98.5614 189.35 96.9864 188.977 95.6097 188.23C94.2331 187.46 93.1364 186.41 92.3197 185.08C91.5264 183.75 91.1297 182.233 91.1297 180.53C91.1297 178.85 91.5147 177.357 92.2847 176.05C93.0781 174.72 94.1514 173.67 95.5047 172.9C96.8581 172.107 98.3631 171.71 100.02 171.71C101.653 171.71 103.088 172.083 104.325 172.83C105.585 173.553 106.565 174.557 107.265 175.84C107.988 177.1 108.35 178.535 108.35 180.145C108.35 180.448 108.326 180.763 108.28 181.09C108.256 181.393 108.198 181.743 108.105 182.14L93.8947 182.175V178.745L105.97 178.71L104.115 180.145C104.068 179.142 103.881 178.302 103.555 177.625C103.251 176.948 102.796 176.435 102.19 176.085C101.606 175.712 100.883 175.525 100.02 175.525C99.1097 175.525 98.3164 175.735 97.6397 176.155C96.9631 176.552 96.4381 177.123 96.0647 177.87C95.7147 178.593 95.5397 179.457 95.5397 180.46C95.5397 181.487 95.7264 182.385 96.0997 183.155C96.4964 183.902 97.0564 184.485 97.7797 184.905C98.5031 185.302 99.3431 185.5 100.3 185.5C101.163 185.5 101.945 185.36 102.645 185.08C103.345 184.777 103.951 184.333 104.465 183.75L107.16 186.445C106.343 187.402 105.34 188.125 104.15 188.615C102.983 189.105 101.711 189.35 100.335 189.35ZM121.311 189L116.866 182.14L115.921 181.44L109.341 172.095H114.766L118.861 178.29L119.736 178.955L126.701 189H121.311ZM108.991 189L115.886 179.34L118.511 182.455L114.171 189H108.991ZM119.911 181.405L117.216 178.325L121.241 172.095H126.386L119.911 181.405ZM147.272 189V179.305C147.272 178.302 146.957 177.485 146.327 176.855C145.697 176.225 144.881 175.91 143.877 175.91C143.224 175.91 142.641 176.05 142.127 176.33C141.614 176.61 141.206 177.007 140.902 177.52C140.622 178.033 140.482 178.628 140.482 179.305L138.697 178.395C138.697 177.065 138.977 175.91 139.537 174.93C140.121 173.927 140.914 173.145 141.917 172.585C142.944 172.025 144.099 171.745 145.382 171.745C146.619 171.745 147.727 172.06 148.707 172.69C149.687 173.297 150.457 174.102 151.017 175.105C151.577 176.085 151.857 177.147 151.857 178.29V189H147.272ZM135.897 189V172.095H140.482V189H135.897ZM162.621 189.35C161.081 189.35 159.692 188.965 158.456 188.195C157.219 187.425 156.251 186.375 155.551 185.045C154.851 183.715 154.501 182.222 154.501 180.565C154.501 178.885 154.851 177.38 155.551 176.05C156.251 174.72 157.219 173.67 158.456 172.9C159.692 172.13 161.081 171.745 162.621 171.745C163.834 171.745 164.919 171.99 165.876 172.48C166.832 172.97 167.591 173.658 168.151 174.545C168.734 175.408 169.049 176.388 169.096 177.485V183.575C169.049 184.695 168.734 185.687 168.151 186.55C167.591 187.413 166.832 188.102 165.876 188.615C164.919 189.105 163.834 189.35 162.621 189.35ZM163.461 185.115C164.744 185.115 165.782 184.695 166.576 183.855C167.369 182.992 167.766 181.883 167.766 180.53C167.766 179.643 167.579 178.862 167.206 178.185C166.856 177.485 166.354 176.948 165.701 176.575C165.071 176.178 164.324 175.98 163.461 175.98C162.621 175.98 161.874 176.178 161.221 176.575C160.591 176.948 160.089 177.485 159.716 178.185C159.366 178.862 159.191 179.643 159.191 180.53C159.191 181.44 159.366 182.245 159.716 182.945C160.089 183.622 160.591 184.158 161.221 184.555C161.874 184.928 162.621 185.115 163.461 185.115ZM167.521 189V184.45L168.256 180.32L167.521 176.26V172.095H172.071V189H167.521ZM176.127 189V172.095H180.712V189H176.127ZM187.152 189V179.025C187.152 178.045 186.837 177.287 186.207 176.75C185.6 176.19 184.842 175.91 183.932 175.91C183.325 175.91 182.777 176.038 182.287 176.295C181.797 176.528 181.412 176.878 181.132 177.345C180.852 177.812 180.712 178.372 180.712 179.025L178.927 178.15C178.927 176.843 179.207 175.712 179.767 174.755C180.35 173.798 181.132 173.063 182.112 172.55C183.092 172.013 184.2 171.745 185.437 171.745C186.603 171.745 187.665 172.013 188.622 172.55C189.578 173.063 190.337 173.798 190.897 174.755C191.457 175.688 191.737 176.82 191.737 178.15V189H187.152ZM198.177 189V179.025C198.177 178.045 197.862 177.287 197.232 176.75C196.625 176.19 195.867 175.91 194.957 175.91C194.373 175.91 193.825 176.038 193.312 176.295C192.822 176.528 192.437 176.878 192.157 177.345C191.877 177.812 191.737 178.372 191.737 179.025L189.112 178.395C189.205 177.042 189.567 175.875 190.197 174.895C190.827 173.892 191.655 173.122 192.682 172.585C193.708 172.025 194.852 171.745 196.112 171.745C197.372 171.745 198.503 172.013 199.507 172.55C200.51 173.063 201.303 173.81 201.887 174.79C202.47 175.77 202.762 176.937 202.762 178.29V189H198.177ZM214.563 189.35C212.79 189.35 211.215 188.977 209.838 188.23C208.462 187.46 207.365 186.41 206.548 185.08C205.755 183.75 205.358 182.233 205.358 180.53C205.358 178.85 205.743 177.357 206.513 176.05C207.307 174.72 208.38 173.67 209.733 172.9C211.087 172.107 212.592 171.71 214.248 171.71C215.882 171.71 217.317 172.083 218.553 172.83C219.813 173.553 220.793 174.557 221.493 175.84C222.217 177.1 222.578 178.535 222.578 180.145C222.578 180.448 222.555 180.763 222.508 181.09C222.485 181.393 222.427 181.743 222.333 182.14L208.123 182.175V178.745L220.198 178.71L218.343 180.145C218.297 179.142 218.11 178.302 217.783 177.625C217.48 176.948 217.025 176.435 216.418 176.085C215.835 175.712 215.112 175.525 214.248 175.525C213.338 175.525 212.545 175.735 211.868 176.155C211.192 176.552 210.667 177.123 210.293 177.87C209.943 178.593 209.768 179.457 209.768 180.46C209.768 181.487 209.955 182.385 210.328 183.155C210.725 183.902 211.285 184.485 212.008 184.905C212.732 185.302 213.572 185.5 214.528 185.5C215.392 185.5 216.173 185.36 216.873 185.08C217.573 184.777 218.18 184.333 218.693 183.75L221.388 186.445C220.572 187.402 219.568 188.125 218.378 188.615C217.212 189.105 215.94 189.35 214.563 189.35ZM236.789 189V179.305C236.789 178.302 236.474 177.485 235.844 176.855C235.214 176.225 234.397 175.91 233.394 175.91C232.74 175.91 232.157 176.05 231.644 176.33C231.13 176.61 230.722 177.007 230.419 177.52C230.139 178.033 229.999 178.628 229.999 179.305L228.214 178.395C228.214 177.065 228.494 175.91 229.054 174.93C229.637 173.927 230.43 173.145 231.434 172.585C232.46 172.025 233.615 171.745 234.899 171.745C236.135 171.745 237.244 172.06 238.224 172.69C239.204 173.297 239.974 174.102 240.534 175.105C241.094 176.085 241.374 177.147 241.374 178.29V189H236.789ZM225.414 189V172.095H229.999V189H225.414Z" fill="#353535"/>
<rect y="212" width="265" height="60" rx="30" fill="#EFCC90"/>
<path d="M72.9743 246.246H67.6103L66.6383 249H64.4423L69.1223 236.49H71.4803L76.1423 249H73.9463L72.9743 246.246ZM72.3983 244.662L70.2923 238.722L68.1863 244.662H72.3983ZM79.7178 235.68V249H77.6658V235.68H79.7178ZM84.253 235.68V249H82.201V235.68H84.253ZM95.9521 243.564C95.9521 243.9 95.9281 244.194 95.8801 244.446H88.2481C88.2841 245.466 88.5661 246.222 89.0941 246.714C89.6221 247.206 90.2761 247.452 91.0561 247.452C91.7401 247.452 92.3161 247.278 92.7841 246.93C93.2641 246.582 93.5581 246.12 93.6661 245.544H95.8621C95.7301 246.24 95.4541 246.858 95.0341 247.398C94.6141 247.938 94.0681 248.364 93.3961 248.676C92.7241 248.976 91.9741 249.126 91.1461 249.126C90.1861 249.126 89.3341 248.922 88.5901 248.514C87.8581 248.106 87.2821 247.518 86.8621 246.75C86.4421 245.982 86.2321 245.076 86.2321 244.032C86.2321 243 86.4421 242.1 86.8621 241.332C87.2821 240.564 87.8581 239.976 88.5901 239.568C89.3341 239.16 90.1861 238.956 91.1461 238.956C92.1181 238.956 92.9641 239.16 93.6841 239.568C94.4161 239.964 94.9741 240.516 95.3581 241.224C95.7541 241.92 95.9521 242.7 95.9521 243.564ZM93.8821 243.51C93.9061 242.862 93.7921 242.322 93.5401 241.89C93.3001 241.446 92.9641 241.122 92.5321 240.918C92.1121 240.702 91.6501 240.594 91.1461 240.594C90.3421 240.594 89.6701 240.84 89.1301 241.332C88.5901 241.824 88.2961 242.55 88.2481 243.51H93.8821ZM101.191 238.956C102.355 238.956 103.285 239.256 103.981 239.856C104.689 240.444 105.121 241.236 105.277 242.232H103.333C103.249 241.692 103.015 241.26 102.631 240.936C102.259 240.6 101.761 240.432 101.137 240.432C100.621 240.432 100.219 240.558 99.9314 240.81C99.6554 241.05 99.5174 241.38 99.5174 241.8C99.5174 242.112 99.6194 242.364 99.8234 242.556C100.027 242.748 100.279 242.898 100.579 243.006C100.891 243.114 101.329 243.234 101.893 243.366C102.637 243.534 103.237 243.708 103.693 243.888C104.161 244.068 104.557 244.356 104.881 244.752C105.217 245.136 105.385 245.664 105.385 246.336C105.385 247.164 105.067 247.836 104.431 248.352C103.807 248.868 102.961 249.126 101.893 249.126C100.657 249.126 99.6554 248.838 98.8874 248.262C98.1314 247.686 97.6754 246.882 97.5194 245.85H99.5174C99.5774 246.39 99.8174 246.828 100.237 247.164C100.657 247.5 101.209 247.668 101.893 247.668C102.385 247.668 102.769 247.542 103.045 247.29C103.333 247.026 103.477 246.696 103.477 246.3C103.477 245.952 103.369 245.676 103.153 245.472C102.937 245.268 102.667 245.112 102.343 245.004C102.019 244.884 101.575 244.764 101.011 244.644C100.291 244.476 99.7034 244.308 99.2474 244.14C98.8034 243.972 98.4194 243.702 98.0954 243.33C97.7834 242.946 97.6274 242.43 97.6274 241.782C97.6274 240.942 97.9394 240.264 98.5634 239.748C99.1994 239.22 100.075 238.956 101.191 238.956ZM117.35 238.956C118.214 238.956 118.982 239.16 119.654 239.568C120.338 239.976 120.872 240.564 121.256 241.332C121.64 242.1 121.832 243 121.832 244.032C121.832 245.076 121.64 245.982 121.256 246.75C120.872 247.518 120.338 248.106 119.654 248.514C118.982 248.922 118.214 249.126 117.35 249.126C116.45 249.126 115.682 248.904 115.046 248.46C114.41 248.016 113.966 247.428 113.714 246.696V249H111.662V235.68H113.714V241.386C113.966 240.654 114.41 240.066 115.046 239.622C115.682 239.178 116.45 238.956 117.35 238.956ZM116.72 240.756C116.144 240.756 115.628 240.894 115.172 241.17C114.716 241.434 114.356 241.818 114.092 242.322C113.828 242.814 113.696 243.384 113.696 244.032C113.696 244.692 113.828 245.268 114.092 245.76C114.356 246.252 114.716 246.636 115.172 246.912C115.628 247.176 116.144 247.308 116.72 247.308C117.632 247.308 118.364 247.02 118.916 246.444C119.468 245.856 119.744 245.052 119.744 244.032C119.744 243.024 119.468 242.226 118.916 241.638C118.364 241.05 117.632 240.756 116.72 240.756ZM133.024 243.564C133.024 243.9 133 244.194 132.952 244.446H125.32C125.356 245.466 125.638 246.222 126.166 246.714C126.694 247.206 127.348 247.452 128.128 247.452C128.812 247.452 129.388 247.278 129.856 246.93C130.336 246.582 130.63 246.12 130.738 245.544H132.934C132.802 246.24 132.526 246.858 132.106 247.398C131.686 247.938 131.14 248.364 130.468 248.676C129.796 248.976 129.046 249.126 128.218 249.126C127.258 249.126 126.406 248.922 125.662 248.514C124.93 248.106 124.354 247.518 123.934 246.75C123.514 245.982 123.304 245.076 123.304 244.032C123.304 243 123.514 242.1 123.934 241.332C124.354 240.564 124.93 239.976 125.662 239.568C126.406 239.16 127.258 238.956 128.218 238.956C129.19 238.956 130.036 239.16 130.756 239.568C131.488 239.964 132.046 240.516 132.43 241.224C132.826 241.92 133.024 242.7 133.024 243.564ZM130.954 243.51C130.978 242.862 130.864 242.322 130.612 241.89C130.372 241.446 130.036 241.122 129.604 240.918C129.184 240.702 128.722 240.594 128.218 240.594C127.414 240.594 126.742 240.84 126.202 241.332C125.662 241.824 125.368 242.55 125.32 243.51H130.954ZM140.622 249L137.058 244.59V249H135.006V235.68H137.058V243.312L140.586 239.082H143.052L138.732 244.014L143.16 249H140.622ZM144.21 236.202C144.21 235.854 144.33 235.566 144.57 235.338C144.81 235.11 145.128 234.996 145.524 234.996C145.92 234.996 146.238 235.11 146.478 235.338C146.73 235.566 146.856 235.854 146.856 236.202C146.856 236.55 146.73 236.832 146.478 237.048C146.238 237.264 145.92 237.372 145.524 237.372C145.128 237.372 144.81 237.264 144.57 237.048C144.33 236.832 144.21 236.55 144.21 236.202ZM146.55 239.082V249H144.498V239.082H146.55ZM150.149 237.372C149.753 237.372 149.429 237.264 149.177 237.048C148.937 236.832 148.817 236.55 148.817 236.202C148.817 235.854 148.937 235.566 149.177 235.338C149.429 235.11 149.753 234.996 150.149 234.996C150.545 234.996 150.863 235.11 151.103 235.338C151.343 235.566 151.463 235.854 151.463 236.202C151.463 236.55 151.343 236.832 151.103 237.048C150.863 237.264 150.545 237.372 150.149 237.372ZM147.269 251.916H147.971C148.367 251.916 148.655 251.826 148.835 251.646C149.027 251.478 149.123 251.184 149.123 250.764V239.082H151.193V250.782C151.193 252.738 150.209 253.716 148.241 253.716H147.269V251.916ZM159.254 249L155.69 244.59V249H153.638V235.68H155.69V243.312L159.218 239.082H161.684L157.364 244.014L161.792 249H159.254ZM172.347 243.564C172.347 243.9 172.323 244.194 172.275 244.446H164.643C164.679 245.466 164.961 246.222 165.489 246.714C166.017 247.206 166.671 247.452 167.451 247.452C168.135 247.452 168.711 247.278 169.179 246.93C169.659 246.582 169.953 246.12 170.061 245.544H172.257C172.125 246.24 171.849 246.858 171.429 247.398C171.009 247.938 170.463 248.364 169.791 248.676C169.119 248.976 168.369 249.126 167.541 249.126C166.581 249.126 165.729 248.922 164.985 248.514C164.253 248.106 163.677 247.518 163.257 246.75C162.837 245.982 162.627 245.076 162.627 244.032C162.627 243 162.837 242.1 163.257 241.332C163.677 240.564 164.253 239.976 164.985 239.568C165.729 239.16 166.581 238.956 167.541 238.956C168.513 238.956 169.359 239.16 170.079 239.568C170.811 239.964 171.369 240.516 171.753 241.224C172.149 241.92 172.347 242.7 172.347 243.564ZM170.277 243.51C170.301 242.862 170.187 242.322 169.935 241.89C169.695 241.446 169.359 241.122 168.927 240.918C168.507 240.702 168.045 240.594 167.541 240.594C166.737 240.594 166.065 240.84 165.525 241.332C164.985 241.824 164.691 242.55 164.643 243.51H170.277ZM179.872 238.92C181.024 238.92 181.948 239.292 182.644 240.036C183.34 240.78 183.688 241.842 183.688 243.222V249H181.636V243.438C181.636 242.55 181.408 241.866 180.952 241.386C180.496 240.894 179.872 240.648 179.08 240.648C178.264 240.648 177.61 240.912 177.118 241.44C176.626 241.956 176.38 242.718 176.38 243.726V249H174.328V239.082H176.38V241.26C176.644 240.516 177.088 239.94 177.712 239.532C178.336 239.124 179.056 238.92 179.872 238.92Z" fill="#353535"/>
<path d="M197 243H209H197ZM209 243L203.857 238L209 243ZM209 243L203.857 248L209 243Z" fill="white"/>
<path d="M197 243H209M209 243L203.857 238M209 243L203.857 248" stroke="#353535" stroke-width="2.5" stroke-linecap="round" stroke-linejoin="round"/>
</svg>
