<svg width="112" height="49" viewBox="0 0 112 49" fill="none" xmlns="http://www.w3.org/2000/svg">
<path d="M48.4449 22.2636H48.3493C46.3024 16.6172 41.3575 11.9516 34.7675 9.79976C34.2824 8.80194 33.5379 7.95161 32.6111 7.33711C31.6843 6.72261 30.6092 6.36634 29.4974 6.30532C28.4576 6.17732 27.4024 6.33087 26.4429 6.7498C25.4834 7.16873 24.6552 7.83752 24.0455 8.68572C15.0069 9.63789 7.78562 15.0557 5.20317 22.2636H5.11708C2.29551 22.2636 0 24.8915 0 28.1194C0 31.3472 2.29551 33.9752 5.11708 33.9752H5.18404C8.05343 41.9543 16.6616 47.772 26.781 47.772C36.9004 47.772 45.5181 41.9543 48.378 33.9752H48.4449C51.3143 33.9752 53.562 31.3472 53.562 28.1194C53.562 24.8915 51.2665 22.2636 48.4449 22.2636ZM29.3156 8.20964C30.1427 8.23842 30.9437 8.50445 31.6224 8.97574C32.3012 9.44703 32.8287 10.1035 33.1415 10.8662C33.2575 11.2262 33.3156 11.6022 33.3137 11.9802C33.3137 13.8845 32.7493 15.2176 31.592 15.9888C29.1817 17.598 24.5524 16.6077 21.8456 15.7413C23.2855 14.2686 24.4198 12.5279 25.1837 10.6186C25.2491 10.418 25.3323 10.2237 25.4324 10.0378C25.8221 9.37948 26.4018 8.85309 27.096 8.52706C27.7903 8.20103 28.567 8.09043 29.3252 8.20964H29.3156ZM1.91293 28.1194C1.85629 27.2614 2.09295 26.4096 2.58441 25.7025C3.07587 24.9954 3.79321 24.4747 4.61972 24.225C4.32119 25.5117 4.16721 26.8274 4.16062 28.1479C4.16459 29.4492 4.31538 30.746 4.61016 32.0137C3.78542 31.7623 3.07023 31.2408 2.58062 30.5339C2.09101 29.827 1.85572 28.9761 1.91293 28.1194ZM26.781 45.8582C15.3608 45.8582 6.07355 37.9076 6.07355 28.1479C6.07355 19.4833 13.2853 12.2183 23.0891 10.7234L23.003 10.8947C22.9769 10.961 22.9449 11.0247 22.9073 11.0852C22.8595 11.1899 22.8021 11.2851 22.7543 11.3803L22.6491 11.5613L22.4673 11.866L22.3717 12.0183L22.1135 12.3992V12.4563L21.7978 12.8943L21.7404 12.9609L21.4822 13.3037L21.377 13.418C21.3116 13.5074 21.2413 13.5932 21.1666 13.6751L21.0518 13.8179L20.8605 14.0274L20.7361 14.1702L20.5735 14.3511L20.4588 14.4749L20.3057 14.6367L20.2005 14.751C20.1535 14.793 20.1088 14.8375 20.0666 14.8843L19.971 14.9795L19.8658 15.0843L19.7797 15.1604L19.6936 15.2461L19.6458 15.2937L19.5788 15.3509C19.4603 15.4589 19.3709 15.5949 19.3191 15.7463C19.2673 15.8977 19.2546 16.0597 19.2823 16.2173C19.3086 16.3765 19.375 16.5263 19.4754 16.6529C19.5758 16.7795 19.7068 16.8786 19.8562 16.941L19.9805 16.9886H20.0475L20.2866 17.0838H20.344L20.7648 17.2362H20.8796L21.31 17.379L21.4535 17.4266L22.0943 17.6265H22.2187L22.8308 17.7884L23.0412 17.8455L23.8447 18.0455L24.6672 18.2074L24.8681 18.4549L25.6428 18.5787H25.7958C26.0923 18.6263 26.3984 18.6549 26.7045 18.6834H26.9436C27.1923 18.6834 27.441 18.6834 27.6992 18.6834H28.2922H29.1148L29.5261 18.6358L30.2625 18.5121L30.6069 18.4549C30.8535 18.3932 31.0962 18.3169 31.3338 18.2264L31.6685 18.1026C32.4268 17.7913 33.1055 17.315 33.655 16.7087C34.2044 16.1024 34.6107 15.3815 34.844 14.5987C34.844 14.5987 34.844 14.5987 34.844 14.5511C34.9235 14.3045 34.9873 14.0533 35.0353 13.7988C35.0353 13.6846 35.0353 13.5608 35.0353 13.4465C35.0353 13.3323 35.0927 13.1133 35.1118 12.9324C35.1309 12.7515 35.1118 12.6277 35.1118 12.4753C35.1118 12.323 35.1118 12.1611 35.1118 11.9993C42.4957 14.8557 47.3641 21.1686 47.3641 28.186C47.4885 37.9076 38.2012 45.8582 26.781 45.8582ZM48.9518 32.0137C49.5703 29.454 49.5703 26.7848 48.9518 24.225C49.7766 24.4764 50.4918 24.9979 50.9814 25.7048C51.471 26.4117 51.7063 27.2626 51.6491 28.1194C51.7063 28.9761 51.471 29.827 50.9814 30.5339C50.4918 31.2408 49.7766 31.7623 48.9518 32.0137Z" fill="#64A7E9"/>
<path d="M18.4503 22.6349C17.4809 22.6963 16.5749 23.1355 15.9285 23.8573C15.2822 24.5791 14.9477 25.5255 14.9974 26.4912C14.9974 26.7437 15.0982 26.9859 15.2776 27.1644C15.457 27.343 15.7002 27.4433 15.9539 27.4433C16.2076 27.4433 16.4509 27.343 16.6302 27.1644C16.8096 26.9859 16.9104 26.7437 16.9104 26.4912C16.8614 26.0303 16.9949 25.5686 17.2824 25.2041C17.5699 24.8396 17.9889 24.6011 18.4503 24.5392C18.9117 24.6011 19.3306 24.8396 19.6182 25.2041C19.9057 25.5686 20.0392 26.0303 19.9902 26.4912C19.9902 26.7437 20.091 26.9859 20.2703 27.1644C20.4497 27.343 20.693 27.4433 20.9466 27.4433C21.2003 27.4433 21.4436 27.343 21.623 27.1644C21.8023 26.9859 21.9031 26.7437 21.9031 26.4912C21.9529 25.5255 21.6184 24.5791 20.972 23.8573C20.3257 23.1355 19.4197 22.6963 18.4503 22.6349Z" fill="#64A7E9"/>
<path d="M34.2789 22.6349C33.3095 22.6963 32.4035 23.1355 31.7572 23.8573C31.1109 24.5791 30.7763 25.5255 30.8261 26.4912C30.8261 26.7437 30.9269 26.9859 31.1062 27.1644C31.2856 27.343 31.5289 27.4433 31.7826 27.4433C32.0362 27.4433 32.2795 27.343 32.4589 27.1644C32.6383 26.9859 32.739 26.7437 32.739 26.4912C32.69 26.0303 32.8235 25.5686 33.1111 25.2041C33.3986 24.8396 33.8176 24.6011 34.2789 24.5392C34.7403 24.6011 35.1593 24.8396 35.4468 25.2041C35.7344 25.5686 35.8678 26.0303 35.8188 26.4912C35.8188 26.7437 35.9196 26.9859 36.099 27.1644C36.2784 27.343 36.5216 27.4433 36.7753 27.4433C37.029 27.4433 37.2723 27.343 37.4516 27.1644C37.631 26.9859 37.7318 26.7437 37.7318 26.4912C37.7815 25.5255 37.447 24.5791 36.8007 23.8573C36.1544 23.1355 35.2483 22.6963 34.2789 22.6349Z" fill="#64A7E9"/>
<path d="M30.9413 33.4134C30.6876 33.4134 30.4443 33.5138 30.2649 33.6923C30.0856 33.8709 29.9848 34.1131 29.9848 34.3656C29.9848 35.2116 29.6472 36.0229 29.0463 36.6211C28.4454 37.2193 27.6304 37.5554 26.7806 37.5554C25.9308 37.5554 25.1159 37.2193 24.515 36.6211C23.9141 36.0229 23.5765 35.2116 23.5765 34.3656C23.5765 34.1131 23.4757 33.8709 23.2963 33.6923C23.117 33.5138 22.8737 33.4134 22.62 33.4134C22.3664 33.4134 22.1231 33.5138 21.9437 33.6923C21.7643 33.8709 21.6636 34.1131 21.6636 34.3656C21.6636 35.7166 22.2027 37.0123 23.1623 37.9677C24.122 38.923 25.4235 39.4597 26.7806 39.4597C28.1378 39.4597 29.4393 38.923 30.399 37.9677C31.3586 37.0123 31.8977 35.7166 31.8977 34.3656C31.8977 34.1131 31.797 33.8709 31.6176 33.6923C31.4382 33.5138 31.1949 33.4134 30.9413 33.4134Z" fill="#64A7E9"/>
<path d="M107.299 21.4236C106 16.8322 103.178 12.8155 99.2948 10.0291C98.7836 9.13468 98.031 8.40131 97.1225 7.91239C99.751 4.34173 99.8105 3.54055 99.8403 3.18448C99.8599 2.83562 99.8046 2.4866 99.678 2.16079C99.5515 1.83497 99.3565 1.53989 99.1063 1.29529C98.4814 0.652371 97.182 -0.0795657 94.5833 0.0687999C92.1432 0.207274 89.7826 2.22505 88.4137 3.62957C87.4804 2.94205 86.3505 2.57105 85.1901 2.57105C84.0297 2.57105 82.8998 2.94205 81.9665 3.62957C80.6373 2.18548 78.2766 0.157819 75.8267 0.0193445C73.2279 -0.129021 71.9285 0.602916 71.3334 1.29529C71.0718 1.55024 70.8702 1.85996 70.7433 2.20207C70.6164 2.54418 70.5672 2.91014 70.5994 3.2735C70.5994 3.61968 70.6887 4.43075 73.347 7.98163C72.4125 8.47398 71.6486 9.23575 71.1549 10.1676C71.096 10.1879 71.0395 10.2144 70.9863 10.2467C67.2051 13.0062 64.4463 16.9362 63.1404 21.4236C60.502 21.7697 58.4389 24.3414 58.4389 27.467C58.4389 30.7607 60.74 33.4016 63.5868 33.55C66.6219 41.987 75.172 48.0898 85.2199 48.0898C95.2677 48.0898 103.818 41.987 106.853 33.55C109.7 33.4511 112.001 30.7607 112.001 27.467C112.001 24.3513 109.938 21.7697 107.299 21.4236ZM94.7222 1.99755C96.8051 1.87886 97.5391 2.45254 97.6978 2.63058C97.7527 2.67697 97.797 2.73449 97.8277 2.79931C97.8585 2.86412 97.8751 2.93473 97.8764 3.00644C97.2498 4.39022 96.4354 5.68155 95.4562 6.84416C95.3052 7.0552 95.1991 7.29484 95.1445 7.5483C95.09 7.80176 95.088 8.06368 95.1388 8.31793C95.1895 8.56826 95.2915 8.80548 95.4382 9.01479C95.585 9.2241 95.7734 9.40103 95.9918 9.53453C97.1721 10.2566 97.5986 10.8797 97.5292 11.1072C97.0694 11.9576 96.3305 12.6245 95.4363 12.9964C94.6596 13.445 93.7389 13.5761 92.8673 13.3624C91.6953 12.7418 90.6783 11.8662 89.8917 10.8006C90.0295 10.5817 90.1522 10.3537 90.2587 10.1181C90.6058 10.2566 91.0423 10.4346 91.568 10.672C91.6987 10.7314 91.8409 10.7618 91.9845 10.761C92.2077 10.7575 92.4232 10.6791 92.5961 10.5384C92.7691 10.3976 92.8894 10.2029 92.9375 9.98552C92.9857 9.76819 92.959 9.541 92.8616 9.34069C92.7643 9.14039 92.6021 8.97868 92.4011 8.88172C91.6969 8.55531 91.1216 8.32782 90.6951 8.16956C90.6951 8.10032 90.6951 8.03109 90.6951 7.96185C90.7102 7.75771 90.7102 7.55274 90.6951 7.34861C91.4903 7.03332 92.3141 6.79485 93.155 6.63645C93.2852 6.61372 93.4097 6.56563 93.5213 6.49492C93.633 6.42421 93.7295 6.33227 93.8055 6.22435C93.8815 6.11643 93.9354 5.99464 93.9642 5.86594C93.993 5.73724 93.9961 5.60414 93.9733 5.47425C93.9505 5.34436 93.9023 5.22022 93.8314 5.10892C93.7604 4.99761 93.6683 4.90132 93.56 4.82555C93.4518 4.74978 93.3297 4.696 93.2006 4.66729C93.0715 4.63859 92.9381 4.63551 92.8078 4.65824C91.8682 4.81742 90.9475 5.07263 90.0603 5.41985C89.9809 5.27149 89.8917 5.12312 89.8024 4.98465C91.5679 3.20426 93.3831 2.06679 94.7222 1.99755ZM85.2199 4.49999C85.9065 4.49999 86.5777 4.70302 87.1486 5.08341C87.7195 5.46381 88.1645 6.00448 88.4272 6.63705C88.69 7.26962 88.7587 7.96569 88.6248 8.63723C88.4908 9.30876 88.1602 9.92561 87.6747 10.4098C87.1891 10.8939 86.5706 11.2236 85.8971 11.3572C85.2237 11.4908 84.5257 11.4222 83.8913 11.1602C83.257 10.8982 82.7148 10.4545 82.3333 9.88516C81.9519 9.31586 81.7483 8.64654 81.7483 7.96185C81.7483 7.04371 82.114 6.16317 82.7651 5.51394C83.4161 4.86472 84.2991 4.49999 85.2199 4.49999ZM74.438 9.53453C74.6593 9.40095 74.8503 9.22293 74.9989 9.01178C75.1474 8.80063 75.2503 8.56097 75.301 8.30804C75.3501 8.0547 75.3464 7.79398 75.2901 7.54213C75.2338 7.29027 75.1261 7.05268 74.9736 6.84416C74.0025 5.68286 73.1888 4.3992 72.5534 3.02622C72.5525 2.95128 72.568 2.87705 72.5988 2.80871C72.6297 2.74037 72.6751 2.67957 72.732 2.63058C72.9105 2.45254 73.6445 1.86897 75.7076 1.99755C77.0467 2.06679 78.8619 3.20426 80.6671 5.02421C80.5778 5.17258 80.4886 5.31105 80.4092 5.45942C79.5216 5.11325 78.6011 4.85806 77.6617 4.69781C77.5333 4.67348 77.4015 4.67466 77.2736 4.7013C77.1457 4.72794 77.0244 4.77949 76.9166 4.85302C76.8087 4.92654 76.7165 5.02058 76.6452 5.12974C76.5739 5.23889 76.525 5.36101 76.5012 5.48909C76.4545 5.74463 76.5106 6.00819 76.6572 6.22287C76.8038 6.43755 77.0292 6.5861 77.2848 6.63645C78.1497 6.78851 78.9971 7.0271 79.8141 7.34861C79.7993 7.55275 79.7993 7.7577 79.8141 7.96185C79.8141 8.03109 79.8141 8.10032 79.8141 8.16956C79.3876 8.32782 78.8222 8.55531 78.108 8.88172C77.9071 8.97868 77.7449 9.14039 77.6475 9.34069C77.5502 9.541 77.5234 9.76819 77.5716 9.98552C77.6198 10.2029 77.7401 10.3976 77.913 10.5384C78.0859 10.6791 78.3014 10.7575 78.5246 10.761C78.6681 10.76 78.8099 10.7297 78.9412 10.672C79.457 10.4346 79.9331 10.2467 80.2505 10.1181C80.357 10.3537 80.4796 10.5817 80.6175 10.8006C79.8308 11.8662 78.8138 12.7418 77.6418 13.3624C76.7703 13.5761 75.8495 13.445 75.0728 12.9964C74.1786 12.6245 73.4398 11.9576 72.98 11.1072C72.8312 10.8797 73.2577 10.2566 74.438 9.53453ZM60.4226 27.467C60.3844 26.6758 60.5755 25.8903 60.973 25.2045C61.3705 24.5187 61.9577 23.9615 62.6643 23.5996C62.2393 26.2078 62.3404 28.8744 62.9619 31.4432C62.1732 31.1307 61.5034 30.5783 61.0476 29.8645C60.5917 29.1507 60.3731 28.3118 60.4226 27.467ZM85.2199 46.1116C73.7338 46.1116 64.3902 37.447 64.3902 26.7944C64.4076 24.0313 65.0394 21.3065 66.24 18.8162C67.4407 16.3259 69.1802 14.1322 71.3334 12.393C72.0251 13.428 72.9895 14.2528 74.1206 14.7768C74.9614 15.2016 75.8863 15.4347 76.8285 15.4593C77.3224 15.4675 77.8136 15.3836 78.2766 15.212C79.7185 14.5269 80.9764 13.5098 81.9466 12.2447C82.8942 12.9697 84.0552 13.3628 85.2496 13.3628C86.444 13.3628 87.605 12.9697 88.5526 12.2447C89.525 13.5077 90.7824 14.5243 92.2226 15.212C92.6763 15.38 93.157 15.4638 93.641 15.4593C94.5832 15.4347 95.5081 15.2016 96.3489 14.7768C97.4691 14.2482 98.4227 13.4238 99.1063 12.393C101.261 14.1308 103.002 16.3242 104.203 18.8148C105.403 21.3054 106.034 24.0309 106.05 26.7944C106.05 37.447 96.7059 46.1116 85.2199 46.1116ZM107.478 31.4432C108.099 28.8744 108.2 26.2078 107.775 23.5996C108.481 23.9625 109.068 24.5198 109.465 25.2054C109.862 25.891 110.054 26.676 110.017 27.467C110.068 28.3121 109.85 29.1516 109.394 29.8657C108.938 30.5798 108.267 31.1319 107.478 31.4432Z" fill="#FF7D97"/>
<path d="M76.5796 21.7698C75.5743 21.8335 74.6347 22.2897 73.9645 23.0396C73.2942 23.7894 72.9473 24.7725 72.9989 25.7756C72.9989 26.038 73.1034 26.2896 73.2894 26.475C73.4754 26.6605 73.7277 26.7647 73.9908 26.7647C74.2539 26.7647 74.5062 26.6605 74.6922 26.475C74.8782 26.2896 74.9827 26.038 74.9827 25.7756C74.9319 25.2969 75.0703 24.8172 75.3685 24.4386C75.6667 24.06 76.1012 23.8122 76.5796 23.748C77.0581 23.8122 77.4926 24.06 77.7908 24.4386C78.089 24.8172 78.2274 25.2969 78.1766 25.7756C78.1766 26.038 78.2811 26.2896 78.4671 26.475C78.6531 26.6605 78.9054 26.7647 79.1685 26.7647C79.4315 26.7647 79.6838 26.6605 79.8698 26.475C80.0558 26.2896 80.1603 26.038 80.1603 25.7756C80.212 24.7725 79.865 23.7894 79.1948 23.0396C78.5245 22.2897 77.5849 21.8335 76.5796 21.7698Z" fill="#FF7D97"/>
<path d="M92.9963 21.7698C91.991 21.8335 91.0514 22.2897 90.3811 23.0396C89.7109 23.7894 89.3639 24.7725 89.4156 25.7756C89.4156 26.038 89.5201 26.2896 89.7061 26.475C89.8921 26.6605 90.1444 26.7647 90.4074 26.7647C90.6705 26.7647 90.9228 26.6605 91.1088 26.475C91.2948 26.2896 91.3993 26.038 91.3993 25.7756C91.3485 25.2969 91.4869 24.8172 91.7851 24.4386C92.0833 24.06 92.5178 23.8122 92.9963 23.748C93.4747 23.8122 93.9092 24.06 94.2074 24.4386C94.5056 24.8172 94.644 25.2969 94.5932 25.7756C94.5932 26.038 94.6977 26.2896 94.8837 26.475C95.0697 26.6605 95.322 26.7647 95.5851 26.7647C95.8482 26.7647 96.1005 26.6605 96.2865 26.475C96.4725 26.2896 96.577 26.038 96.577 25.7756C96.6286 24.7725 96.2817 23.7894 95.6114 23.0396C94.9412 22.2897 94.0016 21.8335 92.9963 21.7698Z" fill="#FF7D97"/>
<path d="M89.5343 32.9466C89.2712 32.9466 89.0189 33.0508 88.8329 33.2363C88.6469 33.4218 88.5424 33.6734 88.5424 33.9357C88.5424 34.8145 88.1923 35.6573 87.5691 36.2787C86.946 36.9001 86.1008 37.2492 85.2195 37.2492C84.3383 37.2492 83.4931 36.9001 82.8699 36.2787C82.2468 35.6573 81.8967 34.8145 81.8967 33.9357C81.8967 33.6734 81.7922 33.4218 81.6062 33.2363C81.4202 33.0508 81.1679 32.9466 80.9048 32.9466C80.6418 32.9466 80.3895 33.0508 80.2035 33.2363C80.0174 33.4218 79.9129 33.6734 79.9129 33.9357C79.9129 35.3391 80.472 36.6851 81.4672 37.6775C82.4624 38.6699 83.8121 39.2274 85.2195 39.2274C86.6269 39.2274 87.9767 38.6699 88.9719 37.6775C89.9671 36.6851 90.5261 35.3391 90.5261 33.9357C90.5261 33.6734 90.4216 33.4218 90.2356 33.2363C90.0496 33.0508 89.7973 32.9466 89.5343 32.9466Z" fill="#FF7D97"/>
</svg>
