<svg width="265" height="272" viewBox="0 0 265 272" fill="none" xmlns="http://www.w3.org/2000/svg">
<path d="M217.389 40.293C208.359 27.4557 190.748 21.285 177.096 26.6339C168.065 3.95765 135.729 -4.2637 111.485 2.06611C83.7254 9.31392 71.3552 36.8023 78.5634 61.2035C70.9527 59.5563 62.6748 60.7668 55.7089 64.7682C41.9747 72.6638 37.409 89.6988 41.3746 104.328C45.5862 119.863 58.8397 131.89 74.9705 133.848C88.4811 135.488 100.725 130.657 111.511 123.358C123.046 141.17 151.193 142.843 171.408 136.935C184.308 133.167 195.948 125.56 203.413 114.326C207.412 108.311 210.815 100.134 210.617 92.5528C228.679 84.672 228.295 55.788 217.393 40.293H217.389Z" fill="white"/>
<path d="M165.357 62.9007H165.214C162.157 54.4673 154.771 47.4988 144.929 44.2848C144.204 42.7944 143.092 41.5244 141.708 40.6066C140.324 39.6887 138.718 39.1566 137.057 39.0655C135.504 38.8743 133.928 39.1036 132.495 39.7294C131.062 40.3551 129.825 41.354 128.914 42.6208C115.414 44.043 104.629 52.135 100.771 62.9007H100.643C96.4286 62.9007 93 66.8258 93 71.6469C93 76.468 96.4286 80.3931 100.643 80.3931H100.743C105.029 92.3107 117.886 101 133 101C148.114 101 160.986 92.3107 165.257 80.3931H165.357C169.643 80.3931 173 76.468 173 71.6469C173 66.8258 169.571 62.9007 165.357 62.9007ZM136.786 41.9098C138.021 41.9527 139.217 42.3501 140.231 43.054C141.245 43.7579 142.033 44.7384 142.5 45.8776C142.673 46.4153 142.76 46.9768 142.757 47.5415C142.757 50.3858 141.914 52.3768 140.186 53.5287C136.586 55.9321 129.671 54.4531 125.629 53.159C127.779 50.9593 129.473 48.3594 130.614 45.5078C130.712 45.2082 130.836 44.9179 130.986 44.6403C131.568 43.657 132.434 42.8708 133.471 42.3839C134.507 41.8969 135.668 41.7317 136.8 41.9098H136.786ZM95.8571 71.6469C95.7725 70.3654 96.126 69.0931 96.8601 68.037C97.5941 66.9809 98.6655 66.2032 99.9 65.8303C99.4541 67.7521 99.2241 69.7172 99.2143 71.6895C99.2202 73.6331 99.4454 75.5699 99.8857 77.4635C98.6539 77.0879 97.5857 76.3091 96.8544 75.2532C96.1231 74.1974 95.7717 72.9265 95.8571 71.6469ZM133 98.1415C115.943 98.1415 102.071 86.2665 102.071 71.6895C102.071 58.748 112.843 47.897 127.486 45.6642L127.357 45.9202C127.318 46.0191 127.27 46.1143 127.214 46.2047C127.143 46.3611 127.057 46.5033 126.986 46.6455L126.829 46.9157L126.557 47.3708L126.414 47.5984L126.029 48.1672V48.2525L125.557 48.9067L125.471 49.0063L125.086 49.5183L124.929 49.6889C124.831 49.8225 124.726 49.9507 124.614 50.0729L124.443 50.2862L124.157 50.5991L123.971 50.8124L123.729 51.0826L123.557 51.2675L123.329 51.5093L123.171 51.6799C123.101 51.7427 123.034 51.8091 122.971 51.879L122.829 52.0212L122.671 52.1777L122.543 52.2914L122.414 52.4194L122.343 52.4905L122.243 52.5759C122.066 52.7372 121.932 52.9403 121.855 53.1665C121.778 53.3927 121.759 53.6346 121.8 53.87C121.839 54.1077 121.938 54.3316 122.088 54.5206C122.238 54.7097 122.434 54.8577 122.657 54.9509L122.843 55.022H122.943L123.3 55.1642H123.386L124.014 55.3917H124.186L124.829 55.605L125.043 55.6762L126 55.9748H126.186L127.1 56.2166L127.414 56.3019L128.614 56.6006L129.843 56.8423L130.143 57.2121L131.3 57.397H131.529C131.971 57.4681 132.429 57.5107 132.886 57.5534H133.243C133.614 57.5534 133.986 57.5534 134.371 57.5534H135.257H136.486L137.1 57.4823L138.2 57.2974L138.714 57.2121C139.083 57.1199 139.445 57.0059 139.8 56.8708L140.3 56.6859C141.433 56.2208 142.446 55.5095 143.267 54.604C144.088 53.6984 144.694 52.6216 145.043 51.4524C145.043 51.4524 145.043 51.4524 145.043 51.3813C145.162 51.0131 145.257 50.6378 145.329 50.2578C145.329 50.0871 145.329 49.9022 145.329 49.7316C145.329 49.5609 145.414 49.2338 145.443 48.9636C145.471 48.6934 145.443 48.5085 145.443 48.281C145.443 48.0534 145.443 47.8117 145.443 47.5699C156.471 51.8364 163.743 61.2652 163.743 71.7464C163.929 86.2666 150.057 98.1415 133 98.1415ZM166.114 77.4635C167.038 73.6403 167.038 69.6535 166.114 65.8303C167.346 66.2058 168.414 66.9847 169.146 68.0405C169.877 69.0963 170.228 70.3672 170.143 71.6469C170.228 72.9265 169.877 74.1974 169.146 75.2532C168.414 76.3091 167.346 77.0879 166.114 77.4635Z" fill="#64A7E9"/>
<path d="M120.557 63.4553C119.109 63.547 117.756 64.2029 116.79 65.2811C115.825 66.3592 115.325 67.7726 115.4 69.215C115.4 69.5922 115.55 69.9539 115.818 70.2206C116.086 70.4873 116.45 70.6372 116.828 70.6372C117.207 70.6372 117.571 70.4873 117.839 70.2206C118.106 69.9539 118.257 69.5922 118.257 69.215C118.184 68.5267 118.383 67.837 118.813 67.2926C119.242 66.7483 119.868 66.392 120.557 66.2996C121.246 66.392 121.872 66.7483 122.301 67.2926C122.731 67.837 122.93 68.5267 122.857 69.215C122.857 69.5922 123.007 69.9539 123.275 70.2206C123.543 70.4873 123.907 70.6372 124.286 70.6372C124.664 70.6372 125.028 70.4873 125.296 70.2206C125.564 69.9539 125.714 69.5922 125.714 69.215C125.788 67.7726 125.289 66.3592 124.323 65.2811C123.358 64.2029 122.005 63.547 120.557 63.4553Z" fill="#64A7E9"/>
<path d="M144.2 63.4553C142.752 63.547 141.398 64.2029 140.433 65.2811C139.468 66.3592 138.968 67.7726 139.042 69.215C139.042 69.5922 139.193 69.9539 139.461 70.2206C139.729 70.4873 140.092 70.6372 140.471 70.6372C140.85 70.6372 141.213 70.4873 141.481 70.2206C141.749 69.9539 141.9 69.5922 141.9 69.215C141.826 68.5267 142.026 67.837 142.455 67.2926C142.885 66.7483 143.51 66.392 144.2 66.2996C144.889 66.392 145.514 66.7483 145.944 67.2926C146.373 67.837 146.573 68.5267 146.5 69.215C146.5 69.5922 146.65 69.9539 146.918 70.2206C147.186 70.4873 147.549 70.6372 147.928 70.6372C148.307 70.6372 148.67 70.4873 148.938 70.2206C149.206 69.9539 149.357 69.5922 149.357 69.215C149.431 67.7726 148.931 66.3592 147.966 65.2811C147.001 64.2029 145.647 63.547 144.2 63.4553Z" fill="#64A7E9"/>
<path d="M139.215 79.554C138.836 79.554 138.472 79.7038 138.204 79.9705C137.937 80.2372 137.786 80.5989 137.786 80.9761C137.786 82.2396 137.282 83.4514 136.384 84.3449C135.487 85.2384 134.27 85.7403 133 85.7403C131.731 85.7403 130.514 85.2384 129.616 84.3449C128.719 83.4514 128.215 82.2396 128.215 80.9761C128.215 80.5989 128.064 80.2372 127.796 79.9705C127.528 79.7038 127.165 79.554 126.786 79.554C126.407 79.554 126.044 79.7038 125.776 79.9705C125.508 80.2372 125.357 80.5989 125.357 80.9761C125.357 82.994 126.163 84.9293 127.596 86.3561C129.029 87.783 130.973 88.5846 133 88.5846C135.027 88.5846 136.971 87.783 138.405 86.3561C139.838 84.9293 140.643 82.994 140.643 80.9761C140.643 80.5989 140.493 80.2372 140.225 79.9705C139.957 79.7038 139.593 79.554 139.215 79.554Z" fill="#64A7E9"/>
<path d="M19.3682 189.35C17.8749 189.35 16.5566 189.07 15.4132 188.51C14.2932 187.927 13.3599 187.145 12.6132 186.165L15.8332 183.085C16.2532 183.692 16.7549 184.158 17.3382 184.485C17.9449 184.788 18.6099 184.94 19.3332 184.94C20.0566 184.94 20.6866 184.788 21.2232 184.485C21.7832 184.182 22.2032 183.738 22.4832 183.155C22.7866 182.572 22.9382 181.86 22.9382 181.02V164.395H27.7332V180.74C27.7332 182.467 27.3832 183.983 26.6832 185.29C26.0066 186.573 25.0382 187.577 23.7782 188.3C22.5416 189 21.0716 189.35 19.3682 189.35ZM39.8676 189.35C38.1642 189.35 36.6242 188.965 35.2476 188.195C33.8942 187.402 32.8092 186.34 31.9926 185.01C31.1992 183.657 30.8026 182.152 30.8026 180.495C30.8026 178.838 31.1992 177.357 31.9926 176.05C32.7859 174.72 33.8709 173.67 35.2476 172.9C36.6242 172.107 38.1526 171.71 39.8326 171.71C41.5592 171.71 43.0992 172.107 44.4526 172.9C45.8292 173.67 46.9142 174.72 47.7076 176.05C48.5009 177.357 48.8976 178.838 48.8976 180.495C48.8976 182.152 48.5009 183.657 47.7076 185.01C46.9142 186.34 45.8292 187.402 44.4526 188.195C43.0992 188.965 41.5709 189.35 39.8676 189.35ZM39.8326 185.08C40.6959 185.08 41.4542 184.893 42.1076 184.52C42.7842 184.123 43.2976 183.587 43.6476 182.91C44.0209 182.21 44.2076 181.417 44.2076 180.53C44.2076 179.643 44.0209 178.862 43.6476 178.185C43.2742 177.508 42.7609 176.983 42.1076 176.61C41.4542 176.213 40.6959 176.015 39.8326 176.015C38.9926 176.015 38.2459 176.213 37.5926 176.61C36.9392 176.983 36.4259 177.508 36.0526 178.185C35.6792 178.862 35.4926 179.643 35.4926 180.53C35.4926 181.417 35.6792 182.21 36.0526 182.91C36.4259 183.587 36.9392 184.123 37.5926 184.52C38.2459 184.893 38.9926 185.08 39.8326 185.08ZM63.2243 189V179.305C63.2243 178.302 62.9093 177.485 62.2793 176.855C61.6493 176.225 60.8327 175.91 59.8293 175.91C59.176 175.91 58.5927 176.05 58.0793 176.33C57.566 176.61 57.1577 177.007 56.8543 177.52C56.5743 178.033 56.4343 178.628 56.4343 179.305L54.6493 178.395C54.6493 177.065 54.9293 175.91 55.4893 174.93C56.0727 173.927 56.866 173.145 57.8693 172.585C58.896 172.025 60.051 171.745 61.3343 171.745C62.571 171.745 63.6793 172.06 64.6593 172.69C65.6393 173.297 66.4093 174.102 66.9693 175.105C67.5293 176.085 67.8093 177.147 67.8093 178.29V189H63.2243ZM51.8493 189V172.095H56.4343V189H51.8493ZM78.5727 196.49C76.776 196.49 75.1893 196.163 73.8127 195.51C72.436 194.88 71.3393 193.982 70.5227 192.815L73.4277 189.91C74.081 190.68 74.8043 191.263 75.5977 191.66C76.4143 192.08 77.3943 192.29 78.5377 192.29C79.961 192.29 81.081 191.928 81.8977 191.205C82.7377 190.482 83.1577 189.478 83.1577 188.195V183.96L83.9277 180.25L83.1927 176.54V172.095H87.7427V188.125C87.7427 189.805 87.346 191.263 86.5527 192.5C85.7827 193.76 84.7093 194.74 83.3327 195.44C81.956 196.14 80.3693 196.49 78.5727 196.49ZM78.3627 188.545C76.846 188.545 75.481 188.183 74.2677 187.46C73.0543 186.713 72.0977 185.698 71.3977 184.415C70.721 183.132 70.3827 181.697 70.3827 180.11C70.3827 178.523 70.721 177.1 71.3977 175.84C72.0977 174.58 73.0543 173.588 74.2677 172.865C75.481 172.118 76.846 171.745 78.3627 171.745C79.6227 171.745 80.731 171.99 81.6877 172.48C82.6677 172.97 83.4377 173.647 83.9977 174.51C84.5577 175.35 84.861 176.342 84.9077 177.485V182.805C84.861 183.925 84.546 184.928 83.9627 185.815C83.4027 186.678 82.6327 187.355 81.6527 187.845C80.696 188.312 79.5993 188.545 78.3627 188.545ZM79.2727 184.38C80.1127 184.38 80.836 184.205 81.4427 183.855C82.0727 183.482 82.5627 182.98 82.9127 182.35C83.2627 181.697 83.4377 180.962 83.4377 180.145C83.4377 179.305 83.2627 178.57 82.9127 177.94C82.5627 177.31 82.0727 176.82 81.4427 176.47C80.836 176.097 80.1127 175.91 79.2727 175.91C78.4327 175.91 77.6977 176.097 77.0677 176.47C76.4377 176.82 75.9477 177.322 75.5977 177.975C75.2477 178.605 75.0727 179.328 75.0727 180.145C75.0727 180.938 75.2477 181.662 75.5977 182.315C75.9477 182.945 76.4377 183.447 77.0677 183.82C77.6977 184.193 78.4327 184.38 79.2727 184.38ZM99.8562 189.35C98.0829 189.35 96.5079 188.977 95.1312 188.23C93.7545 187.46 92.6579 186.41 91.8412 185.08C91.0479 183.75 90.6512 182.233 90.6512 180.53C90.6512 178.85 91.0362 177.357 91.8062 176.05C92.5995 174.72 93.6729 173.67 95.0262 172.9C96.3795 172.107 97.8845 171.71 99.5412 171.71C101.175 171.71 102.61 172.083 103.846 172.83C105.106 173.553 106.086 174.557 106.786 175.84C107.51 177.1 107.871 178.535 107.871 180.145C107.871 180.448 107.848 180.763 107.801 181.09C107.778 181.393 107.72 181.743 107.626 182.14L93.4162 182.175V178.745L105.491 178.71L103.636 180.145C103.59 179.142 103.403 178.302 103.076 177.625C102.773 176.948 102.318 176.435 101.711 176.085C101.128 175.712 100.405 175.525 99.5412 175.525C98.6312 175.525 97.8379 175.735 97.1612 176.155C96.4845 176.552 95.9595 177.123 95.5862 177.87C95.2362 178.593 95.0612 179.457 95.0612 180.46C95.0612 181.487 95.2479 182.385 95.6212 183.155C96.0179 183.902 96.5779 184.485 97.3012 184.905C98.0245 185.302 98.8645 185.5 99.8212 185.5C100.685 185.5 101.466 185.36 102.166 185.08C102.866 184.777 103.473 184.333 103.986 183.75L106.681 186.445C105.865 187.402 104.861 188.125 103.671 188.615C102.505 189.105 101.233 189.35 99.8562 189.35ZM122.082 189V179.305C122.082 178.302 121.767 177.485 121.137 176.855C120.507 176.225 119.69 175.91 118.687 175.91C118.033 175.91 117.45 176.05 116.937 176.33C116.423 176.61 116.015 177.007 115.712 177.52C115.432 178.033 115.292 178.628 115.292 179.305L113.507 178.395C113.507 177.065 113.787 175.91 114.347 174.93C114.93 173.927 115.723 173.145 116.727 172.585C117.753 172.025 118.908 171.745 120.192 171.745C121.428 171.745 122.537 172.06 123.517 172.69C124.497 173.297 125.267 174.102 125.827 175.105C126.387 176.085 126.667 177.147 126.667 178.29V189H122.082ZM110.707 189V172.095H115.292V189H110.707ZM136.17 189.385C135.213 189.385 134.268 189.257 133.335 189C132.425 188.743 131.585 188.393 130.815 187.95C130.045 187.483 129.38 186.923 128.82 186.27L131.55 183.505C132.133 184.158 132.81 184.648 133.58 184.975C134.35 185.302 135.202 185.465 136.135 185.465C136.882 185.465 137.442 185.36 137.815 185.15C138.212 184.94 138.41 184.625 138.41 184.205C138.41 183.738 138.2 183.377 137.78 183.12C137.383 182.863 136.858 182.653 136.205 182.49C135.552 182.303 134.863 182.105 134.14 181.895C133.44 181.662 132.763 181.37 132.11 181.02C131.457 180.647 130.92 180.145 130.5 179.515C130.103 178.862 129.905 178.022 129.905 176.995C129.905 175.922 130.162 174.988 130.675 174.195C131.212 173.402 131.97 172.783 132.95 172.34C133.93 171.897 135.085 171.675 136.415 171.675C137.815 171.675 139.075 171.92 140.195 172.41C141.338 172.9 142.283 173.635 143.03 174.615L140.265 177.38C139.752 176.75 139.168 176.295 138.515 176.015C137.885 175.735 137.197 175.595 136.45 175.595C135.773 175.595 135.248 175.7 134.875 175.91C134.525 176.12 134.35 176.412 134.35 176.785C134.35 177.205 134.548 177.532 134.945 177.765C135.365 177.998 135.902 178.208 136.555 178.395C137.208 178.558 137.885 178.757 138.585 178.99C139.308 179.2 139.985 179.503 140.615 179.9C141.268 180.297 141.793 180.822 142.19 181.475C142.61 182.128 142.82 182.968 142.82 183.995C142.82 185.652 142.225 186.97 141.035 187.95C139.845 188.907 138.223 189.385 136.17 189.385ZM157.287 189V179.305C157.287 178.302 156.972 177.485 156.342 176.855C155.712 176.225 154.895 175.91 153.892 175.91C153.239 175.91 152.655 176.05 152.142 176.33C151.629 176.61 151.22 177.007 150.917 177.52C150.637 178.033 150.497 178.628 150.497 179.305L148.712 178.395C148.712 177.065 148.992 175.91 149.552 174.93C150.135 173.927 150.929 173.145 151.932 172.585C152.959 172.025 154.114 171.745 155.397 171.745C156.634 171.745 157.742 172.06 158.722 172.69C159.702 173.297 160.472 174.102 161.032 175.105C161.592 176.085 161.872 177.147 161.872 178.29V189H157.287ZM145.912 189V172.095H150.497V189H145.912ZM172.635 189.35C171.095 189.35 169.707 188.965 168.47 188.195C167.233 187.425 166.265 186.375 165.565 185.045C164.865 183.715 164.515 182.222 164.515 180.565C164.515 178.885 164.865 177.38 165.565 176.05C166.265 174.72 167.233 173.67 168.47 172.9C169.707 172.13 171.095 171.745 172.635 171.745C173.848 171.745 174.933 171.99 175.89 172.48C176.847 172.97 177.605 173.658 178.165 174.545C178.748 175.408 179.063 176.388 179.11 177.485V183.575C179.063 184.695 178.748 185.687 178.165 186.55C177.605 187.413 176.847 188.102 175.89 188.615C174.933 189.105 173.848 189.35 172.635 189.35ZM173.475 185.115C174.758 185.115 175.797 184.695 176.59 183.855C177.383 182.992 177.78 181.883 177.78 180.53C177.78 179.643 177.593 178.862 177.22 178.185C176.87 177.485 176.368 176.948 175.715 176.575C175.085 176.178 174.338 175.98 173.475 175.98C172.635 175.98 171.888 176.178 171.235 176.575C170.605 176.948 170.103 177.485 169.73 178.185C169.38 178.862 169.205 179.643 169.205 180.53C169.205 181.44 169.38 182.245 169.73 182.945C170.103 183.622 170.605 184.158 171.235 184.555C171.888 184.928 172.635 185.115 173.475 185.115ZM177.535 189V184.45L178.27 180.32L177.535 176.26V172.095H182.085V189H177.535ZM186.141 189V172.095H190.726V189H186.141ZM197.166 189V179.025C197.166 178.045 196.851 177.287 196.221 176.75C195.615 176.19 194.856 175.91 193.946 175.91C193.34 175.91 192.791 176.038 192.301 176.295C191.811 176.528 191.426 176.878 191.146 177.345C190.866 177.812 190.726 178.372 190.726 179.025L188.941 178.15C188.941 176.843 189.221 175.712 189.781 174.755C190.365 173.798 191.146 173.063 192.126 172.55C193.106 172.013 194.215 171.745 195.451 171.745C196.618 171.745 197.68 172.013 198.636 172.55C199.593 173.063 200.351 173.798 200.911 174.755C201.471 175.688 201.751 176.82 201.751 178.15V189H197.166ZM208.191 189V179.025C208.191 178.045 207.876 177.287 207.246 176.75C206.64 176.19 205.881 175.91 204.971 175.91C204.388 175.91 203.84 176.038 203.326 176.295C202.836 176.528 202.451 176.878 202.171 177.345C201.891 177.812 201.751 178.372 201.751 179.025L199.126 178.395C199.22 177.042 199.581 175.875 200.211 174.895C200.841 173.892 201.67 173.122 202.696 172.585C203.723 172.025 204.866 171.745 206.126 171.745C207.386 171.745 208.518 172.013 209.521 172.55C210.525 173.063 211.318 173.81 211.901 174.79C212.485 175.77 212.776 176.937 212.776 178.29V189H208.191ZM224.578 189.35C222.805 189.35 221.23 188.977 219.853 188.23C218.476 187.46 217.38 186.41 216.563 185.08C215.77 183.75 215.373 182.233 215.373 180.53C215.373 178.85 215.758 177.357 216.528 176.05C217.321 174.72 218.395 173.67 219.748 172.9C221.101 172.107 222.606 171.71 224.263 171.71C225.896 171.71 227.331 172.083 228.568 172.83C229.828 173.553 230.808 174.557 231.508 175.84C232.231 177.1 232.593 178.535 232.593 180.145C232.593 180.448 232.57 180.763 232.523 181.09C232.5 181.393 232.441 181.743 232.348 182.14L218.138 182.175V178.745L230.213 178.71L228.358 180.145C228.311 179.142 228.125 178.302 227.798 177.625C227.495 176.948 227.04 176.435 226.433 176.085C225.85 175.712 225.126 175.525 224.263 175.525C223.353 175.525 222.56 175.735 221.883 176.155C221.206 176.552 220.681 177.123 220.308 177.87C219.958 178.593 219.783 179.457 219.783 180.46C219.783 181.487 219.97 182.385 220.343 183.155C220.74 183.902 221.3 184.485 222.023 184.905C222.746 185.302 223.586 185.5 224.543 185.5C225.406 185.5 226.188 185.36 226.888 185.08C227.588 184.777 228.195 184.333 228.708 183.75L231.403 186.445C230.586 187.402 229.583 188.125 228.393 188.615C227.226 189.105 225.955 189.35 224.578 189.35ZM246.803 189V179.305C246.803 178.302 246.488 177.485 245.858 176.855C245.228 176.225 244.412 175.91 243.408 175.91C242.755 175.91 242.172 176.05 241.658 176.33C241.145 176.61 240.737 177.007 240.433 177.52C240.153 178.033 240.013 178.628 240.013 179.305L238.228 178.395C238.228 177.065 238.508 175.91 239.068 174.93C239.652 173.927 240.445 173.145 241.448 172.585C242.475 172.025 243.63 171.745 244.913 171.745C246.15 171.745 247.258 172.06 248.238 172.69C249.218 173.297 249.988 174.102 250.548 175.105C251.108 176.085 251.388 177.147 251.388 178.29V189H246.803ZM235.428 189V172.095H240.013V189H235.428Z" fill="#353535"/>
<rect y="212" width="265" height="60" rx="30" fill="#64A7E9"/>
<path d="M72.9743 246.246H67.6103L66.6383 249H64.4423L69.1223 236.49H71.4803L76.1423 249H73.9463L72.9743 246.246ZM72.3983 244.662L70.2923 238.722L68.1863 244.662H72.3983ZM79.7178 235.68V249H77.6658V235.68H79.7178ZM84.253 235.68V249H82.201V235.68H84.253ZM95.9521 243.564C95.9521 243.9 95.9281 244.194 95.8801 244.446H88.2481C88.2841 245.466 88.5661 246.222 89.0941 246.714C89.6221 247.206 90.2761 247.452 91.0561 247.452C91.7401 247.452 92.3161 247.278 92.7841 246.93C93.2641 246.582 93.5581 246.12 93.6661 245.544H95.8621C95.7301 246.24 95.4541 246.858 95.0341 247.398C94.6141 247.938 94.0681 248.364 93.3961 248.676C92.7241 248.976 91.9741 249.126 91.1461 249.126C90.1861 249.126 89.3341 248.922 88.5901 248.514C87.8581 248.106 87.2821 247.518 86.8621 246.75C86.4421 245.982 86.2321 245.076 86.2321 244.032C86.2321 243 86.4421 242.1 86.8621 241.332C87.2821 240.564 87.8581 239.976 88.5901 239.568C89.3341 239.16 90.1861 238.956 91.1461 238.956C92.1181 238.956 92.9641 239.16 93.6841 239.568C94.4161 239.964 94.9741 240.516 95.3581 241.224C95.7541 241.92 95.9521 242.7 95.9521 243.564ZM93.8821 243.51C93.9061 242.862 93.7921 242.322 93.5401 241.89C93.3001 241.446 92.9641 241.122 92.5321 240.918C92.1121 240.702 91.6501 240.594 91.1461 240.594C90.3421 240.594 89.6701 240.84 89.1301 241.332C88.5901 241.824 88.2961 242.55 88.2481 243.51H93.8821ZM101.191 238.956C102.355 238.956 103.285 239.256 103.981 239.856C104.689 240.444 105.121 241.236 105.277 242.232H103.333C103.249 241.692 103.015 241.26 102.631 240.936C102.259 240.6 101.761 240.432 101.137 240.432C100.621 240.432 100.219 240.558 99.9314 240.81C99.6554 241.05 99.5174 241.38 99.5174 241.8C99.5174 242.112 99.6194 242.364 99.8234 242.556C100.027 242.748 100.279 242.898 100.579 243.006C100.891 243.114 101.329 243.234 101.893 243.366C102.637 243.534 103.237 243.708 103.693 243.888C104.161 244.068 104.557 244.356 104.881 244.752C105.217 245.136 105.385 245.664 105.385 246.336C105.385 247.164 105.067 247.836 104.431 248.352C103.807 248.868 102.961 249.126 101.893 249.126C100.657 249.126 99.6554 248.838 98.8874 248.262C98.1314 247.686 97.6754 246.882 97.5194 245.85H99.5174C99.5774 246.39 99.8174 246.828 100.237 247.164C100.657 247.5 101.209 247.668 101.893 247.668C102.385 247.668 102.769 247.542 103.045 247.29C103.333 247.026 103.477 246.696 103.477 246.3C103.477 245.952 103.369 245.676 103.153 245.472C102.937 245.268 102.667 245.112 102.343 245.004C102.019 244.884 101.575 244.764 101.011 244.644C100.291 244.476 99.7034 244.308 99.2474 244.14C98.8034 243.972 98.4194 243.702 98.0954 243.33C97.7834 242.946 97.6274 242.43 97.6274 241.782C97.6274 240.942 97.9394 240.264 98.5634 239.748C99.1994 239.22 100.075 238.956 101.191 238.956ZM117.35 238.956C118.214 238.956 118.982 239.16 119.654 239.568C120.338 239.976 120.872 240.564 121.256 241.332C121.64 242.1 121.832 243 121.832 244.032C121.832 245.076 121.64 245.982 121.256 246.75C120.872 247.518 120.338 248.106 119.654 248.514C118.982 248.922 118.214 249.126 117.35 249.126C116.45 249.126 115.682 248.904 115.046 248.46C114.41 248.016 113.966 247.428 113.714 246.696V249H111.662V235.68H113.714V241.386C113.966 240.654 114.41 240.066 115.046 239.622C115.682 239.178 116.45 238.956 117.35 238.956ZM116.72 240.756C116.144 240.756 115.628 240.894 115.172 241.17C114.716 241.434 114.356 241.818 114.092 242.322C113.828 242.814 113.696 243.384 113.696 244.032C113.696 244.692 113.828 245.268 114.092 245.76C114.356 246.252 114.716 246.636 115.172 246.912C115.628 247.176 116.144 247.308 116.72 247.308C117.632 247.308 118.364 247.02 118.916 246.444C119.468 245.856 119.744 245.052 119.744 244.032C119.744 243.024 119.468 242.226 118.916 241.638C118.364 241.05 117.632 240.756 116.72 240.756ZM133.024 243.564C133.024 243.9 133 244.194 132.952 244.446H125.32C125.356 245.466 125.638 246.222 126.166 246.714C126.694 247.206 127.348 247.452 128.128 247.452C128.812 247.452 129.388 247.278 129.856 246.93C130.336 246.582 130.63 246.12 130.738 245.544H132.934C132.802 246.24 132.526 246.858 132.106 247.398C131.686 247.938 131.14 248.364 130.468 248.676C129.796 248.976 129.046 249.126 128.218 249.126C127.258 249.126 126.406 248.922 125.662 248.514C124.93 248.106 124.354 247.518 123.934 246.75C123.514 245.982 123.304 245.076 123.304 244.032C123.304 243 123.514 242.1 123.934 241.332C124.354 240.564 124.93 239.976 125.662 239.568C126.406 239.16 127.258 238.956 128.218 238.956C129.19 238.956 130.036 239.16 130.756 239.568C131.488 239.964 132.046 240.516 132.43 241.224C132.826 241.92 133.024 242.7 133.024 243.564ZM130.954 243.51C130.978 242.862 130.864 242.322 130.612 241.89C130.372 241.446 130.036 241.122 129.604 240.918C129.184 240.702 128.722 240.594 128.218 240.594C127.414 240.594 126.742 240.84 126.202 241.332C125.662 241.824 125.368 242.55 125.32 243.51H130.954ZM140.622 249L137.058 244.59V249H135.006V235.68H137.058V243.312L140.586 239.082H143.052L138.732 244.014L143.16 249H140.622ZM144.21 236.202C144.21 235.854 144.33 235.566 144.57 235.338C144.81 235.11 145.128 234.996 145.524 234.996C145.92 234.996 146.238 235.11 146.478 235.338C146.73 235.566 146.856 235.854 146.856 236.202C146.856 236.55 146.73 236.832 146.478 237.048C146.238 237.264 145.92 237.372 145.524 237.372C145.128 237.372 144.81 237.264 144.57 237.048C144.33 236.832 144.21 236.55 144.21 236.202ZM146.55 239.082V249H144.498V239.082H146.55ZM150.149 237.372C149.753 237.372 149.429 237.264 149.177 237.048C148.937 236.832 148.817 236.55 148.817 236.202C148.817 235.854 148.937 235.566 149.177 235.338C149.429 235.11 149.753 234.996 150.149 234.996C150.545 234.996 150.863 235.11 151.103 235.338C151.343 235.566 151.463 235.854 151.463 236.202C151.463 236.55 151.343 236.832 151.103 237.048C150.863 237.264 150.545 237.372 150.149 237.372ZM147.269 251.916H147.971C148.367 251.916 148.655 251.826 148.835 251.646C149.027 251.478 149.123 251.184 149.123 250.764V239.082H151.193V250.782C151.193 252.738 150.209 253.716 148.241 253.716H147.269V251.916ZM159.254 249L155.69 244.59V249H153.638V235.68H155.69V243.312L159.218 239.082H161.684L157.364 244.014L161.792 249H159.254ZM172.347 243.564C172.347 243.9 172.323 244.194 172.275 244.446H164.643C164.679 245.466 164.961 246.222 165.489 246.714C166.017 247.206 166.671 247.452 167.451 247.452C168.135 247.452 168.711 247.278 169.179 246.93C169.659 246.582 169.953 246.12 170.061 245.544H172.257C172.125 246.24 171.849 246.858 171.429 247.398C171.009 247.938 170.463 248.364 169.791 248.676C169.119 248.976 168.369 249.126 167.541 249.126C166.581 249.126 165.729 248.922 164.985 248.514C164.253 248.106 163.677 247.518 163.257 246.75C162.837 245.982 162.627 245.076 162.627 244.032C162.627 243 162.837 242.1 163.257 241.332C163.677 240.564 164.253 239.976 164.985 239.568C165.729 239.16 166.581 238.956 167.541 238.956C168.513 238.956 169.359 239.16 170.079 239.568C170.811 239.964 171.369 240.516 171.753 241.224C172.149 241.92 172.347 242.7 172.347 243.564ZM170.277 243.51C170.301 242.862 170.187 242.322 169.935 241.89C169.695 241.446 169.359 241.122 168.927 240.918C168.507 240.702 168.045 240.594 167.541 240.594C166.737 240.594 166.065 240.84 165.525 241.332C164.985 241.824 164.691 242.55 164.643 243.51H170.277ZM179.872 238.92C181.024 238.92 181.948 239.292 182.644 240.036C183.34 240.78 183.688 241.842 183.688 243.222V249H181.636V243.438C181.636 242.55 181.408 241.866 180.952 241.386C180.496 240.894 179.872 240.648 179.08 240.648C178.264 240.648 177.61 240.912 177.118 241.44C176.626 241.956 176.38 242.718 176.38 243.726V249H174.328V239.082H176.38V241.26C176.644 240.516 177.088 239.94 177.712 239.532C178.336 239.124 179.056 238.92 179.872 238.92Z" fill="#353535"/>
<path d="M197 243H209H197ZM209 243L203.857 238L209 243ZM209 243L203.857 248L209 243Z" fill="white"/>
<path d="M197 243H209M209 243L203.857 238M209 243L203.857 248" stroke="#353535" stroke-width="2.5" stroke-linecap="round" stroke-linejoin="round"/>
</svg>
