<svg width="265" height="272" viewBox="0 0 265 272" fill="none" xmlns="http://www.w3.org/2000/svg">
<path d="M217.389 40.293C208.359 27.4557 190.748 21.285 177.096 26.6339C168.065 3.95765 135.729 -4.2637 111.485 2.06611C83.7254 9.31392 71.3552 36.8023 78.5634 61.2035C70.9527 59.5563 62.6748 60.7668 55.7089 64.7682C41.9747 72.6638 37.409 89.6988 41.3746 104.328C45.5862 119.863 58.8397 131.89 74.9705 133.848C88.4811 135.488 100.725 130.657 111.511 123.358C123.046 141.17 151.193 142.843 171.408 136.935C184.308 133.167 195.948 125.56 203.413 114.326C207.412 108.311 210.815 100.134 210.617 92.5528C228.679 84.672 228.295 55.788 217.393 40.293H217.389Z" fill="white"/>
<path d="M165.978 61.9981C164.037 55.1404 159.822 49.1412 154.022 44.9794C153.259 43.6435 152.135 42.5482 150.778 41.8179C154.704 36.4848 154.793 35.2882 154.837 34.7563C154.866 34.2353 154.784 33.714 154.595 33.2273C154.406 32.7407 154.114 32.3 153.741 31.9346C152.807 30.9744 150.867 29.8812 146.985 30.1028C143.341 30.3096 139.815 33.3233 137.77 35.4211C136.376 34.3942 134.689 33.8401 132.956 33.8401C131.222 33.8401 129.535 34.3942 128.141 35.4211C126.156 33.2642 122.63 30.2357 118.97 30.0289C115.089 29.8073 113.148 30.9005 112.259 31.9346C111.869 32.3154 111.567 32.778 111.378 33.289C111.188 33.8 111.115 34.3466 111.163 34.8893C111.163 35.4063 111.296 36.6177 115.267 41.9213C113.871 42.6567 112.73 43.7945 111.993 45.1862C111.905 45.2166 111.82 45.2563 111.741 45.3044C106.093 49.4259 101.973 55.2959 100.022 61.9981C96.0815 62.5152 93 66.3562 93 71.0246C93 75.9441 96.437 79.8885 100.689 80.1101C105.222 92.7117 117.993 101.827 133 101.827C148.007 101.827 160.778 92.7117 165.311 80.1101C169.563 79.9624 173 75.9441 173 71.0246C173 66.371 169.919 62.5152 165.978 61.9981ZM147.193 32.9835C150.304 32.8063 151.4 33.6631 151.637 33.929C151.719 33.9983 151.785 34.0842 151.831 34.181C151.877 34.2778 151.902 34.3833 151.904 34.4904C150.968 36.5572 149.752 38.4859 148.289 40.2224C148.063 40.5376 147.905 40.8955 147.823 41.2741C147.742 41.6527 147.739 42.0439 147.815 42.4236C147.891 42.7975 148.043 43.1518 148.262 43.4645C148.481 43.7771 148.763 44.0413 149.089 44.2407C150.852 45.3192 151.489 46.2499 151.385 46.5897C150.698 47.8598 149.595 48.856 148.259 49.4114C147.099 50.0813 145.724 50.2772 144.422 49.958C142.672 49.031 141.153 47.7233 139.978 46.1317C140.184 45.8048 140.367 45.4643 140.526 45.1124C141.044 45.3192 141.696 45.5851 142.481 45.9397C142.677 46.0284 142.889 46.0738 143.104 46.0726C143.437 46.0674 143.759 45.9502 144.017 45.7401C144.275 45.5299 144.455 45.239 144.527 44.9143C144.599 44.5897 144.559 44.2504 144.414 43.9512C144.268 43.6521 144.026 43.4105 143.726 43.2657C142.674 42.7782 141.815 42.4384 141.178 42.202C141.178 42.0986 141.178 41.9952 141.178 41.8918C141.2 41.5869 141.2 41.2807 141.178 40.9758C142.366 40.5049 143.596 40.1488 144.852 39.9122C145.046 39.8782 145.232 39.8064 145.399 39.7008C145.566 39.5952 145.71 39.4579 145.823 39.2967C145.937 39.1355 146.018 38.9536 146.061 38.7613C146.104 38.5691 146.108 38.3703 146.074 38.1763C146.04 37.9823 145.968 37.7969 145.862 37.6307C145.756 37.4644 145.618 37.3206 145.457 37.2074C145.295 37.0942 145.113 37.0139 144.92 36.9711C144.727 36.9282 144.528 36.9236 144.333 36.9575C142.93 37.1953 141.555 37.5765 140.23 38.0951C140.111 37.8735 139.978 37.6519 139.844 37.445C142.481 34.7859 145.193 33.0869 147.193 32.9835ZM133 36.7212C134.026 36.7212 135.028 37.0244 135.881 37.5926C136.733 38.1607 137.398 38.9683 137.79 39.9131C138.183 40.8579 138.286 41.8975 138.086 42.9005C137.885 43.9035 137.392 44.8249 136.666 45.548C135.941 46.2711 135.017 46.7636 134.012 46.9631C133.006 47.1626 131.963 47.0602 131.016 46.6688C130.068 46.2775 129.258 45.6147 128.689 44.7644C128.119 43.9141 127.815 42.9144 127.815 41.8918C127.815 40.5205 128.361 39.2053 129.334 38.2356C130.306 37.2659 131.625 36.7212 133 36.7212ZM116.896 44.2407C117.227 44.0412 117.512 43.7753 117.734 43.46C117.956 43.1446 118.11 42.7866 118.185 42.4089C118.259 42.0305 118.253 41.6411 118.169 41.2649C118.085 40.8887 117.924 40.5339 117.696 40.2224C116.246 38.4879 115.03 36.5706 114.081 34.52C114.08 34.408 114.103 34.2972 114.149 34.1951C114.195 34.093 114.263 34.0022 114.348 33.929C114.615 33.6631 115.711 32.7915 118.793 32.9835C120.793 33.0869 123.504 34.7859 126.2 37.5041C126.067 37.7257 125.933 37.9326 125.815 38.1542C124.489 37.6371 123.114 37.256 121.711 37.0166C121.519 36.9803 121.322 36.9821 121.131 37.0218C120.94 37.0616 120.759 37.1386 120.598 37.2484C120.437 37.3583 120.299 37.4987 120.193 37.6618C120.086 37.8248 120.013 38.0072 119.978 38.1985C119.908 38.5802 119.992 38.9738 120.211 39.2945C120.43 39.6151 120.767 39.837 121.148 39.9122C122.44 40.1393 123.706 40.4956 124.926 40.9758C124.904 41.2808 124.904 41.5869 124.926 41.8918C124.926 41.9952 124.926 42.0986 124.926 42.202C124.289 42.4384 123.444 42.7782 122.378 43.2657C122.078 43.4105 121.835 43.6521 121.69 43.9512C121.545 44.2504 121.505 44.5897 121.577 44.9143C121.649 45.239 121.828 45.5299 122.087 45.7401C122.345 45.9502 122.667 46.0674 123 46.0726C123.214 46.0711 123.426 46.0259 123.622 45.9397C124.393 45.5851 125.104 45.3044 125.578 45.1124C125.737 45.4643 125.92 45.8048 126.126 46.1317C124.951 47.7233 123.432 49.031 121.681 49.958C120.38 50.2772 119.005 50.0813 117.844 49.4114C116.509 48.856 115.405 47.8598 114.719 46.5897C114.496 46.2499 115.133 45.3192 116.896 44.2407ZM95.963 71.0246C95.9059 69.8428 96.1913 68.6696 96.785 67.6453C97.3787 66.621 98.2557 65.7888 99.3111 65.2482C98.6763 69.1439 98.8274 73.1267 99.7556 76.9634C98.5777 76.4966 97.5772 75.6716 96.8964 74.6055C96.2155 73.5393 95.8889 72.2864 95.963 71.0246ZM133 98.8721C115.844 98.8721 101.889 85.9308 101.889 70.02C101.915 65.8931 102.859 61.8233 104.652 58.1038C106.445 54.3843 109.043 51.1078 112.259 48.5102C113.292 50.056 114.733 51.2879 116.422 52.0705C117.678 52.7051 119.059 53.0532 120.467 53.0899C121.204 53.1021 121.938 52.9769 122.63 52.7206C124.783 51.6973 126.662 50.1782 128.111 48.2886C129.526 49.3716 131.26 49.9586 133.044 49.9586C134.828 49.9586 136.562 49.3716 137.978 48.2886C139.43 50.175 141.308 51.6934 143.459 52.7206C144.137 52.9715 144.855 53.0967 145.578 53.0899C146.985 53.0532 148.367 52.7051 149.622 52.0705C151.295 51.2811 152.72 50.0498 153.741 48.5102C156.959 51.1057 159.559 54.3818 161.352 58.1018C163.146 61.8217 164.088 65.8925 164.111 70.02C164.111 85.9308 150.156 98.8721 133 98.8721ZM166.244 76.9634C167.173 73.1267 167.324 69.1439 166.689 65.2482C167.743 65.7902 168.619 66.6227 169.213 67.6467C169.806 68.6707 170.092 69.8431 170.037 71.0246C170.113 72.2868 169.788 73.5407 169.107 74.6073C168.425 75.6739 167.424 76.4985 166.244 76.9634Z" fill="#FF7D97"/>
<path d="M120.096 62.5151C118.594 62.6103 117.191 63.2918 116.19 64.4117C115.189 65.5317 114.671 67 114.748 68.4983C114.748 68.8901 114.904 69.2659 115.182 69.5429C115.459 69.82 115.836 69.9756 116.229 69.9756C116.622 69.9756 116.999 69.82 117.277 69.5429C117.555 69.2659 117.711 68.8901 117.711 68.4983C117.635 67.7832 117.842 67.0668 118.287 66.5013C118.732 65.9358 119.381 65.5658 120.096 65.4698C120.811 65.5658 121.459 65.9358 121.905 66.5013C122.35 67.0668 122.557 67.7832 122.481 68.4983C122.481 68.8901 122.637 69.2659 122.915 69.5429C123.193 69.82 123.57 69.9756 123.963 69.9756C124.355 69.9756 124.732 69.82 125.01 69.5429C125.288 69.2659 125.444 68.8901 125.444 68.4983C125.521 67 125.003 65.5317 124.002 64.4117C123.001 63.2918 121.597 62.6103 120.096 62.5151Z" fill="#FF7D97"/>
<path d="M144.613 62.5151C143.112 62.6103 141.709 63.2918 140.708 64.4117C139.706 65.5317 139.188 67 139.265 68.4983C139.265 68.8901 139.421 69.2659 139.699 69.5429C139.977 69.82 140.354 69.9756 140.747 69.9756C141.14 69.9756 141.517 69.82 141.794 69.5429C142.072 69.2659 142.228 68.8901 142.228 68.4983C142.152 67.7832 142.359 67.0668 142.805 66.5013C143.25 65.9358 143.899 65.5658 144.613 65.4698C145.328 65.5658 145.977 65.9358 146.422 66.5013C146.868 67.0668 147.075 67.7832 146.999 68.4983C146.999 68.8901 147.155 69.2659 147.433 69.5429C147.71 69.82 148.087 69.9756 148.48 69.9756C148.873 69.9756 149.25 69.82 149.528 69.5429C149.806 69.2659 149.962 68.8901 149.962 68.4983C150.039 67 149.521 65.5317 148.519 64.4117C147.518 63.2918 146.115 62.6103 144.613 62.5151Z" fill="#FF7D97"/>
<path d="M139.445 79.209C139.052 79.209 138.675 79.3646 138.397 79.6417C138.119 79.9187 137.963 80.2945 137.963 80.6863C137.963 81.9989 137.44 83.2577 136.509 84.1858C135.579 85.1139 134.316 85.6353 133 85.6353C131.684 85.6353 130.422 85.1139 129.491 84.1858C128.56 83.2577 128.037 81.9989 128.037 80.6863C128.037 80.2945 127.881 79.9187 127.603 79.6417C127.325 79.3646 126.949 79.209 126.556 79.209C126.163 79.209 125.786 79.3646 125.508 79.6417C125.23 79.9187 125.074 80.2945 125.074 80.6863C125.074 82.7825 125.909 84.7928 127.396 86.275C128.882 87.7573 130.898 88.59 133 88.59C135.102 88.59 137.118 87.7573 138.605 86.275C140.091 84.7928 140.926 82.7825 140.926 80.6863C140.926 80.2945 140.77 79.9187 140.492 79.6417C140.214 79.3646 139.838 79.209 139.445 79.209Z" fill="#FF7D97"/>
<path d="M22.2441 189V164.395H25.6041L35.5791 180.355H33.6541L43.5941 164.395H46.9541V189H42.2291V172.55L43.1391 172.83L36.2091 183.96H32.9891L26.0591 172.83L27.0041 172.55V189H22.2441ZM59.5754 189.35C57.8021 189.35 56.2271 188.977 54.8504 188.23C53.4738 187.46 52.3771 186.41 51.5604 185.08C50.7671 183.75 50.3704 182.233 50.3704 180.53C50.3704 178.85 50.7554 177.357 51.5254 176.05C52.3188 174.72 53.3921 173.67 54.7454 172.9C56.0988 172.107 57.6038 171.71 59.2604 171.71C60.8938 171.71 62.3288 172.083 63.5655 172.83C64.8254 173.553 65.8054 174.557 66.5054 175.84C67.2288 177.1 67.5904 178.535 67.5904 180.145C67.5904 180.448 67.5671 180.763 67.5205 181.09C67.4971 181.393 67.4388 181.743 67.3455 182.14L53.1354 182.175V178.745L65.2104 178.71L63.3554 180.145C63.3088 179.142 63.1221 178.302 62.7954 177.625C62.4921 176.948 62.0371 176.435 61.4304 176.085C60.8471 175.712 60.1238 175.525 59.2604 175.525C58.3504 175.525 57.5571 175.735 56.8804 176.155C56.2038 176.552 55.6788 177.123 55.3054 177.87C54.9554 178.593 54.7804 179.457 54.7804 180.46C54.7804 181.487 54.9671 182.385 55.3404 183.155C55.7371 183.902 56.2971 184.485 57.0204 184.905C57.7438 185.302 58.5838 185.5 59.5404 185.5C60.4038 185.5 61.1854 185.36 61.8854 185.08C62.5854 184.777 63.1921 184.333 63.7054 183.75L66.4005 186.445C65.5838 187.402 64.5805 188.125 63.3905 188.615C62.2238 189.105 60.9521 189.35 59.5754 189.35ZM70.426 189V172.095H75.046V189H70.426ZM72.736 169.365C71.9893 169.365 71.371 169.12 70.881 168.63C70.391 168.117 70.146 167.487 70.146 166.74C70.146 166.017 70.391 165.398 70.881 164.885C71.371 164.372 71.9893 164.115 72.736 164.115C73.506 164.115 74.1243 164.372 74.591 164.885C75.081 165.398 75.326 166.017 75.326 166.74C75.326 167.487 75.081 168.117 74.591 168.63C74.1243 169.12 73.506 169.365 72.736 169.365ZM84.9176 189.385C83.961 189.385 83.016 189.257 82.0826 189C81.1726 188.743 80.3326 188.393 79.5626 187.95C78.7926 187.483 78.1276 186.923 77.5676 186.27L80.2976 183.505C80.881 184.158 81.5576 184.648 82.3276 184.975C83.0976 185.302 83.9493 185.465 84.8826 185.465C85.6293 185.465 86.1893 185.36 86.5626 185.15C86.9593 184.94 87.1576 184.625 87.1576 184.205C87.1576 183.738 86.9476 183.377 86.5276 183.12C86.131 182.863 85.606 182.653 84.9526 182.49C84.2993 182.303 83.611 182.105 82.8876 181.895C82.1876 181.662 81.511 181.37 80.8576 181.02C80.2043 180.647 79.6676 180.145 79.2476 179.515C78.851 178.862 78.6526 178.022 78.6526 176.995C78.6526 175.922 78.9093 174.988 79.4226 174.195C79.9593 173.402 80.7176 172.783 81.6976 172.34C82.6776 171.897 83.8326 171.675 85.1626 171.675C86.5626 171.675 87.8226 171.92 88.9426 172.41C90.086 172.9 91.031 173.635 91.7776 174.615L89.0126 177.38C88.4993 176.75 87.916 176.295 87.2626 176.015C86.6326 175.735 85.9443 175.595 85.1976 175.595C84.521 175.595 83.996 175.7 83.6226 175.91C83.2726 176.12 83.0976 176.412 83.0976 176.785C83.0976 177.205 83.296 177.532 83.6926 177.765C84.1126 177.998 84.6493 178.208 85.3026 178.395C85.956 178.558 86.6326 178.757 87.3326 178.99C88.056 179.2 88.7326 179.503 89.3626 179.9C90.016 180.297 90.541 180.822 90.9376 181.475C91.3576 182.128 91.5676 182.968 91.5676 183.995C91.5676 185.652 90.9726 186.97 89.7826 187.95C88.5926 188.907 86.971 189.385 84.9176 189.385ZM93.2944 196.49C92.0811 196.49 91.0777 196.292 90.2844 195.895C89.4677 195.498 88.7327 194.938 88.0794 194.215L90.9844 191.31C91.2644 191.66 91.5677 191.905 91.8944 192.045C92.1977 192.208 92.5594 192.29 92.9794 192.29C93.5627 192.29 94.0527 192.115 94.4494 191.765C94.8461 191.415 95.0444 190.902 95.0444 190.225V172.095H99.6294V190.155C99.6294 191.485 99.3377 192.617 98.7544 193.55C98.1944 194.507 97.4361 195.23 96.4794 195.72C95.5461 196.233 94.4844 196.49 93.2944 196.49ZM97.3894 169.365C96.6427 169.365 96.0244 169.12 95.5344 168.63C95.0444 168.117 94.7994 167.487 94.7994 166.74C94.7994 166.017 95.0444 165.398 95.5344 164.885C96.0244 164.372 96.6427 164.115 97.3894 164.115C98.1594 164.115 98.7777 164.372 99.2444 164.885C99.7344 165.398 99.9794 166.017 99.9794 166.74C99.9794 167.487 99.7344 168.117 99.2444 168.63C98.7777 169.12 98.1594 169.365 97.3894 169.365ZM111.734 189.35C109.96 189.35 108.385 188.977 107.009 188.23C105.632 187.46 104.535 186.41 103.719 185.08C102.925 183.75 102.529 182.233 102.529 180.53C102.529 178.85 102.914 177.357 103.684 176.05C104.477 174.72 105.55 173.67 106.904 172.9C108.257 172.107 109.762 171.71 111.419 171.71C113.052 171.71 114.487 172.083 115.724 172.83C116.984 173.553 117.964 174.557 118.664 175.84C119.387 177.1 119.749 178.535 119.749 180.145C119.749 180.448 119.725 180.763 119.679 181.09C119.655 181.393 119.597 181.743 119.504 182.14L105.294 182.175V178.745L117.369 178.71L115.514 180.145C115.467 179.142 115.28 178.302 114.954 177.625C114.65 176.948 114.195 176.435 113.589 176.085C113.005 175.712 112.282 175.525 111.419 175.525C110.509 175.525 109.715 175.735 109.039 176.155C108.362 176.552 107.837 177.123 107.464 177.87C107.114 178.593 106.939 179.457 106.939 180.46C106.939 181.487 107.125 182.385 107.499 183.155C107.895 183.902 108.455 184.485 109.179 184.905C109.902 185.302 110.742 185.5 111.699 185.5C112.562 185.5 113.344 185.36 114.044 185.08C114.744 184.777 115.35 184.333 115.864 183.75L118.559 186.445C117.742 187.402 116.739 188.125 115.549 188.615C114.382 189.105 113.11 189.35 111.734 189.35ZM128.394 189.385C127.438 189.385 126.493 189.257 125.559 189C124.649 188.743 123.809 188.393 123.039 187.95C122.269 187.483 121.604 186.923 121.044 186.27L123.774 183.505C124.358 184.158 125.034 184.648 125.804 184.975C126.574 185.302 127.426 185.465 128.359 185.465C129.106 185.465 129.666 185.36 130.039 185.15C130.436 184.94 130.634 184.625 130.634 184.205C130.634 183.738 130.424 183.377 130.004 183.12C129.608 182.863 129.083 182.653 128.429 182.49C127.776 182.303 127.088 182.105 126.364 181.895C125.664 181.662 124.988 181.37 124.334 181.02C123.681 180.647 123.144 180.145 122.724 179.515C122.328 178.862 122.129 178.022 122.129 176.995C122.129 175.922 122.386 174.988 122.899 174.195C123.436 173.402 124.194 172.783 125.174 172.34C126.154 171.897 127.309 171.675 128.639 171.675C130.039 171.675 131.299 171.92 132.419 172.41C133.563 172.9 134.508 173.635 135.254 174.615L132.489 177.38C131.976 176.75 131.393 176.295 130.739 176.015C130.109 175.735 129.421 175.595 128.674 175.595C127.998 175.595 127.473 175.7 127.099 175.91C126.749 176.12 126.574 176.412 126.574 176.785C126.574 177.205 126.773 177.532 127.169 177.765C127.589 177.998 128.126 178.208 128.779 178.395C129.433 178.558 130.109 178.757 130.809 178.99C131.533 179.2 132.209 179.503 132.839 179.9C133.493 180.297 134.018 180.822 134.414 181.475C134.834 182.128 135.044 182.968 135.044 183.995C135.044 185.652 134.449 186.97 133.259 187.95C132.069 188.907 130.448 189.385 128.394 189.385ZM149.511 189V179.305C149.511 178.302 149.196 177.485 148.566 176.855C147.936 176.225 147.119 175.91 146.116 175.91C145.463 175.91 144.879 176.05 144.366 176.33C143.853 176.61 143.444 177.007 143.141 177.52C142.861 178.033 142.721 178.628 142.721 179.305L140.936 178.395C140.936 177.065 141.216 175.91 141.776 174.93C142.359 173.927 143.153 173.145 144.156 172.585C145.183 172.025 146.338 171.745 147.621 171.745C148.858 171.745 149.966 172.06 150.946 172.69C151.926 173.297 152.696 174.102 153.256 175.105C153.816 176.085 154.096 177.147 154.096 178.29V189H149.511ZM138.136 189V172.095H142.721V189H138.136ZM164.859 189.35C163.319 189.35 161.931 188.965 160.694 188.195C159.458 187.425 158.489 186.375 157.789 185.045C157.089 183.715 156.739 182.222 156.739 180.565C156.739 178.885 157.089 177.38 157.789 176.05C158.489 174.72 159.458 173.67 160.694 172.9C161.931 172.13 163.319 171.745 164.859 171.745C166.073 171.745 167.158 171.99 168.114 172.48C169.071 172.97 169.829 173.658 170.389 174.545C170.973 175.408 171.288 176.388 171.334 177.485V183.575C171.288 184.695 170.973 185.687 170.389 186.55C169.829 187.413 169.071 188.102 168.114 188.615C167.158 189.105 166.073 189.35 164.859 189.35ZM165.699 185.115C166.983 185.115 168.021 184.695 168.814 183.855C169.608 182.992 170.004 181.883 170.004 180.53C170.004 179.643 169.818 178.862 169.444 178.185C169.094 177.485 168.593 176.948 167.939 176.575C167.309 176.178 166.563 175.98 165.699 175.98C164.859 175.98 164.113 176.178 163.459 176.575C162.829 176.948 162.328 177.485 161.954 178.185C161.604 178.862 161.429 179.643 161.429 180.53C161.429 181.44 161.604 182.245 161.954 182.945C162.328 183.622 162.829 184.158 163.459 184.555C164.113 184.928 164.859 185.115 165.699 185.115ZM169.759 189V184.45L170.494 180.32L169.759 176.26V172.095H174.309V189H169.759ZM178.365 189V172.095H182.95V189H178.365ZM189.39 189V179.025C189.39 178.045 189.075 177.287 188.445 176.75C187.839 176.19 187.08 175.91 186.17 175.91C185.564 175.91 185.015 176.038 184.525 176.295C184.035 176.528 183.65 176.878 183.37 177.345C183.09 177.812 182.95 178.372 182.95 179.025L181.165 178.15C181.165 176.843 181.445 175.712 182.005 174.755C182.589 173.798 183.37 173.063 184.35 172.55C185.33 172.013 186.439 171.745 187.675 171.745C188.842 171.745 189.904 172.013 190.86 172.55C191.817 173.063 192.575 173.798 193.135 174.755C193.695 175.688 193.975 176.82 193.975 178.15V189H189.39ZM200.415 189V179.025C200.415 178.045 200.1 177.287 199.47 176.75C198.864 176.19 198.105 175.91 197.195 175.91C196.612 175.91 196.064 176.038 195.55 176.295C195.06 176.528 194.675 176.878 194.395 177.345C194.115 177.812 193.975 178.372 193.975 179.025L191.35 178.395C191.444 177.042 191.805 175.875 192.435 174.895C193.065 173.892 193.894 173.122 194.92 172.585C195.947 172.025 197.09 171.745 198.35 171.745C199.61 171.745 200.742 172.013 201.745 172.55C202.749 173.063 203.542 173.81 204.125 174.79C204.709 175.77 205 176.937 205 178.29V189H200.415ZM216.802 189.35C215.029 189.35 213.454 188.977 212.077 188.23C210.7 187.46 209.604 186.41 208.787 185.08C207.994 183.75 207.597 182.233 207.597 180.53C207.597 178.85 207.982 177.357 208.752 176.05C209.545 174.72 210.619 173.67 211.972 172.9C213.325 172.107 214.83 171.71 216.487 171.71C218.12 171.71 219.555 172.083 220.792 172.83C222.052 173.553 223.032 174.557 223.732 175.84C224.455 177.1 224.817 178.535 224.817 180.145C224.817 180.448 224.794 180.763 224.747 181.09C224.724 181.393 224.665 181.743 224.572 182.14L210.362 182.175V178.745L222.437 178.71L220.582 180.145C220.535 179.142 220.349 178.302 220.022 177.625C219.719 176.948 219.264 176.435 218.657 176.085C218.074 175.712 217.35 175.525 216.487 175.525C215.577 175.525 214.784 175.735 214.107 176.155C213.43 176.552 212.905 177.123 212.532 177.87C212.182 178.593 212.007 179.457 212.007 180.46C212.007 181.487 212.194 182.385 212.567 183.155C212.964 183.902 213.524 184.485 214.247 184.905C214.97 185.302 215.81 185.5 216.767 185.5C217.63 185.5 218.412 185.36 219.112 185.08C219.812 184.777 220.419 184.333 220.932 183.75L223.627 186.445C222.81 187.402 221.807 188.125 220.617 188.615C219.45 189.105 218.179 189.35 216.802 189.35ZM239.028 189V179.305C239.028 178.302 238.713 177.485 238.083 176.855C237.453 176.225 236.636 175.91 235.633 175.91C234.979 175.91 234.396 176.05 233.883 176.33C233.369 176.61 232.961 177.007 232.658 177.52C232.378 178.033 232.238 178.628 232.238 179.305L230.453 178.395C230.453 177.065 230.733 175.91 231.293 174.93C231.876 173.927 232.669 173.145 233.673 172.585C234.699 172.025 235.854 171.745 237.138 171.745C238.374 171.745 239.483 172.06 240.463 172.69C241.443 173.297 242.213 174.102 242.773 175.105C243.333 176.085 243.613 177.147 243.613 178.29V189H239.028ZM227.653 189V172.095H232.238V189H227.653Z" fill="#353535"/>
<rect y="212" width="265" height="60" rx="30" fill="#FF7D97"/>
<path d="M72.9743 246.246H67.6103L66.6383 249H64.4423L69.1223 236.49H71.4803L76.1423 249H73.9463L72.9743 246.246ZM72.3983 244.662L70.2923 238.722L68.1863 244.662H72.3983ZM79.7178 235.68V249H77.6658V235.68H79.7178ZM84.253 235.68V249H82.201V235.68H84.253ZM95.9521 243.564C95.9521 243.9 95.9281 244.194 95.8801 244.446H88.2481C88.2841 245.466 88.5661 246.222 89.0941 246.714C89.6221 247.206 90.2761 247.452 91.0561 247.452C91.7401 247.452 92.3161 247.278 92.7841 246.93C93.2641 246.582 93.5581 246.12 93.6661 245.544H95.8621C95.7301 246.24 95.4541 246.858 95.0341 247.398C94.6141 247.938 94.0681 248.364 93.3961 248.676C92.7241 248.976 91.9741 249.126 91.1461 249.126C90.1861 249.126 89.3341 248.922 88.5901 248.514C87.8581 248.106 87.2821 247.518 86.8621 246.75C86.4421 245.982 86.2321 245.076 86.2321 244.032C86.2321 243 86.4421 242.1 86.8621 241.332C87.2821 240.564 87.8581 239.976 88.5901 239.568C89.3341 239.16 90.1861 238.956 91.1461 238.956C92.1181 238.956 92.9641 239.16 93.6841 239.568C94.4161 239.964 94.9741 240.516 95.3581 241.224C95.7541 241.92 95.9521 242.7 95.9521 243.564ZM93.8821 243.51C93.9061 242.862 93.7921 242.322 93.5401 241.89C93.3001 241.446 92.9641 241.122 92.5321 240.918C92.1121 240.702 91.6501 240.594 91.1461 240.594C90.3421 240.594 89.6701 240.84 89.1301 241.332C88.5901 241.824 88.2961 242.55 88.2481 243.51H93.8821ZM101.191 238.956C102.355 238.956 103.285 239.256 103.981 239.856C104.689 240.444 105.121 241.236 105.277 242.232H103.333C103.249 241.692 103.015 241.26 102.631 240.936C102.259 240.6 101.761 240.432 101.137 240.432C100.621 240.432 100.219 240.558 99.9314 240.81C99.6554 241.05 99.5174 241.38 99.5174 241.8C99.5174 242.112 99.6194 242.364 99.8234 242.556C100.027 242.748 100.279 242.898 100.579 243.006C100.891 243.114 101.329 243.234 101.893 243.366C102.637 243.534 103.237 243.708 103.693 243.888C104.161 244.068 104.557 244.356 104.881 244.752C105.217 245.136 105.385 245.664 105.385 246.336C105.385 247.164 105.067 247.836 104.431 248.352C103.807 248.868 102.961 249.126 101.893 249.126C100.657 249.126 99.6554 248.838 98.8874 248.262C98.1314 247.686 97.6754 246.882 97.5194 245.85H99.5174C99.5774 246.39 99.8174 246.828 100.237 247.164C100.657 247.5 101.209 247.668 101.893 247.668C102.385 247.668 102.769 247.542 103.045 247.29C103.333 247.026 103.477 246.696 103.477 246.3C103.477 245.952 103.369 245.676 103.153 245.472C102.937 245.268 102.667 245.112 102.343 245.004C102.019 244.884 101.575 244.764 101.011 244.644C100.291 244.476 99.7034 244.308 99.2474 244.14C98.8034 243.972 98.4194 243.702 98.0954 243.33C97.7834 242.946 97.6274 242.43 97.6274 241.782C97.6274 240.942 97.9394 240.264 98.5634 239.748C99.1994 239.22 100.075 238.956 101.191 238.956ZM117.35 238.956C118.214 238.956 118.982 239.16 119.654 239.568C120.338 239.976 120.872 240.564 121.256 241.332C121.64 242.1 121.832 243 121.832 244.032C121.832 245.076 121.64 245.982 121.256 246.75C120.872 247.518 120.338 248.106 119.654 248.514C118.982 248.922 118.214 249.126 117.35 249.126C116.45 249.126 115.682 248.904 115.046 248.46C114.41 248.016 113.966 247.428 113.714 246.696V249H111.662V235.68H113.714V241.386C113.966 240.654 114.41 240.066 115.046 239.622C115.682 239.178 116.45 238.956 117.35 238.956ZM116.72 240.756C116.144 240.756 115.628 240.894 115.172 241.17C114.716 241.434 114.356 241.818 114.092 242.322C113.828 242.814 113.696 243.384 113.696 244.032C113.696 244.692 113.828 245.268 114.092 245.76C114.356 246.252 114.716 246.636 115.172 246.912C115.628 247.176 116.144 247.308 116.72 247.308C117.632 247.308 118.364 247.02 118.916 246.444C119.468 245.856 119.744 245.052 119.744 244.032C119.744 243.024 119.468 242.226 118.916 241.638C118.364 241.05 117.632 240.756 116.72 240.756ZM133.024 243.564C133.024 243.9 133 244.194 132.952 244.446H125.32C125.356 245.466 125.638 246.222 126.166 246.714C126.694 247.206 127.348 247.452 128.128 247.452C128.812 247.452 129.388 247.278 129.856 246.93C130.336 246.582 130.63 246.12 130.738 245.544H132.934C132.802 246.24 132.526 246.858 132.106 247.398C131.686 247.938 131.14 248.364 130.468 248.676C129.796 248.976 129.046 249.126 128.218 249.126C127.258 249.126 126.406 248.922 125.662 248.514C124.93 248.106 124.354 247.518 123.934 246.75C123.514 245.982 123.304 245.076 123.304 244.032C123.304 243 123.514 242.1 123.934 241.332C124.354 240.564 124.93 239.976 125.662 239.568C126.406 239.16 127.258 238.956 128.218 238.956C129.19 238.956 130.036 239.16 130.756 239.568C131.488 239.964 132.046 240.516 132.43 241.224C132.826 241.92 133.024 242.7 133.024 243.564ZM130.954 243.51C130.978 242.862 130.864 242.322 130.612 241.89C130.372 241.446 130.036 241.122 129.604 240.918C129.184 240.702 128.722 240.594 128.218 240.594C127.414 240.594 126.742 240.84 126.202 241.332C125.662 241.824 125.368 242.55 125.32 243.51H130.954ZM140.622 249L137.058 244.59V249H135.006V235.68H137.058V243.312L140.586 239.082H143.052L138.732 244.014L143.16 249H140.622ZM144.21 236.202C144.21 235.854 144.33 235.566 144.57 235.338C144.81 235.11 145.128 234.996 145.524 234.996C145.92 234.996 146.238 235.11 146.478 235.338C146.73 235.566 146.856 235.854 146.856 236.202C146.856 236.55 146.73 236.832 146.478 237.048C146.238 237.264 145.92 237.372 145.524 237.372C145.128 237.372 144.81 237.264 144.57 237.048C144.33 236.832 144.21 236.55 144.21 236.202ZM146.55 239.082V249H144.498V239.082H146.55ZM150.149 237.372C149.753 237.372 149.429 237.264 149.177 237.048C148.937 236.832 148.817 236.55 148.817 236.202C148.817 235.854 148.937 235.566 149.177 235.338C149.429 235.11 149.753 234.996 150.149 234.996C150.545 234.996 150.863 235.11 151.103 235.338C151.343 235.566 151.463 235.854 151.463 236.202C151.463 236.55 151.343 236.832 151.103 237.048C150.863 237.264 150.545 237.372 150.149 237.372ZM147.269 251.916H147.971C148.367 251.916 148.655 251.826 148.835 251.646C149.027 251.478 149.123 251.184 149.123 250.764V239.082H151.193V250.782C151.193 252.738 150.209 253.716 148.241 253.716H147.269V251.916ZM159.254 249L155.69 244.59V249H153.638V235.68H155.69V243.312L159.218 239.082H161.684L157.364 244.014L161.792 249H159.254ZM172.347 243.564C172.347 243.9 172.323 244.194 172.275 244.446H164.643C164.679 245.466 164.961 246.222 165.489 246.714C166.017 247.206 166.671 247.452 167.451 247.452C168.135 247.452 168.711 247.278 169.179 246.93C169.659 246.582 169.953 246.12 170.061 245.544H172.257C172.125 246.24 171.849 246.858 171.429 247.398C171.009 247.938 170.463 248.364 169.791 248.676C169.119 248.976 168.369 249.126 167.541 249.126C166.581 249.126 165.729 248.922 164.985 248.514C164.253 248.106 163.677 247.518 163.257 246.75C162.837 245.982 162.627 245.076 162.627 244.032C162.627 243 162.837 242.1 163.257 241.332C163.677 240.564 164.253 239.976 164.985 239.568C165.729 239.16 166.581 238.956 167.541 238.956C168.513 238.956 169.359 239.16 170.079 239.568C170.811 239.964 171.369 240.516 171.753 241.224C172.149 241.92 172.347 242.7 172.347 243.564ZM170.277 243.51C170.301 242.862 170.187 242.322 169.935 241.89C169.695 241.446 169.359 241.122 168.927 240.918C168.507 240.702 168.045 240.594 167.541 240.594C166.737 240.594 166.065 240.84 165.525 241.332C164.985 241.824 164.691 242.55 164.643 243.51H170.277ZM179.872 238.92C181.024 238.92 181.948 239.292 182.644 240.036C183.34 240.78 183.688 241.842 183.688 243.222V249H181.636V243.438C181.636 242.55 181.408 241.866 180.952 241.386C180.496 240.894 179.872 240.648 179.08 240.648C178.264 240.648 177.61 240.912 177.118 241.44C176.626 241.956 176.38 242.718 176.38 243.726V249H174.328V239.082H176.38V241.26C176.644 240.516 177.088 239.94 177.712 239.532C178.336 239.124 179.056 238.92 179.872 238.92Z" fill="#353535"/>
<path d="M197 243H209H197ZM209 243L203.857 238L209 243ZM209 243L203.857 248L209 243Z" fill="white"/>
<path d="M197 243H209M209 243L203.857 238M209 243L203.857 248" stroke="#353535" stroke-width="2.5" stroke-linecap="round" stroke-linejoin="round"/>
</svg>
