<svg width="265" height="272" viewBox="0 0 265 272" fill="none" xmlns="http://www.w3.org/2000/svg">
<path d="M217.389 40.293C208.359 27.4557 190.748 21.285 177.096 26.6339C168.065 3.95765 135.729 -4.2637 111.485 2.06611C83.7254 9.31392 71.3552 36.8023 78.5634 61.2035C70.9527 59.5563 62.6748 60.7668 55.7089 64.7682C41.9747 72.6638 37.409 89.6988 41.3746 104.328C45.5862 119.863 58.8397 131.89 74.9705 133.848C88.4811 135.488 100.725 130.657 111.511 123.358C123.046 141.17 151.193 142.843 171.408 136.935C184.308 133.167 195.948 125.56 203.413 114.326C207.412 108.311 210.815 100.134 210.617 92.5528C228.679 84.672 228.295 55.788 217.393 40.293H217.389Z" fill="white"/>
<path d="M125.437 68.2601H125.342C123.295 62.6146 118.351 57.9498 111.762 55.7982C111.277 54.8006 110.533 53.9504 109.606 53.336C108.679 52.7216 107.604 52.3653 106.493 52.3043C105.453 52.1763 104.398 52.3299 103.439 52.7487C102.479 53.1676 101.651 53.8363 101.042 54.6844C92.0046 55.6364 84.7844 61.0533 82.2023 68.2601H82.1163C79.2952 68.2601 77 70.8876 77 74.115C77 77.3423 79.2952 79.9699 82.1163 79.9699H82.1832C85.0522 87.9477 93.659 93.7645 103.777 93.7645C113.895 93.7645 122.511 87.9477 125.37 79.9699H125.437C128.306 79.9699 130.554 77.3423 130.554 74.115C130.554 70.8876 128.258 68.2601 125.437 68.2601ZM106.311 54.2084C107.138 54.2371 107.939 54.5031 108.617 54.9743C109.296 55.4455 109.824 56.1019 110.136 56.8645C110.252 57.2244 110.31 57.6003 110.308 57.9783C110.308 59.8824 109.744 61.2152 108.587 61.9863C106.177 63.5952 101.549 62.6051 98.8422 61.7388C100.282 60.2663 101.416 58.5259 102.18 56.617C102.245 56.4164 102.328 56.2221 102.428 56.0362C102.818 55.378 103.398 54.8517 104.092 54.5257C104.786 54.1997 105.563 54.0892 106.321 54.2084H106.311ZM78.9126 74.115C78.856 73.2571 79.0926 72.4054 79.584 71.6985C80.0754 70.9915 80.7926 70.4708 81.619 70.2212C81.3205 71.5077 81.1666 72.8232 81.16 74.1435C81.1639 75.4446 81.3147 76.7411 81.6094 78.0087C80.7848 77.7573 80.0697 77.2359 79.5802 76.5291C79.0907 75.8223 78.8554 74.9716 78.9126 74.115ZM103.777 91.851C92.3584 91.851 83.0726 83.9017 83.0726 74.1435C83.0726 65.4802 90.2832 58.2163 100.085 56.7217L99.9994 56.893C99.9733 56.9592 99.9413 57.023 99.9037 57.0834C99.8559 57.1882 99.7985 57.2834 99.7507 57.3786L99.6455 57.5594L99.4638 57.8641L99.3682 58.0164L99.11 58.3972V58.4543L98.7944 58.8923L98.737 58.9589L98.4788 59.3016L98.3736 59.4159C98.3082 59.5053 98.238 59.5911 98.1632 59.6729L98.0485 59.8157L97.8572 60.0252L97.7329 60.168L97.5703 60.3488L97.4556 60.4726L97.3026 60.6344L97.1974 60.7487C97.1504 60.7907 97.1057 60.8352 97.0635 60.882L96.9678 60.9772L96.8626 61.0819L96.7766 61.1581L96.6905 61.2437L96.6427 61.2913L96.5758 61.3485C96.4572 61.4564 96.3679 61.5924 96.3161 61.7438C96.2643 61.8953 96.2516 62.0572 96.2793 62.2148C96.3056 62.3739 96.372 62.5238 96.4724 62.6503C96.5727 62.7769 96.7037 62.876 96.8531 62.9383L96.9774 62.9859H97.0443L97.2834 63.0811H97.3408L97.7616 63.2334H97.8763L98.3067 63.3763L98.4501 63.4239L99.0909 63.6238H99.2152L99.8272 63.7856L100.038 63.8427L100.841 64.0427L101.663 64.2045L101.864 64.452L102.639 64.5758H102.792C103.088 64.6234 103.394 64.6519 103.7 64.6805H103.939C104.188 64.6805 104.437 64.6805 104.695 64.6805H105.288H106.11L106.521 64.6329L107.258 64.5091L107.602 64.452C107.849 64.3903 108.091 64.314 108.329 64.2235L108.664 64.0998C109.422 63.7885 110.1 63.3123 110.65 62.7061C111.199 62.0999 111.605 61.3791 111.839 60.5964C111.839 60.5964 111.839 60.5964 111.839 60.5488C111.918 60.3023 111.982 60.0511 112.03 59.7967C112.03 59.6824 112.03 59.5587 112.03 59.4444C112.03 59.3302 112.087 59.1112 112.106 58.9303C112.125 58.7495 112.106 58.6257 112.106 58.4734C112.106 58.3211 112.106 58.1592 112.106 57.9974C119.489 60.8534 124.357 67.1653 124.357 74.1816C124.481 83.9017 115.195 91.851 103.777 91.851ZM125.944 78.0087C126.563 75.4494 126.563 72.7806 125.944 70.2212C126.769 70.4726 127.484 70.994 127.973 71.7008C128.463 72.4076 128.698 73.2583 128.641 74.115C128.698 74.9716 128.463 75.8223 127.973 76.5291C127.484 77.2359 126.769 77.7573 125.944 78.0087Z" fill="#64A7E9"/>
<path d="M95.4474 68.6313C94.4781 68.6927 93.5722 69.1318 92.926 69.8535C92.2798 70.5753 91.9453 71.5215 91.9951 72.487C91.9951 72.7395 92.0958 72.9816 92.2752 73.1602C92.4545 73.3387 92.6978 73.439 92.9514 73.439C93.205 73.439 93.4483 73.3387 93.6276 73.1602C93.807 72.9816 93.9077 72.7395 93.9077 72.487C93.8587 72.0262 93.9922 71.5645 94.2797 71.2001C94.5672 70.8357 94.9861 70.5972 95.4474 70.5354C95.9087 70.5972 96.3276 70.8357 96.6151 71.2001C96.9026 71.5645 97.036 72.0262 96.987 72.487C96.987 72.7395 97.0878 72.9816 97.2671 73.1602C97.4465 73.3387 97.6897 73.439 97.9434 73.439C98.197 73.439 98.4402 73.3387 98.6196 73.1602C98.7989 72.9816 98.8997 72.7395 98.8997 72.487C98.9494 71.5215 98.615 70.5753 97.9687 69.8535C97.3225 69.1318 96.4166 68.6927 95.4474 68.6313Z" fill="#64A7E9"/>
<path d="M111.274 68.6313C110.304 68.6927 109.398 69.1318 108.752 69.8535C108.106 70.5753 107.771 71.5215 107.821 72.487C107.821 72.7395 107.922 72.9816 108.101 73.1602C108.281 73.3387 108.524 73.439 108.778 73.439C109.031 73.439 109.274 73.3387 109.454 73.1602C109.633 72.9816 109.734 72.7395 109.734 72.487C109.685 72.0262 109.818 71.5645 110.106 71.2001C110.393 70.8357 110.812 70.5972 111.274 70.5354C111.735 70.5972 112.154 70.8357 112.441 71.2001C112.729 71.5645 112.862 72.0262 112.813 72.487C112.813 72.7395 112.914 72.9816 113.093 73.1602C113.273 73.3387 113.516 73.439 113.77 73.439C114.023 73.439 114.266 73.3387 114.446 73.1602C114.625 72.9816 114.726 72.7395 114.726 72.487C114.776 71.5215 114.441 70.5753 113.795 69.8535C113.149 69.1318 112.243 68.6927 111.274 68.6313Z" fill="#64A7E9"/>
<path d="M107.936 79.4082C107.683 79.4082 107.44 79.5085 107.26 79.687C107.081 79.8656 106.98 80.1077 106.98 80.3602C106.98 81.2061 106.643 82.0173 106.042 82.6154C105.441 83.2135 104.626 83.5495 103.776 83.5495C102.927 83.5495 102.112 83.2135 101.511 82.6154C100.91 82.0173 100.573 81.2061 100.573 80.3602C100.573 80.1077 100.472 79.8656 100.293 79.687C100.113 79.5085 99.8701 79.4082 99.6165 79.4082C99.3628 79.4082 99.1196 79.5085 98.9403 79.687C98.7609 79.8656 98.6602 80.1077 98.6602 80.3602C98.6602 81.711 99.1992 83.0065 100.159 83.9617C101.118 84.9169 102.42 85.4535 103.776 85.4535C105.133 85.4535 106.435 84.9169 107.394 83.9617C108.354 83.0065 108.893 81.711 108.893 80.3602C108.893 80.1077 108.792 79.8656 108.613 79.687C108.433 79.5085 108.19 79.4082 107.936 79.4082Z" fill="#64A7E9"/>
<path d="M184.282 67.4202C182.983 62.8295 180.162 58.8135 176.279 56.0275C175.768 55.1332 175.016 54.4 174.107 53.9112C176.735 50.341 176.795 49.54 176.825 49.184C176.844 48.8352 176.789 48.4862 176.662 48.1604C176.536 47.8347 176.341 47.5396 176.091 47.2951C175.466 46.6523 174.167 45.9204 171.568 46.0688C169.129 46.2072 166.768 48.2247 165.4 49.629C164.467 48.9416 163.337 48.5706 162.177 48.5706C161.017 48.5706 159.887 48.9416 158.954 49.629C157.625 48.1851 155.264 46.1578 152.815 46.0193C150.216 45.871 148.917 46.6028 148.322 47.2951C148.061 47.55 147.859 47.8597 147.732 48.2017C147.605 48.5438 147.556 48.9097 147.588 49.273C147.588 49.6191 147.678 50.4301 150.335 53.9804C149.401 54.4727 148.637 55.2343 148.144 56.166C148.085 56.1863 148.028 56.2128 147.975 56.2451C144.195 59.0041 141.436 62.9335 140.131 67.4202C137.492 67.7663 135.43 70.3376 135.43 73.4627C135.43 76.7559 137.731 79.3964 140.577 79.5447C143.611 87.9804 152.16 94.0823 162.206 94.0823C172.253 94.0823 180.801 87.9804 183.836 79.5447C186.682 79.4458 188.983 76.7559 188.983 73.4627C188.983 70.3475 186.92 67.7663 184.282 67.4202ZM171.707 47.9972C173.79 47.8786 174.524 48.4522 174.682 48.6302C174.737 48.6766 174.782 48.7341 174.812 48.7989C174.843 48.8637 174.86 48.9343 174.861 49.006C174.235 50.3895 173.42 51.6807 172.441 52.8431C172.29 53.0541 172.184 53.2937 172.13 53.5471C172.075 53.8005 172.073 54.0624 172.124 54.3166C172.175 54.5669 172.277 54.8041 172.423 55.0134C172.57 55.2227 172.758 55.3996 172.977 55.533C174.157 56.255 174.583 56.878 174.514 57.1055C174.054 57.9557 173.315 58.6226 172.421 58.9943C171.645 59.4428 170.724 59.574 169.853 59.3603C168.681 58.7398 167.664 57.8644 166.878 56.7989C167.015 56.5801 167.138 56.3521 167.244 56.1165C167.592 56.255 168.028 56.433 168.554 56.6703C168.684 56.7297 168.826 56.7601 168.97 56.7593C169.193 56.7558 169.409 56.6774 169.582 56.5367C169.755 56.396 169.875 56.2013 169.923 55.984C169.971 55.7667 169.944 55.5395 169.847 55.3392C169.75 55.139 169.588 54.9773 169.387 54.8803C168.683 54.554 168.107 54.3265 167.681 54.1683C167.681 54.0991 167.681 54.0298 167.681 53.9606C167.696 53.7565 167.696 53.5516 167.681 53.3475C168.476 53.0322 169.3 52.7938 170.14 52.6354C170.271 52.6127 170.395 52.5646 170.507 52.4939C170.618 52.4232 170.715 52.3313 170.791 52.2234C170.867 52.1155 170.921 51.9937 170.949 51.865C170.978 51.7363 170.981 51.6033 170.959 51.4734C170.936 51.3435 170.888 51.2194 170.817 51.1081C170.746 50.9968 170.654 50.9006 170.545 50.8248C170.437 50.749 170.315 50.6953 170.186 50.6666C170.057 50.6379 169.923 50.6348 169.793 50.6575C168.854 50.8167 167.933 51.0718 167.046 51.419C166.967 51.2707 166.878 51.1223 166.788 50.9839C168.554 49.2038 170.368 48.0665 171.707 47.9972ZM162.206 50.4993C162.893 50.4993 163.564 50.7023 164.135 51.0826C164.706 51.463 165.151 52.0035 165.413 52.636C165.676 53.2685 165.745 53.9644 165.611 54.6359C165.477 55.3073 165.146 55.924 164.661 56.4081C164.175 56.8922 163.557 57.2219 162.884 57.3554C162.21 57.489 161.512 57.4204 160.878 57.1584C160.244 56.8965 159.702 56.4528 159.32 55.8836C158.939 55.3144 158.735 54.6452 158.735 53.9606C158.735 53.0426 159.101 52.1622 159.752 51.5131C160.403 50.864 161.286 50.4993 162.206 50.4993ZM151.426 55.533C151.648 55.3995 151.839 55.2215 151.987 55.0104C152.136 54.7993 152.238 54.5596 152.289 54.3067C152.338 54.0534 152.335 53.7928 152.278 53.5409C152.222 53.2891 152.114 53.0516 151.962 52.8431C150.991 51.682 150.177 50.3985 149.542 49.0257C149.541 48.9508 149.557 48.8766 149.587 48.8083C149.618 48.7399 149.664 48.6792 149.721 48.6302C149.899 48.4522 150.633 47.8687 152.696 47.9972C154.035 48.0665 155.849 49.2038 157.654 51.0234C157.565 51.1718 157.476 51.3102 157.397 51.4586C156.509 51.1124 155.589 50.8573 154.649 50.6971C154.521 50.6727 154.389 50.6739 154.261 50.7006C154.134 50.7272 154.012 50.7787 153.904 50.8523C153.797 50.9258 153.704 51.0198 153.633 51.1289C153.562 51.2381 153.513 51.3602 153.489 51.4882C153.443 51.7437 153.499 52.0073 153.645 52.2219C153.792 52.4365 154.017 52.5851 154.273 52.6354C155.137 52.7874 155.985 53.026 156.802 53.3475C156.787 53.5516 156.787 53.7565 156.802 53.9606C156.802 54.0298 156.802 54.0991 156.802 54.1683C156.375 54.3265 155.81 54.554 155.096 54.8803C154.895 54.9773 154.733 55.139 154.635 55.3392C154.538 55.5395 154.511 55.7667 154.559 55.984C154.608 56.2013 154.728 56.396 154.901 56.5367C155.074 56.6774 155.289 56.7558 155.512 56.7593C155.656 56.7583 155.798 56.728 155.929 56.6703C156.445 56.433 156.921 56.2451 157.238 56.1165C157.344 56.3521 157.467 56.5801 157.605 56.7989C156.818 57.8644 155.801 58.7398 154.63 59.3603C153.758 59.574 152.838 59.4428 152.061 58.9943C151.167 58.6226 150.428 57.9557 149.968 57.1055C149.82 56.878 150.246 56.255 151.426 55.533ZM137.413 73.4627C137.375 72.6716 137.566 71.8862 137.963 71.2005C138.361 70.5148 138.948 69.9577 139.654 69.5959C139.229 72.2037 139.331 74.8699 139.952 77.4382C139.163 77.1258 138.494 76.5735 138.038 75.8598C137.582 75.1461 137.364 74.3073 137.413 73.4627ZM162.206 92.1044C150.722 92.1044 141.38 83.4412 141.38 72.7902C141.398 70.0275 142.029 67.3031 143.23 64.8132C144.43 62.3234 146.169 60.13 148.322 58.3911C149.014 59.4259 149.978 60.2505 151.109 60.7745C151.95 61.1992 152.874 61.4323 153.816 61.4568C154.31 61.465 154.801 61.3812 155.264 61.2096C156.706 60.5246 157.964 59.5077 158.934 58.2427C159.881 58.9677 161.042 59.3607 162.236 59.3607C163.43 59.3607 164.591 58.9677 165.539 58.2427C166.511 59.5056 167.768 60.522 169.208 61.2096C169.662 61.3776 170.142 61.4614 170.626 61.4568C171.568 61.4323 172.493 61.1992 173.334 60.7745C174.454 60.246 175.407 59.4217 176.091 58.3911C178.245 60.1286 179.986 62.3217 181.186 64.8119C182.387 67.3021 183.018 70.0272 183.033 72.7902C183.033 83.4412 173.691 92.1044 162.206 92.1044ZM184.461 77.4382C185.082 74.8699 185.183 72.2037 184.759 69.5959C185.464 69.9587 186.051 70.516 186.448 71.2015C186.845 71.8869 187.037 72.6718 187 73.4627C187.051 74.3076 186.833 75.147 186.377 75.861C185.921 76.575 185.25 77.127 184.461 77.4382Z" fill="#FF7D97"/>
<path d="M153.568 67.7664C152.562 67.8301 151.623 68.2862 150.953 69.036C150.283 69.7857 149.936 70.7686 149.987 71.7716C149.987 72.0339 150.092 72.2854 150.278 72.4709C150.464 72.6564 150.716 72.7605 150.979 72.7605C151.242 72.7605 151.494 72.6564 151.68 72.4709C151.866 72.2854 151.971 72.0339 151.971 71.7716C151.92 71.2929 152.059 70.8134 152.357 70.4348C152.655 70.0562 153.089 69.8085 153.568 69.7443C154.046 69.8085 154.48 70.0562 154.779 70.4348C155.077 70.8134 155.215 71.2929 155.164 71.7716C155.164 72.0339 155.269 72.2854 155.455 72.4709C155.641 72.6564 155.893 72.7605 156.156 72.7605C156.419 72.7605 156.671 72.6564 156.857 72.4709C157.043 72.2854 157.148 72.0339 157.148 71.7716C157.199 70.7686 156.853 69.7857 156.182 69.036C155.512 68.2862 154.573 67.8301 153.568 67.7664Z" fill="#FF7D97"/>
<path d="M169.982 67.7664C168.977 67.8301 168.037 68.2862 167.367 69.036C166.697 69.7857 166.35 70.7686 166.402 71.7716C166.402 72.0339 166.506 72.2854 166.692 72.4709C166.878 72.6564 167.13 72.7605 167.393 72.7605C167.656 72.7605 167.909 72.6564 168.095 72.4709C168.28 72.2854 168.385 72.0339 168.385 71.7716C168.334 71.2929 168.473 70.8134 168.771 70.4348C169.069 70.0562 169.503 69.8085 169.982 69.7443C170.46 69.8085 170.894 70.0562 171.193 70.4348C171.491 70.8134 171.629 71.2929 171.578 71.7716C171.578 72.0339 171.683 72.2854 171.869 72.4709C172.055 72.6564 172.307 72.7605 172.57 72.7605C172.833 72.7605 173.085 72.6564 173.271 72.4709C173.457 72.2854 173.562 72.0339 173.562 71.7716C173.613 70.7686 173.267 69.7857 172.596 69.036C171.926 68.2862 170.987 67.8301 169.982 67.7664Z" fill="#FF7D97"/>
<path d="M166.52 78.9414C166.257 78.9414 166.005 79.0456 165.819 79.2311C165.633 79.4165 165.528 79.6681 165.528 79.9304C165.528 80.809 165.178 81.6517 164.555 82.273C163.932 82.8943 163.087 83.2433 162.206 83.2433C161.325 83.2433 160.48 82.8943 159.857 82.273C159.234 81.6517 158.884 80.809 158.884 79.9304C158.884 79.6681 158.779 79.4165 158.593 79.2311C158.407 79.0456 158.155 78.9414 157.892 78.9414C157.629 78.9414 157.377 79.0456 157.191 79.2311C157.005 79.4165 156.9 79.6681 156.9 79.9304C156.9 81.3336 157.459 82.6793 158.454 83.6716C159.449 84.6638 160.799 85.2212 162.206 85.2212C163.613 85.2212 164.963 84.6638 165.958 83.6716C166.953 82.6793 167.512 81.3336 167.512 79.9304C167.512 79.6681 167.407 79.4165 167.221 79.2311C167.035 79.0456 166.783 78.9414 166.52 78.9414Z" fill="#FF7D97"/>
<path d="M44.5721 189L54.4771 164.395H58.3621L68.2321 189H63.1571L55.5271 168.805H57.2771L49.5421 189H44.5721ZM49.8221 184.415V180.425H63.0521V184.415H49.8221ZM70.9216 189V163.695H75.5066V189H70.9216ZM79.5691 189V163.695H84.1541V189H79.5691ZM96.3015 189.35C94.5282 189.35 92.9532 188.977 91.5765 188.23C90.1999 187.46 89.1032 186.41 88.2865 185.08C87.4932 183.75 87.0965 182.233 87.0965 180.53C87.0965 178.85 87.4815 177.357 88.2515 176.05C89.0449 174.72 90.1182 173.67 91.4715 172.9C92.8249 172.107 94.3299 171.71 95.9865 171.71C97.6199 171.71 99.0549 172.083 100.292 172.83C101.552 173.553 102.532 174.557 103.232 175.84C103.955 177.1 104.317 178.535 104.317 180.145C104.317 180.448 104.293 180.763 104.247 181.09C104.223 181.393 104.165 181.743 104.072 182.14L89.8615 182.175V178.745L101.937 178.71L100.082 180.145C100.035 179.142 99.8482 178.302 99.5215 177.625C99.2182 176.948 98.7632 176.435 98.1565 176.085C97.5732 175.712 96.8499 175.525 95.9865 175.525C95.0765 175.525 94.2832 175.735 93.6065 176.155C92.9299 176.552 92.4049 177.123 92.0315 177.87C91.6815 178.593 91.5065 179.457 91.5065 180.46C91.5065 181.487 91.6932 182.385 92.0665 183.155C92.4632 183.902 93.0232 184.485 93.7465 184.905C94.4699 185.302 95.3099 185.5 96.2665 185.5C97.1299 185.5 97.9115 185.36 98.6115 185.08C99.3115 184.777 99.9182 184.333 100.432 183.75L103.127 186.445C102.31 187.402 101.307 188.125 100.117 188.615C98.9499 189.105 97.6782 189.35 96.3015 189.35ZM125.363 189V179.305C125.363 178.302 125.048 177.485 124.418 176.855C123.788 176.225 122.971 175.91 121.968 175.91C121.315 175.91 120.731 176.05 120.218 176.33C119.705 176.61 119.296 177.007 118.993 177.52C118.713 178.033 118.573 178.628 118.573 179.305L116.788 178.395C116.788 177.065 117.068 175.91 117.628 174.93C118.211 173.927 119.005 173.145 120.008 172.585C121.035 172.025 122.19 171.745 123.473 171.745C124.71 171.745 125.818 172.06 126.798 172.69C127.778 173.297 128.548 174.102 129.108 175.105C129.668 176.085 129.948 177.147 129.948 178.29V189H125.363ZM113.988 189V172.095H118.573V189H113.988ZM140.711 189.35C139.171 189.35 137.783 188.965 136.546 188.195C135.31 187.425 134.341 186.375 133.641 185.045C132.941 183.715 132.591 182.222 132.591 180.565C132.591 178.885 132.941 177.38 133.641 176.05C134.341 174.72 135.31 173.67 136.546 172.9C137.783 172.13 139.171 171.745 140.711 171.745C141.925 171.745 143.01 171.99 143.966 172.48C144.923 172.97 145.681 173.658 146.241 174.545C146.825 175.408 147.14 176.388 147.186 177.485V183.575C147.14 184.695 146.825 185.687 146.241 186.55C145.681 187.413 144.923 188.102 143.966 188.615C143.01 189.105 141.925 189.35 140.711 189.35ZM141.551 185.115C142.835 185.115 143.873 184.695 144.666 183.855C145.46 182.992 145.856 181.883 145.856 180.53C145.856 179.643 145.67 178.862 145.296 178.185C144.946 177.485 144.445 176.948 143.791 176.575C143.161 176.178 142.415 175.98 141.551 175.98C140.711 175.98 139.965 176.178 139.311 176.575C138.681 176.948 138.18 177.485 137.806 178.185C137.456 178.862 137.281 179.643 137.281 180.53C137.281 181.44 137.456 182.245 137.806 182.945C138.18 183.622 138.681 184.158 139.311 184.555C139.965 184.928 140.711 185.115 141.551 185.115ZM145.611 189V184.45L146.346 180.32L145.611 176.26V172.095H150.161V189H145.611ZM154.218 189V172.095H158.803V189H154.218ZM165.243 189V179.025C165.243 178.045 164.928 177.287 164.298 176.75C163.691 176.19 162.933 175.91 162.023 175.91C161.416 175.91 160.868 176.038 160.378 176.295C159.888 176.528 159.503 176.878 159.223 177.345C158.943 177.812 158.803 178.372 158.803 179.025L157.018 178.15C157.018 176.843 157.298 175.712 157.858 174.755C158.441 173.798 159.223 173.063 160.203 172.55C161.183 172.013 162.291 171.745 163.528 171.745C164.694 171.745 165.756 172.013 166.713 172.55C167.669 173.063 168.428 173.798 168.988 174.755C169.548 175.688 169.828 176.82 169.828 178.15V189H165.243ZM176.268 189V179.025C176.268 178.045 175.953 177.287 175.323 176.75C174.716 176.19 173.958 175.91 173.048 175.91C172.464 175.91 171.916 176.038 171.403 176.295C170.913 176.528 170.528 176.878 170.248 177.345C169.968 177.812 169.828 178.372 169.828 179.025L167.203 178.395C167.296 177.042 167.658 175.875 168.288 174.895C168.918 173.892 169.746 173.122 170.773 172.585C171.799 172.025 172.943 171.745 174.203 171.745C175.463 171.745 176.594 172.013 177.598 172.55C178.601 173.063 179.394 173.81 179.978 174.79C180.561 175.77 180.853 176.937 180.853 178.29V189H176.268ZM192.654 189.35C190.881 189.35 189.306 188.977 187.929 188.23C186.552 187.46 185.456 186.41 184.639 185.08C183.846 183.75 183.449 182.233 183.449 180.53C183.449 178.85 183.834 177.357 184.604 176.05C185.397 174.72 186.471 173.67 187.824 172.9C189.177 172.107 190.682 171.71 192.339 171.71C193.972 171.71 195.407 172.083 196.644 172.83C197.904 173.553 198.884 174.557 199.584 175.84C200.307 177.1 200.669 178.535 200.669 180.145C200.669 180.448 200.646 180.763 200.599 181.09C200.576 181.393 200.517 181.743 200.424 182.14L186.214 182.175V178.745L198.289 178.71L196.434 180.145C196.387 179.142 196.201 178.302 195.874 177.625C195.571 176.948 195.116 176.435 194.509 176.085C193.926 175.712 193.202 175.525 192.339 175.525C191.429 175.525 190.636 175.735 189.959 176.155C189.282 176.552 188.757 177.123 188.384 177.87C188.034 178.593 187.859 179.457 187.859 180.46C187.859 181.487 188.046 182.385 188.419 183.155C188.816 183.902 189.376 184.485 190.099 184.905C190.822 185.302 191.662 185.5 192.619 185.5C193.482 185.5 194.264 185.36 194.964 185.08C195.664 184.777 196.271 184.333 196.784 183.75L199.479 186.445C198.662 187.402 197.659 188.125 196.469 188.615C195.302 189.105 194.031 189.35 192.654 189.35ZM214.88 189V179.305C214.88 178.302 214.565 177.485 213.935 176.855C213.305 176.225 212.488 175.91 211.485 175.91C210.831 175.91 210.248 176.05 209.735 176.33C209.221 176.61 208.813 177.007 208.51 177.52C208.23 178.033 208.09 178.628 208.09 179.305L206.305 178.395C206.305 177.065 206.585 175.91 207.145 174.93C207.728 173.927 208.521 173.145 209.525 172.585C210.551 172.025 211.706 171.745 212.99 171.745C214.226 171.745 215.335 172.06 216.315 172.69C217.295 173.297 218.065 174.102 218.625 175.105C219.185 176.085 219.465 177.147 219.465 178.29V189H214.88ZM203.505 189V172.095H208.09V189H203.505Z" fill="#353535"/>
<rect y="212" width="265" height="60" rx="30" fill="#B5D44F"/>
<path d="M72.9743 246.246H67.6103L66.6383 249H64.4423L69.1223 236.49H71.4803L76.1423 249H73.9463L72.9743 246.246ZM72.3983 244.662L70.2923 238.722L68.1863 244.662H72.3983ZM79.7178 235.68V249H77.6658V235.68H79.7178ZM84.253 235.68V249H82.201V235.68H84.253ZM95.9521 243.564C95.9521 243.9 95.9281 244.194 95.8801 244.446H88.2481C88.2841 245.466 88.5661 246.222 89.0941 246.714C89.6221 247.206 90.2761 247.452 91.0561 247.452C91.7401 247.452 92.3161 247.278 92.7841 246.93C93.2641 246.582 93.5581 246.12 93.6661 245.544H95.8621C95.7301 246.24 95.4541 246.858 95.0341 247.398C94.6141 247.938 94.0681 248.364 93.3961 248.676C92.7241 248.976 91.9741 249.126 91.1461 249.126C90.1861 249.126 89.3341 248.922 88.5901 248.514C87.8581 248.106 87.2821 247.518 86.8621 246.75C86.4421 245.982 86.2321 245.076 86.2321 244.032C86.2321 243 86.4421 242.1 86.8621 241.332C87.2821 240.564 87.8581 239.976 88.5901 239.568C89.3341 239.16 90.1861 238.956 91.1461 238.956C92.1181 238.956 92.9641 239.16 93.6841 239.568C94.4161 239.964 94.9741 240.516 95.3581 241.224C95.7541 241.92 95.9521 242.7 95.9521 243.564ZM93.8821 243.51C93.9061 242.862 93.7921 242.322 93.5401 241.89C93.3001 241.446 92.9641 241.122 92.5321 240.918C92.1121 240.702 91.6501 240.594 91.1461 240.594C90.3421 240.594 89.6701 240.84 89.1301 241.332C88.5901 241.824 88.2961 242.55 88.2481 243.51H93.8821ZM101.191 238.956C102.355 238.956 103.285 239.256 103.981 239.856C104.689 240.444 105.121 241.236 105.277 242.232H103.333C103.249 241.692 103.015 241.26 102.631 240.936C102.259 240.6 101.761 240.432 101.137 240.432C100.621 240.432 100.219 240.558 99.9314 240.81C99.6554 241.05 99.5174 241.38 99.5174 241.8C99.5174 242.112 99.6194 242.364 99.8234 242.556C100.027 242.748 100.279 242.898 100.579 243.006C100.891 243.114 101.329 243.234 101.893 243.366C102.637 243.534 103.237 243.708 103.693 243.888C104.161 244.068 104.557 244.356 104.881 244.752C105.217 245.136 105.385 245.664 105.385 246.336C105.385 247.164 105.067 247.836 104.431 248.352C103.807 248.868 102.961 249.126 101.893 249.126C100.657 249.126 99.6554 248.838 98.8874 248.262C98.1314 247.686 97.6754 246.882 97.5194 245.85H99.5174C99.5774 246.39 99.8174 246.828 100.237 247.164C100.657 247.5 101.209 247.668 101.893 247.668C102.385 247.668 102.769 247.542 103.045 247.29C103.333 247.026 103.477 246.696 103.477 246.3C103.477 245.952 103.369 245.676 103.153 245.472C102.937 245.268 102.667 245.112 102.343 245.004C102.019 244.884 101.575 244.764 101.011 244.644C100.291 244.476 99.7034 244.308 99.2474 244.14C98.8034 243.972 98.4194 243.702 98.0954 243.33C97.7834 242.946 97.6274 242.43 97.6274 241.782C97.6274 240.942 97.9394 240.264 98.5634 239.748C99.1994 239.22 100.075 238.956 101.191 238.956ZM117.35 238.956C118.214 238.956 118.982 239.16 119.654 239.568C120.338 239.976 120.872 240.564 121.256 241.332C121.64 242.1 121.832 243 121.832 244.032C121.832 245.076 121.64 245.982 121.256 246.75C120.872 247.518 120.338 248.106 119.654 248.514C118.982 248.922 118.214 249.126 117.35 249.126C116.45 249.126 115.682 248.904 115.046 248.46C114.41 248.016 113.966 247.428 113.714 246.696V249H111.662V235.68H113.714V241.386C113.966 240.654 114.41 240.066 115.046 239.622C115.682 239.178 116.45 238.956 117.35 238.956ZM116.72 240.756C116.144 240.756 115.628 240.894 115.172 241.17C114.716 241.434 114.356 241.818 114.092 242.322C113.828 242.814 113.696 243.384 113.696 244.032C113.696 244.692 113.828 245.268 114.092 245.76C114.356 246.252 114.716 246.636 115.172 246.912C115.628 247.176 116.144 247.308 116.72 247.308C117.632 247.308 118.364 247.02 118.916 246.444C119.468 245.856 119.744 245.052 119.744 244.032C119.744 243.024 119.468 242.226 118.916 241.638C118.364 241.05 117.632 240.756 116.72 240.756ZM133.024 243.564C133.024 243.9 133 244.194 132.952 244.446H125.32C125.356 245.466 125.638 246.222 126.166 246.714C126.694 247.206 127.348 247.452 128.128 247.452C128.812 247.452 129.388 247.278 129.856 246.93C130.336 246.582 130.63 246.12 130.738 245.544H132.934C132.802 246.24 132.526 246.858 132.106 247.398C131.686 247.938 131.14 248.364 130.468 248.676C129.796 248.976 129.046 249.126 128.218 249.126C127.258 249.126 126.406 248.922 125.662 248.514C124.93 248.106 124.354 247.518 123.934 246.75C123.514 245.982 123.304 245.076 123.304 244.032C123.304 243 123.514 242.1 123.934 241.332C124.354 240.564 124.93 239.976 125.662 239.568C126.406 239.16 127.258 238.956 128.218 238.956C129.19 238.956 130.036 239.16 130.756 239.568C131.488 239.964 132.046 240.516 132.43 241.224C132.826 241.92 133.024 242.7 133.024 243.564ZM130.954 243.51C130.978 242.862 130.864 242.322 130.612 241.89C130.372 241.446 130.036 241.122 129.604 240.918C129.184 240.702 128.722 240.594 128.218 240.594C127.414 240.594 126.742 240.84 126.202 241.332C125.662 241.824 125.368 242.55 125.32 243.51H130.954ZM140.622 249L137.058 244.59V249H135.006V235.68H137.058V243.312L140.586 239.082H143.052L138.732 244.014L143.16 249H140.622ZM144.21 236.202C144.21 235.854 144.33 235.566 144.57 235.338C144.81 235.11 145.128 234.996 145.524 234.996C145.92 234.996 146.238 235.11 146.478 235.338C146.73 235.566 146.856 235.854 146.856 236.202C146.856 236.55 146.73 236.832 146.478 237.048C146.238 237.264 145.92 237.372 145.524 237.372C145.128 237.372 144.81 237.264 144.57 237.048C144.33 236.832 144.21 236.55 144.21 236.202ZM146.55 239.082V249H144.498V239.082H146.55ZM150.149 237.372C149.753 237.372 149.429 237.264 149.177 237.048C148.937 236.832 148.817 236.55 148.817 236.202C148.817 235.854 148.937 235.566 149.177 235.338C149.429 235.11 149.753 234.996 150.149 234.996C150.545 234.996 150.863 235.11 151.103 235.338C151.343 235.566 151.463 235.854 151.463 236.202C151.463 236.55 151.343 236.832 151.103 237.048C150.863 237.264 150.545 237.372 150.149 237.372ZM147.269 251.916H147.971C148.367 251.916 148.655 251.826 148.835 251.646C149.027 251.478 149.123 251.184 149.123 250.764V239.082H151.193V250.782C151.193 252.738 150.209 253.716 148.241 253.716H147.269V251.916ZM159.254 249L155.69 244.59V249H153.638V235.68H155.69V243.312L159.218 239.082H161.684L157.364 244.014L161.792 249H159.254ZM172.347 243.564C172.347 243.9 172.323 244.194 172.275 244.446H164.643C164.679 245.466 164.961 246.222 165.489 246.714C166.017 247.206 166.671 247.452 167.451 247.452C168.135 247.452 168.711 247.278 169.179 246.93C169.659 246.582 169.953 246.12 170.061 245.544H172.257C172.125 246.24 171.849 246.858 171.429 247.398C171.009 247.938 170.463 248.364 169.791 248.676C169.119 248.976 168.369 249.126 167.541 249.126C166.581 249.126 165.729 248.922 164.985 248.514C164.253 248.106 163.677 247.518 163.257 246.75C162.837 245.982 162.627 245.076 162.627 244.032C162.627 243 162.837 242.1 163.257 241.332C163.677 240.564 164.253 239.976 164.985 239.568C165.729 239.16 166.581 238.956 167.541 238.956C168.513 238.956 169.359 239.16 170.079 239.568C170.811 239.964 171.369 240.516 171.753 241.224C172.149 241.92 172.347 242.7 172.347 243.564ZM170.277 243.51C170.301 242.862 170.187 242.322 169.935 241.89C169.695 241.446 169.359 241.122 168.927 240.918C168.507 240.702 168.045 240.594 167.541 240.594C166.737 240.594 166.065 240.84 165.525 241.332C164.985 241.824 164.691 242.55 164.643 243.51H170.277ZM179.872 238.92C181.024 238.92 181.948 239.292 182.644 240.036C183.34 240.78 183.688 241.842 183.688 243.222V249H181.636V243.438C181.636 242.55 181.408 241.866 180.952 241.386C180.496 240.894 179.872 240.648 179.08 240.648C178.264 240.648 177.61 240.912 177.118 241.44C176.626 241.956 176.38 242.718 176.38 243.726V249H174.328V239.082H176.38V241.26C176.644 240.516 177.088 239.94 177.712 239.532C178.336 239.124 179.056 238.92 179.872 238.92Z" fill="#353535"/>
<path d="M197 243H209H197ZM209 243L203.857 238L209 243ZM209 243L203.857 248L209 243Z" fill="white"/>
<path d="M197 243H209M209 243L203.857 238M209 243L203.857 248" stroke="#353535" stroke-width="2.5" stroke-linecap="round" stroke-linejoin="round"/>
</svg>
