<svg width="82" height="57" viewBox="0 0 82 57" fill="none" xmlns="http://www.w3.org/2000/svg">
<path d="M76.1949 15.8831L82.0004 15.7017L81.5247 0.475672L66.2988 0L66.1173 5.80554L71.9066 5.98651L61.5713 16.3218C53.2954 10.0551 41.4257 10.6885 33.8827 18.2307C25.6433 26.4706 25.6433 39.8777 33.8827 48.1176C38.0025 52.2374 43.4143 54.2973 48.8259 54.2973C54.2375 54.2973 59.6494 52.2376 63.7697 48.1176C71.3122 40.5746 71.9453 28.7045 65.6786 20.4289L76.0139 10.0936L76.1949 15.8831ZM59.6624 44.0105C53.6874 49.985 43.965 49.985 37.99 44.0105C32.015 38.0352 32.015 28.3136 37.99 22.3381C40.978 19.3501 44.9013 17.8571 48.8264 17.8571C52.7503 17.8571 56.6754 19.3511 59.6624 22.3381C65.6374 28.3131 65.6374 38.0352 59.6624 44.0105Z" fill="#64A7E9"/>
<path d="M55.4054 22.2549C55.4054 21.1451 55.3174 20.0487 55.1506 18.9727C53.1876 18.1268 51.0859 17.6998 48.9834 17.6998C48.9301 17.6998 48.8771 17.7029 48.8239 17.7039C49.2767 19.1585 49.5133 20.6884 49.5133 22.2554C49.5133 26.3305 47.9266 30.1611 45.0452 33.0423C42.1638 35.9236 38.3331 37.5103 34.258 37.5103C30.1834 37.5103 26.3524 35.9236 23.471 33.0423C20.5896 30.1609 19.0029 26.3302 19.0029 22.2554C19.0029 18.1806 20.5896 14.3499 23.471 11.4685C26.3524 8.58717 30.1831 7.00045 34.258 7.00045C38.3331 7.00045 42.1638 8.58717 45.0452 11.4685C45.2437 11.6671 45.4341 11.8707 45.6205 12.0778C48.0166 11.701 50.4644 11.7335 52.8529 12.1691C51.8917 10.4029 50.6736 8.76365 49.2118 7.30192C45.2176 3.30822 39.9069 1.10815 34.2585 1.10815C28.6103 1.10815 23.2999 3.30772 19.3051 7.30192C15.3109 11.2961 13.1113 16.607 13.1113 22.2551C13.1113 26.9088 14.608 31.3315 17.3677 34.9796L8.51816 43.8291L4.1664 39.4774L0 43.6438L4.35175 47.9955L0 52.3472L4.1664 56.5136L8.51816 52.1618L12.8699 56.5136L17.0363 52.3472L12.6846 47.9955L21.5341 39.146C25.1822 41.9059 29.6042 43.4024 34.2582 43.4024C39.9069 43.4024 45.2173 41.2028 49.2116 37.2086C53.2053 33.2139 55.4054 27.9033 55.4054 22.2549Z" fill="#FF7D97"/>
<path d="M45.6205 12.0778C48.0166 11.701 50.4644 11.7335 52.8529 12.1691C51.9284 10.4706 50.7592 8.8933 49.3717 7.47442L45.2066 11.6395C45.3461 11.7843 45.4869 11.9287 45.6205 12.0778Z" fill="#FF7D97"/>
<path d="M48.9834 17.6998C48.9301 17.6998 48.8771 17.7029 48.8239 17.7039C49.2767 19.1585 49.5133 20.6884 49.5133 22.2554C49.5133 26.3305 47.9266 30.1611 45.0452 33.0423C42.1638 35.9236 38.3331 37.5103 34.258 37.5103C30.2625 37.5103 26.5034 35.9812 23.6423 33.2048L2.24996 54.597L4.1664 56.5136L8.51816 52.1618L12.8699 56.5136L17.0363 52.3472L12.6846 47.9955L21.5341 39.146C25.1822 41.9059 29.6042 43.4024 34.2582 43.4024C39.9069 43.4024 45.2173 41.2028 49.2116 37.2086C53.2053 33.2139 55.4054 27.9033 55.4054 22.2549C55.4054 21.1451 55.3174 20.0487 55.1506 18.9727C53.1876 18.1268 51.0859 17.6998 48.9834 17.6998Z" fill="#FF7D97"/>
</svg>
