<svg width="1804" height="64" viewBox="0 0 1804 64" fill="none" xmlns="http://www.w3.org/2000/svg">
<path d="M1802.25 27.0252C1802.62 27.011 1803 27.0037 1803.37 27.0037C1803.58 27.0037 1803.79 27.0062 1804 27.0106V63.8585C1803.79 63.8629 1803.58 63.8643 1803.37 63.8643C1793.04 63.8643 1784.29 58.4614 1781.32 51.0071H1780.38C1777.37 58.4069 1768.66 63.7588 1758.37 63.7588C1748.08 63.7588 1739.37 58.4069 1736.36 51.0071H1734.12C1731.12 58.4069 1722.4 63.7588 1712.11 63.7588C1701.83 63.7588 1693.11 58.4069 1690.1 51.0071H1687.86C1684.86 58.4069 1676.14 63.7588 1665.86 63.7588C1655.57 63.7588 1646.85 58.4069 1643.85 51.0071H1641.61C1638.6 58.4069 1629.89 63.7588 1619.6 63.7588C1609.31 63.7588 1600.6 58.4069 1597.59 51.0071H1595.35C1592.35 58.4069 1583.63 63.7588 1573.34 63.7588C1563.06 63.7588 1554.34 58.4069 1551.34 51.0071H1549.09C1546.09 58.4069 1537.37 63.7588 1527.09 63.7588C1516.8 63.7588 1508.08 58.4069 1505.08 51.0071H1502.84C1499.83 58.4069 1491.12 63.7588 1480.83 63.7588C1470.54 63.7588 1461.83 58.4069 1458.82 51.0071H1456.58C1453.58 58.4069 1444.86 63.7588 1434.57 63.7588C1424.29 63.7588 1415.57 58.4069 1412.57 51.0071H1410.33C1407.32 58.4069 1398.6 63.7588 1388.32 63.7588C1378.03 63.7588 1369.31 58.4069 1366.31 51.0071H1364.07C1361.06 58.4069 1352.35 63.7588 1342.06 63.7588C1331.77 63.7588 1323.06 58.4069 1320.05 51.0071H1317.81C1314.81 58.4069 1306.09 63.7588 1295.8 63.7588C1285.52 63.7588 1276.8 58.4069 1273.8 51.0071H1271.56C1268.55 58.4069 1259.83 63.7588 1249.55 63.7588C1239.26 63.7588 1230.54 58.4069 1227.54 51.0071H1225.3C1222.29 58.4069 1213.58 63.7588 1203.29 63.7588C1193.01 63.7588 1184.29 58.4069 1181.28 51.0071H1179.04C1176.04 58.4069 1167.32 63.7588 1157.04 63.7588C1146.75 63.7588 1138.03 58.4069 1135.03 51.0071H1132.79C1129.78 58.4069 1121.07 63.7588 1110.78 63.7588C1100.49 63.7588 1091.78 58.4069 1088.77 51.0071H1086.53C1083.53 58.4069 1074.81 63.7588 1064.52 63.7588C1054.24 63.7588 1045.52 58.4069 1042.51 51.0071H1040.27C1037.27 58.4069 1028.55 63.7588 1018.27 63.7588C1007.98 63.7588 999.263 58.4069 996.258 51.0071H994.018C991.013 58.4069 982.296 63.7588 972.01 63.7588C961.723 63.7588 953.006 58.4069 950.002 51.0071H947.761C944.757 58.4069 936.04 63.7588 925.753 63.7588C915.467 63.7588 906.75 58.4069 903.745 51.0071H901.505C898.5 58.4069 889.783 63.7588 879.497 63.7588C869.21 63.7588 860.494 58.4069 857.489 51.0071H855.248C852.244 58.4069 843.527 63.7588 833.24 63.7588C822.954 63.7588 814.237 58.4069 811.233 51.0071H808.992C805.987 58.4069 797.271 63.7588 786.984 63.7588C776.697 63.7588 767.981 58.4069 764.976 51.0071H762.736C759.731 58.4069 751.014 63.7588 740.728 63.7588C730.441 63.7588 721.724 58.4069 718.72 51.0071H716.479C713.474 58.4069 704.758 63.7588 694.471 63.7588C684.185 63.7588 675.468 58.4069 672.463 51.0071H670.223C667.218 58.4069 658.501 63.7588 648.215 63.7588C637.928 63.7588 629.212 58.4069 626.207 51.0071H623.966C620.962 58.4069 612.245 63.7588 601.958 63.7588C591.672 63.7588 582.955 58.4069 579.95 51.0071H577.71C574.705 58.4069 565.989 63.7588 555.702 63.7588C545.415 63.7588 536.699 58.4069 533.694 51.0071H531.454C528.449 58.4069 519.732 63.7588 509.446 63.7588C499.159 63.7588 490.442 58.4069 487.438 51.0071H485.197C482.192 58.4069 473.476 63.7588 463.189 63.7588C452.903 63.7588 444.186 58.4069 441.181 51.0071H438.941C435.936 58.4069 427.219 63.7588 416.933 63.7588C406.646 63.7588 397.93 58.4069 394.925 51.0071H392.684C389.68 58.4069 380.963 63.7588 370.676 63.7588C360.39 63.7588 351.673 58.4069 348.668 51.0071H346.428C343.423 58.4069 334.707 63.7588 324.42 63.7588C314.133 63.7588 305.417 58.4069 302.412 51.0071H300.171C297.167 58.4069 288.45 63.7588 278.164 63.7588C267.877 63.7588 259.16 58.4069 256.156 51.0071H253.915C250.91 58.4069 242.194 63.7588 231.907 63.7588C221.621 63.7588 212.904 58.4069 209.899 51.0071H207.659C204.654 58.4069 195.937 63.7588 185.651 63.7588C175.364 63.7588 166.647 58.4069 163.643 51.0071H161.402C158.398 58.4069 149.681 63.7588 139.394 63.7588C129.108 63.7588 120.391 58.4069 117.386 51.0071H115.146C112.141 58.4069 103.425 63.7588 93.1379 63.7588C82.8513 63.7588 74.1346 58.4069 71.13 51.0071H68.8894C65.8848 58.4069 57.1681 63.7588 46.8815 63.7588C36.5949 63.7588 27.8782 58.4069 24.8736 51.0071H22.633C19.6284 58.4069 10.9117 63.7588 0.625087 63.7588C0.416064 63.7588 0.207693 63.7564 0 63.752V26.9041C0.207686 26.8997 0.41607 26.8983 0.625087 26.8983C1.08679 26.8983 1.54527 26.9102 2.00028 26.9315V0H1802.25V27.0252Z" fill="white"/>
</svg>
