<svg width="73" height="67" viewBox="0 0 73 67" fill="none" xmlns="http://www.w3.org/2000/svg">
<path d="M59.5383 41.5493C61.9582 43.4994 64.6978 45.0158 67.6356 46.0311C69.7225 46.8357 71.243 43.1883 69.0427 42.4194C66.1311 41.2901 63.0426 40.6848 59.9199 40.6315C59.8104 40.624 59.7012 40.651 59.6078 40.7087C59.5144 40.7665 59.4416 40.8521 59.3994 40.9534C59.3573 41.0548 59.348 41.1668 59.3729 41.2737C59.3978 41.3806 59.4557 41.477 59.5383 41.5493Z" fill="#EFBA1D"/>
<path d="M55.4479 50.2805C56.1292 51.7615 56.9752 53.161 57.9701 54.4525C58.9662 55.7651 60.0627 56.9985 61.2496 58.1416C61.4301 58.3287 61.6519 58.471 61.8973 58.5569C62.1427 58.6428 62.4049 58.67 62.6627 58.6363C63.1678 58.5393 63.6292 58.2847 63.9805 57.9092C64.7258 57.1463 65.012 55.9842 64.1653 55.1438C63.0115 53.9746 61.7652 52.9004 60.4387 51.9314C59.1311 50.9591 57.7168 50.1393 56.2231 49.4879C56.1128 49.4416 55.9912 49.4296 55.874 49.4533C55.7568 49.477 55.6495 49.5354 55.5659 49.6208C55.4823 49.7063 55.4264 49.8149 55.4054 49.9326C55.3843 50.0502 55.3992 50.1714 55.4479 50.2805Z" fill="#EFBA1D"/>
<path d="M46.6292 54.4762C46.7051 56.1068 46.9713 57.7229 47.4222 59.2918C47.8681 60.8769 48.4363 62.4252 49.1216 63.9226C50.0756 66.1576 53.8917 64.3875 52.9198 62.2419C51.763 59.4229 49.8371 56.1152 47.6548 54.0113C47.5694 53.9217 47.4583 53.8609 47.3368 53.8373C47.2153 53.8137 47.0895 53.8285 46.9767 53.8796C46.864 53.9307 46.77 54.0156 46.7077 54.1225C46.6455 54.2294 46.618 54.353 46.6292 54.4762Z" fill="#EFBA1D"/>
<path d="M37.3632 56.4971C36.3615 59.1015 36.1707 62.7192 36.3794 65.4786C36.4927 67.6122 40.6308 67.4752 40.5056 65.2343C40.4221 62.4331 39.8079 58.9346 38.5021 56.4494C38.4446 56.3461 38.3595 56.2609 38.2564 56.2032C38.1532 56.1454 38.0361 56.1175 37.918 56.1224C37.7999 56.1274 37.6854 56.165 37.5875 56.2312C37.4895 56.2973 37.4119 56.3894 37.3632 56.4971Z" fill="#EFBA1D"/>
<path d="M27.0717 55.7102C25.1696 57.9869 23.6015 61.5986 22.7607 64.4891C22.4209 65.6036 23.2079 66.4857 24.2096 66.8135C24.45 66.9095 24.7072 66.9562 24.966 66.9506C25.2247 66.9451 25.4797 66.8874 25.7157 66.7812C25.9517 66.6749 26.1638 66.5222 26.3394 66.3322C26.515 66.1422 26.6505 65.9187 26.7378 65.6751C27.7037 62.8203 28.4491 58.9822 28.151 56.0499C28.1489 55.9248 28.1075 55.8035 28.0327 55.7032C27.9578 55.6029 27.8533 55.5287 27.7339 55.4911C27.6145 55.4535 27.4862 55.4545 27.3674 55.4938C27.2485 55.5331 27.1451 55.6088 27.0717 55.7102Z" fill="#EFBA1D"/>
<path d="M17.8356 51.8481C15.4505 53.1772 12.8866 55.7459 11.1992 57.9451C10.5254 58.7914 10.913 59.8224 11.6643 60.4423C11.839 60.6047 12.0446 60.7305 12.2688 60.8123C12.493 60.8941 12.7313 60.9302 12.9696 60.9186C13.208 60.9069 13.4416 60.8477 13.6568 60.7444C13.8719 60.6411 14.0641 60.4958 14.2222 60.3171C16.011 58.1775 17.9071 55.1141 18.6346 52.4918C18.663 52.3868 18.6602 52.2758 18.6266 52.1724C18.593 52.0689 18.53 51.9775 18.4453 51.9093C18.3605 51.841 18.2578 51.7989 18.1495 51.788C18.0413 51.7772 17.9322 51.798 17.8356 51.8481Z" fill="#EFBA1D"/>
<path d="M12.6779 44.8157C9.72639 45.1494 6.05937 46.6036 3.43581 48.0578C2.40427 48.6062 2.36849 49.8101 2.86935 50.7577C2.97148 50.999 3.12183 51.2169 3.31116 51.3981C3.50049 51.5793 3.72483 51.7199 3.97044 51.8114C4.21605 51.9029 4.47776 51.9434 4.73955 51.9302C5.00134 51.9171 5.25771 51.8507 5.49293 51.7351C8.17611 50.3464 11.3542 48.0698 13.1788 45.7752C13.2484 45.6851 13.2907 45.5769 13.3008 45.4635C13.3108 45.3501 13.2881 45.2362 13.2355 45.1353C13.1828 45.0343 13.1023 44.9506 13.0035 44.894C12.9046 44.8373 12.7917 44.8101 12.6779 44.8157Z" fill="#EFBA1D"/>
<path d="M11.3959 34.922C8.55772 33.9982 4.62833 33.7658 1.62913 33.9982C-0.708228 34.1055 -0.475693 38.4205 1.97495 38.2238C4.99801 38.0688 8.80218 37.3119 11.4496 36.0067C11.5516 35.9544 11.6364 35.8737 11.6937 35.7745C11.751 35.6752 11.7785 35.5615 11.7728 35.4471C11.7672 35.3326 11.7286 35.2222 11.6618 35.129C11.5949 35.0359 11.5026 34.964 11.3959 34.922Z" fill="#EFBA1D"/>
<path d="M12.8806 25.9939C10.4944 23.8687 7.74028 22.1964 4.75355 21.0591C2.6547 20.1711 1.13423 24.1881 3.34637 25.0344C6.04745 26.1668 9.65485 27.0727 12.499 27.0071C12.6127 26.9989 12.7216 26.9584 12.813 26.8903C12.9043 26.8221 12.9742 26.7292 13.0144 26.6226C13.0545 26.516 13.0633 26.4001 13.0396 26.2887C13.0159 26.1773 12.9607 26.075 12.8806 25.9939Z" fill="#EFBA1D"/>
<path d="M16.6788 17.8349C16.1153 16.3022 15.3792 14.8386 14.4846 13.4723C13.5914 12.0897 12.5948 10.7768 11.5033 9.54469C11.3356 9.34704 11.1247 9.19051 10.8869 9.08718C10.6492 8.98385 10.3908 8.93647 10.1319 8.9487C9.61937 9.00895 9.1392 9.23014 8.76044 9.58045C7.95549 10.2778 7.56791 11.4221 8.36691 12.322C9.42551 13.5815 10.5862 14.7516 11.8372 15.8205C13.0658 16.8905 14.4144 17.8145 15.856 18.5739C15.9628 18.6263 16.0828 18.6455 16.2006 18.6291C16.3184 18.6128 16.4286 18.5616 16.5171 18.4821C16.6055 18.4027 16.6682 18.2986 16.6971 18.1833C16.7259 18.0679 16.7195 17.9466 16.6788 17.8349Z" fill="#EFBA1D"/>
<path d="M25.5036 12.5961C25.4281 10.9654 25.1619 9.34923 24.7105 7.78046C24.2646 6.19336 23.6964 4.64314 23.0112 3.14367C22.0631 0.908716 18.2411 2.6788 19.213 4.83032C20.4055 7.64935 22.2957 10.9571 24.478 13.0609C24.5633 13.1505 24.6745 13.2113 24.7959 13.2349C24.9174 13.2585 25.0433 13.2437 25.156 13.1926C25.2687 13.1416 25.3627 13.0567 25.425 12.9498C25.4873 12.8429 25.5147 12.7193 25.5036 12.5961Z" fill="#EFBA1D"/>
<path d="M34.9185 11.4041C35.9143 8.57311 36.1111 4.64554 35.8964 1.64772C35.7831 -0.66472 31.6451 -0.515723 31.7703 1.92187C31.8537 4.95545 32.4739 8.7519 33.7797 11.4577C33.8228 11.5777 33.9033 11.6808 34.0094 11.7517C34.1154 11.8226 34.2415 11.8577 34.369 11.8517C34.4964 11.8457 34.6186 11.7989 34.7175 11.7184C34.8165 11.6378 34.8869 11.5276 34.9185 11.4041Z" fill="#EFBA1D"/>
<path d="M44.4886 12.3581C46.3907 10.0815 47.9589 6.46977 48.7936 3.58518C49.1395 2.46472 48.3464 1.58266 47.3507 1.25487C47.1102 1.16052 46.8532 1.1152 46.595 1.12156C46.3367 1.12792 46.0823 1.18582 45.8467 1.29189C45.6112 1.39795 45.3992 1.55001 45.2233 1.73914C45.0474 1.92828 44.9112 2.15066 44.8225 2.3932C43.8566 5.24799 43.1112 9.08616 43.4094 12.0184C43.4114 12.1435 43.4528 12.2648 43.5276 12.3651C43.6025 12.4654 43.707 12.5396 43.8264 12.5772C43.9459 12.6148 44.0741 12.6139 44.1929 12.5745C44.3117 12.5352 44.4152 12.4595 44.4886 12.3581Z" fill="#EFBA1D"/>
<path d="M53.1881 16.1184C55.7818 14.6821 58.5544 11.9048 60.4088 9.52084C61.1363 8.60898 60.7189 7.49449 59.902 6.81506C59.7115 6.63863 59.4877 6.50201 59.2436 6.41323C58.9996 6.32445 58.7403 6.2853 58.4809 6.29807C58.2215 6.31084 57.9673 6.37527 57.7331 6.48759C57.499 6.59991 57.2897 6.75785 57.1175 6.95213C55.1856 9.26457 53.1106 12.5842 52.3473 15.4211C52.3153 15.5325 52.3164 15.6507 52.3506 15.7615C52.3847 15.8722 52.4504 15.9706 52.5396 16.0445C52.6288 16.1185 52.7377 16.1649 52.8528 16.1781C52.968 16.1912 53.0845 16.1705 53.1881 16.1184Z" fill="#EFBA1D"/>
<path d="M58.626 23.9734C61.5775 23.6397 65.2445 22.1855 67.8681 20.7313C68.8996 20.183 68.9354 18.985 68.4286 18.0314C68.3265 17.7901 68.1761 17.5722 67.9868 17.391C67.7975 17.2099 67.5731 17.0692 67.3275 16.9777C67.0819 16.8862 66.8202 16.8458 66.5584 16.8589C66.2966 16.872 66.0402 16.9384 65.805 17.054C63.1278 18.4427 59.9497 20.7193 58.1192 23.0139C58.0491 23.1044 58.0067 23.2132 57.9968 23.3272C57.987 23.4411 58.0101 23.5556 58.0636 23.6567C58.117 23.7579 58.1985 23.8416 58.2982 23.8978C58.3979 23.9539 58.5117 23.9802 58.626 23.9734Z" fill="#EFBA1D"/>
<path d="M61.6073 32.568C64.4396 33.4918 68.3749 33.7242 71.3682 33.4918C73.7055 33.3845 73.4789 29.0636 71.0283 29.2662C67.9993 29.4152 64.1951 30.1781 61.5477 31.4833C61.4459 31.5362 61.3615 31.6173 61.3046 31.7169C61.2478 31.8165 61.2209 31.9304 61.2272 32.0449C61.2335 32.1594 61.2727 32.2697 61.3401 32.3624C61.4076 32.4552 61.5003 32.5266 61.6073 32.568Z" fill="#EFBA1D"/>
<path d="M36.2816 54.363C48.4823 54.3247 58.3441 45.0906 58.3084 33.7381C58.2727 22.3856 48.3531 13.2136 36.1523 13.2519C23.9516 13.2902 14.0898 22.5243 14.1255 33.8768C14.1612 45.2293 24.0808 54.4013 36.2816 54.363Z" fill="#EFBA1D"/>
<path d="M28.1808 30.589C27.5095 30.6416 26.8448 30.4258 26.3328 29.9888C25.8207 29.5518 25.5031 28.9295 25.4499 28.2587C25.4466 28.2242 25.4502 28.1894 25.4604 28.1563C25.4707 28.1233 25.4873 28.0926 25.5095 28.066C25.5317 28.0394 25.5589 28.0174 25.5896 28.0014C25.6203 27.9854 25.6539 27.9756 25.6884 27.9726C25.7236 27.9693 25.7592 27.9731 25.793 27.9836C25.8268 27.9941 25.8582 28.0112 25.8854 28.0339C25.9125 28.0567 25.9349 28.0845 25.9513 28.1159C25.9676 28.1473 25.9776 28.1817 25.9805 28.2169C25.99 28.4877 26.0544 28.7537 26.1697 28.9988C26.285 29.244 26.4489 29.4632 26.6514 29.6432C26.8539 29.8233 27.0909 29.9604 27.3479 30.0462C27.605 30.132 27.8768 30.1649 28.1469 30.1427C28.417 30.1205 28.6798 30.0437 28.9194 29.9171C29.159 29.7904 29.3704 29.6165 29.5408 29.4058C29.7112 29.1951 29.837 28.9521 29.9107 28.6914C29.9844 28.4307 30.0044 28.1578 29.9696 27.8891C29.9618 27.8519 29.962 27.8133 29.9703 27.7762C29.9786 27.739 29.9947 27.704 30.0176 27.6735C30.0404 27.643 30.0695 27.6178 30.1029 27.5994C30.1363 27.5811 30.1732 27.57 30.2112 27.567C30.2492 27.5641 30.2874 27.5692 30.3232 27.5821C30.3591 27.595 30.3918 27.6154 30.4191 27.642C30.4464 27.6685 30.4678 27.7005 30.4818 27.736C30.4958 27.7714 30.5021 27.8094 30.5002 27.8474C30.5288 28.1798 30.4914 28.5146 30.3902 28.8325C30.289 29.1504 30.1259 29.4452 29.9104 29.6999C29.6949 29.9547 29.4311 30.1643 29.1343 30.3169C28.8375 30.4695 28.5134 30.5619 28.1808 30.589Z" fill="#4B4B4B"/>
<path d="M43.8029 28.8549C43.1314 28.906 42.4669 28.6898 41.9542 28.2532C41.4416 27.8167 41.1223 27.1954 41.066 26.5246C41.0605 26.4535 41.0834 26.383 41.1298 26.3288C41.1763 26.2746 41.2423 26.2411 41.3135 26.2355C41.3846 26.23 41.4551 26.253 41.5093 26.2993C41.5636 26.3457 41.5971 26.4117 41.6027 26.4829C41.6122 26.7536 41.6765 27.0196 41.7918 27.2648C41.9071 27.5099 42.071 27.7292 42.2735 27.9092C42.476 28.0892 42.713 28.2263 42.97 28.3121C43.2271 28.398 43.4989 28.4308 43.769 28.4086C44.0392 28.3864 44.302 28.3096 44.5415 28.183C44.7811 28.0563 44.9925 27.8824 45.1629 27.6718C45.3333 27.4611 45.4591 27.218 45.5328 26.9573C45.6065 26.6967 45.6266 26.4237 45.5917 26.1551C45.5838 26.118 45.5839 26.0797 45.5919 26.0426C45.5999 26.0055 45.6158 25.9706 45.6383 25.9401C45.6608 25.9096 45.6896 25.8842 45.7226 25.8656C45.7557 25.8471 45.7923 25.8357 45.8301 25.8323C45.8679 25.8289 45.906 25.8336 45.9418 25.8459C45.9777 25.8583 46.0105 25.8782 46.0381 25.9042C46.0657 25.9302 46.0875 25.9617 46.102 25.9968C46.1166 26.0318 46.1235 26.0695 46.1223 26.1074C46.1785 26.779 45.9658 27.4455 45.531 27.9606C45.0962 28.4756 44.4747 28.7973 43.8029 28.8549Z" fill="#4B4B4B"/>
<path d="M36.4808 31.2147C35.8093 31.2658 35.1448 31.0495 34.6321 30.613C34.1194 30.1765 33.8002 29.5552 33.7439 28.8844C33.7408 28.8492 33.7446 28.8137 33.7552 28.7799C33.7658 28.7462 33.7829 28.7149 33.8056 28.6877C33.8283 28.6606 33.8562 28.6382 33.8875 28.6219C33.9189 28.6055 33.9531 28.5955 33.9884 28.5923C34.0236 28.5892 34.0591 28.593 34.0929 28.6036C34.1266 28.6142 34.158 28.6313 34.1851 28.654C34.2122 28.6767 34.2346 28.7045 34.251 28.7359C34.2674 28.7672 34.2774 28.8015 34.2806 28.8367C34.29 29.1074 34.3544 29.3734 34.4697 29.6186C34.585 29.8637 34.7489 30.083 34.9514 30.263C35.1539 30.443 35.3909 30.5801 35.6479 30.6659C35.905 30.7518 36.1768 30.7846 36.4469 30.7624C36.717 30.7402 36.9798 30.6635 37.2194 30.5368C37.459 30.4102 37.6704 30.2362 37.8408 30.0256C38.0112 29.8149 38.137 29.5719 38.2107 29.3112C38.2844 29.0505 38.3044 28.7775 38.2696 28.5089C38.2663 28.474 38.2701 28.4387 38.2807 28.4053C38.2913 28.3719 38.3085 28.3409 38.3313 28.3142C38.3541 28.2875 38.382 28.2657 38.4134 28.25C38.4448 28.2343 38.479 28.2251 38.514 28.2228C38.5843 28.2179 38.6537 28.2407 38.7072 28.2864C38.7607 28.3321 38.7941 28.3971 38.8002 28.4672C38.8548 29.1384 38.6416 29.804 38.207 30.3188C37.7725 30.8335 37.152 31.1555 36.4808 31.2147Z" fill="#4B4B4B"/>
</svg>
