<svg width="50" height="41" viewBox="0 0 50 41" fill="none" xmlns="http://www.w3.org/2000/svg">
<path d="M3.696 38.2565L0 7.63435C0.0226145 7.273 0.152589 6.92635 0.373545 6.63805C0.594501 6.34975 0.896566 6.13268 1.24172 6.01418C1.58687 5.89568 1.9597 5.88104 2.31323 5.9721C2.66676 6.06317 2.98517 6.25588 3.22845 6.52595L11.4986 15.794C11.6832 15.9996 11.912 16.1614 12.1682 16.2675C12.4244 16.3735 12.7015 16.4211 12.9787 16.4067C13.256 16.3923 13.5264 16.3162 13.77 16.1841C14.0136 16.052 14.2241 15.8674 14.3859 15.6437L25.1264 0.764712C25.3123 0.50706 25.5626 0.301712 25.8527 0.168782C26.1428 0.0358524 26.4628 -0.020099 26.7812 0.00641755C27.0997 0.0329341 27.4058 0.141007 27.6695 0.320044C27.9331 0.49908 28.1454 0.742945 28.2853 1.02773L35.5067 15.7627C35.6503 16.0452 35.8654 16.2859 36.1309 16.4613C36.3965 16.6367 36.7034 16.7409 37.0217 16.7636C37.34 16.7863 37.6588 16.7268 37.9469 16.5909C38.2351 16.455 38.4827 16.2473 38.6657 15.9881L46.6262 4.32791C46.8408 4.0104 47.1504 3.76752 47.5115 3.63341C47.8725 3.49929 48.2669 3.48068 48.6392 3.58018C49.0115 3.67969 49.343 3.89231 49.587 4.18817C49.8311 4.48403 49.9755 4.84826 50 5.22967L47.2391 39.0456C47.2558 39.3001 47.2189 39.5552 47.1306 39.7948C47.0423 40.0344 46.9046 40.2531 46.7262 40.4369C46.5479 40.6208 46.3328 40.7657 46.0948 40.8626C45.8567 40.9594 45.6009 41.006 45.3437 40.9994L5.45869 40.1728C4.96868 40.15 4.5078 39.9355 4.17729 39.5762C3.84679 39.2169 3.6737 38.7422 3.696 38.2565Z" fill="#EFBA1D"/>
</svg>
