<svg width="148" height="149" viewBox="0 0 148 149" fill="none" xmlns="http://www.w3.org/2000/svg">
<path opacity="0.2" d="M79.2757 86.467C100.641 64.6248 99.6122 38.447 95.3742 20.8465C95.1949 20.0966 95.2249 19.3118 95.4609 18.5777C95.6969 17.8436 96.1298 17.1883 96.7126 16.6834C97.2953 16.1784 98.0055 15.8431 98.7657 15.7139C99.5259 15.5848 100.307 15.6668 101.024 15.951C112.932 20.4159 125.309 28.9675 137.323 44.0097C137.495 44.2296 137.644 44.466 137.768 44.7155C140.156 49.2869 162.685 95.0117 128.739 129.741C92.9513 166.326 40.5034 145.546 18.2224 111.017L18.1366 110.956C17.7086 110.265 17.4903 109.465 17.5083 108.653C17.5263 107.841 17.7798 107.051 18.2381 106.38C18.6963 105.709 19.3395 105.186 20.0896 104.873C20.8397 104.561 21.6644 104.473 22.4634 104.621C41.8407 108.227 62.3649 103.79 79.2757 86.467Z" fill="#FF9689"/>
<g opacity="0.05" style="mix-blend-mode:multiply">
<path d="M131.35 71.081C131.784 70.8631 132.261 70.7452 132.746 70.7361C133.232 70.7269 133.713 70.8268 134.155 71.0282C134.597 71.2296 134.988 71.5275 135.299 71.9C135.61 72.2725 135.834 72.71 135.954 73.1805C138.467 83.318 142.63 111.841 116.592 131.318C89.515 151.586 54.452 141.013 33.622 124.424C33.0497 123.966 32.6495 123.327 32.4865 122.612C32.3234 121.897 32.4071 121.148 32.724 120.487C33.0409 119.825 33.5723 119.291 34.2317 118.97C34.8911 118.649 35.6396 118.561 36.3554 118.72C41.4835 119.813 46.7521 120.619 51.1232 121.776C59.4307 123.973 68.4902 124.271 76.4278 120.943C89.751 115.357 97.0264 101.142 106.495 90.2602C113.457 82.3153 121.899 75.8012 131.35 71.081Z" fill="#FF0000"/>
</g>
<path d="M68.6244 24.789L74.8701 7.57536C75.0268 7.14244 75.0558 6.67366 74.9539 6.22471C74.8519 5.77576 74.6232 5.36548 74.2949 5.04269C73.9666 4.71989 73.5527 4.49814 73.1021 4.40373C72.6515 4.30931 72.1832 4.34622 71.753 4.51009L55.4593 10.694C55.1 10.8291 54.7138 10.877 54.3324 10.8335C53.951 10.7901 53.5854 10.6566 53.2658 10.4441L38.2376 0.410347C37.8456 0.146283 37.3847 0.00361126 36.9121 6.14215e-05C36.4395 -0.00348841 35.9763 0.132237 35.5804 0.390383C35.1846 0.648531 34.8736 1.01759 34.6863 1.45148C34.499 1.88536 34.4437 2.36484 34.5273 2.82997L37.1254 17.3196C37.1978 17.7384 37.1596 18.1689 37.0145 18.5684C36.8694 18.9678 36.6224 19.3224 36.298 19.5971L25.0701 28.8352C24.7159 29.1256 24.4521 29.511 24.3096 29.9463C24.1671 30.3815 24.1519 30.8484 24.2657 31.292C24.3795 31.7356 24.6176 32.1375 24.952 32.4504C25.2865 32.7633 25.7032 32.9742 26.1534 33.0582L39.7519 35.6677C40.2208 35.7608 40.6516 35.9905 40.9901 36.328C41.3287 36.6655 41.5598 37.0957 41.6543 37.5643L44.2437 50.7971C44.3326 51.25 44.5499 51.6678 44.8698 52.0005C45.1896 52.3333 45.5984 52.567 46.0474 52.6737C46.4965 52.7804 46.9667 52.7556 47.4021 52.6023C47.8374 52.449 48.2194 52.1737 48.5025 51.8092L57.281 40.4135C57.5403 40.0806 57.8821 39.8213 58.2725 39.6611C58.6628 39.501 59.0883 39.4456 59.5067 39.5004L72.8986 41.2509C73.3484 41.3113 73.8061 41.2431 74.2187 41.0543C74.6314 40.8655 74.9822 40.5638 75.2306 40.1841C75.4791 39.8043 75.6149 39.362 75.6226 38.9082C75.6303 38.4545 75.5094 38.0079 75.274 37.62L68.7866 26.8885C68.6033 26.5733 68.4935 26.2208 68.4654 25.8573C68.4373 25.4938 68.4917 25.1286 68.6244 24.789Z" fill="#ACDEE7"/>
<path d="M24.6316 65.9548L25.1713 54.9549C25.1865 54.6783 25.1215 54.4032 24.9842 54.1626C24.847 53.922 24.6431 53.7261 24.3972 53.5984C24.1514 53.4708 23.874 53.4169 23.5982 53.443C23.3224 53.4692 23.06 53.5744 22.8426 53.746L14.5678 60.1751C14.3883 60.3179 14.1765 60.4146 13.951 60.4566C13.7255 60.4987 13.4932 60.4849 13.2742 60.4164L2.86271 57.2996C2.59103 57.2161 2.30072 57.215 2.0284 57.2963C1.75607 57.3776 1.5139 57.5378 1.33244 57.7565C1.15099 57.9752 1.03837 58.2428 1.00877 58.5255C0.979154 58.8081 1.03382 59.0932 1.16601 59.3448L5.1608 67.2842C5.28398 67.5104 5.34254 67.7662 5.33007 68.0235C5.31759 68.2808 5.23458 68.5298 5.0901 68.7431L0.249636 76.0704C0.094372 76.2984 0.00790119 76.5662 0.000531139 76.842C-0.00684046 77.1178 0.0651362 77.3898 0.207996 77.6258C0.350857 77.8618 0.558604 78.0517 0.806358 78.1731C1.05411 78.2944 1.33149 78.3419 1.60551 78.3101L9.88495 77.4043C10.1738 77.372 10.4657 77.428 10.7222 77.5648C10.9787 77.7016 11.1877 77.9129 11.3217 78.1708L15.1977 85.2492C15.3324 85.503 15.5391 85.7113 15.7918 85.848C16.0446 85.9847 16.332 86.0435 16.6181 86.0172C16.9042 85.9909 17.1762 85.8806 17.3998 85.7002C17.6233 85.5197 17.7886 85.2772 17.8747 85.0031L20.9131 76.9074C20.9981 76.6696 21.1456 76.4592 21.3401 76.2982C21.5347 76.1373 21.7691 76.0318 22.0186 75.9928L30.0448 74.626C30.3113 74.5763 30.5588 74.4532 30.7592 74.2705C30.9596 74.0878 31.105 73.8528 31.1791 73.5919C31.2532 73.3311 31.253 73.0548 31.1786 72.794C31.1041 72.5333 30.9584 72.2984 30.7577 72.116L25.1362 67.0912C24.9705 66.9532 24.8388 66.7789 24.7513 66.5819C24.6638 66.3848 24.6228 66.1703 24.6316 65.9548Z" fill="#EFBA1D"/>
</svg>
