<svg width="177" height="81" viewBox="0 0 177 81" fill="none" xmlns="http://www.w3.org/2000/svg">
<path d="M153.951 29.105L154.82 18.4855C154.837 18.2164 154.931 17.9586 155.091 17.7441C155.25 17.5295 155.467 17.3675 155.716 17.2781C155.965 17.1888 156.234 17.1759 156.49 17.2411C156.746 17.3062 156.979 17.4467 157.158 17.645L164.115 24.9024C164.272 25.0579 164.461 25.175 164.669 25.2448C164.876 25.3146 165.096 25.3352 165.313 25.3052L175.486 23.6994C175.737 23.6693 175.992 23.7119 176.221 23.8223C176.45 23.9327 176.644 24.1066 176.782 24.324C176.92 24.5415 176.995 24.7938 176.999 25.0523C177.004 25.3109 176.937 25.5653 176.807 25.7865L172.01 32.8051C171.869 33.0091 171.785 33.2494 171.768 33.4994C171.752 33.7495 171.804 33.9996 171.917 34.222L175.502 41.815C175.612 42.054 175.655 42.3197 175.624 42.5817C175.594 42.8437 175.491 43.0914 175.329 43.2962C175.167 43.501 174.952 43.6547 174.708 43.7396C174.463 43.8245 174.2 43.8372 173.949 43.7763L166.288 41.8189C166.022 41.7524 165.743 41.7685 165.487 41.8651C165.23 41.9618 165.008 42.1347 164.849 42.3615L160.361 48.7151C160.205 48.9279 159.993 49.0908 159.75 49.1848C159.506 49.2787 159.242 49.2999 158.987 49.2458C158.731 49.1917 158.496 49.0645 158.308 48.8792C158.121 48.6939 157.988 48.458 157.927 48.1991L156.08 40.0377C156.026 39.7969 155.912 39.5742 155.749 39.3915C155.586 39.2088 155.38 39.0723 155.15 38.9953L147.799 36.637C147.553 36.5577 147.333 36.4091 147.165 36.2083C146.997 36.0075 146.888 35.7625 146.85 35.5016C146.811 35.2407 146.846 34.9743 146.949 34.733C147.052 34.4917 147.219 34.2852 147.432 34.1372L153.366 30.0581C153.523 29.9494 153.656 29.8087 153.757 29.6446C153.857 29.4806 153.923 29.2969 153.951 29.105Z" fill="#ACDEE7"/>
<path opacity="0.5" d="M92.3821 12.6405L101.802 0.773212C102.039 0.471921 102.36 0.243585 102.725 0.115613C103.091 -0.0123591 103.486 -0.0345305 103.863 0.0517458C104.241 0.138022 104.584 0.329089 104.853 0.60202C105.121 0.874951 105.303 1.21817 105.376 1.59047L108.231 15.5823C108.294 15.8916 108.432 16.1814 108.634 16.4271C108.835 16.6729 109.094 16.8675 109.389 16.9945L123.201 23.0084C123.561 23.1652 123.866 23.4221 124.077 23.7472C124.289 24.0724 124.398 24.4515 124.391 24.8376C124.384 25.2237 124.261 25.5998 124.038 25.9191C123.815 26.2385 123.501 26.487 123.136 26.634L111.685 31.1795C111.352 31.3123 111.061 31.5295 110.842 31.8086C110.624 32.0878 110.485 32.4187 110.44 32.7673L108.909 44.5479C108.856 44.9195 108.698 45.2694 108.451 45.5573C108.205 45.8452 107.88 46.0594 107.515 46.175C107.15 46.2907 106.76 46.3031 106.389 46.2109C106.018 46.1188 105.681 45.9257 105.418 45.6541L97.5319 37.3904C97.2537 37.105 96.8952 36.9067 96.5014 36.8205C96.1076 36.7343 95.6961 36.7641 95.3186 36.906L84.7923 40.9211C84.4309 41.059 84.0368 41.0923 83.6574 41.0169C83.278 40.9414 82.9292 40.7606 82.6529 40.4958C82.3766 40.2311 82.1845 39.8938 82.0996 39.5243C82.0146 39.1548 82.0403 38.7687 82.1737 38.4123L86.3323 27.3377C86.4579 27.0149 86.4934 26.6655 86.4351 26.3255C86.3768 25.9856 86.2268 25.6673 86.0007 25.4035L78.7834 16.8889C78.5399 16.6031 78.3846 16.2552 78.3353 15.8858C78.286 15.5163 78.3448 15.1403 78.505 14.8014C78.6651 14.4626 78.9199 14.1747 79.2399 13.9712C79.5599 13.7677 79.932 13.6569 80.313 13.6516L90.8223 13.435C91.1258 13.4237 91.4231 13.3466 91.6929 13.2092C91.9627 13.0718 92.1981 12.8775 92.3821 12.6405Z" fill="#EFBA1D"/>
<path d="M14.7721 41.3487L17.7597 21.1288C17.8325 20.6176 18.0518 20.1381 18.3911 19.748C18.7305 19.3578 19.1754 19.0736 19.6727 18.9295C20.1699 18.7853 20.6983 18.7874 21.1943 18.9353C21.6902 19.0833 22.1327 19.3709 22.4686 19.7636L35.1785 34.4746C35.4707 34.8047 35.8382 35.06 36.2501 35.2189C36.6619 35.3779 37.106 35.4358 37.5451 35.3879L57.695 33.4864C58.2244 33.4309 58.7583 33.5332 59.2291 33.7805C59.6999 34.0278 60.0867 34.4088 60.3401 34.8755C60.5935 35.3421 60.7023 35.8733 60.6529 36.4018C60.6034 36.9303 60.3977 37.4324 60.062 37.8445L49.7362 50.7141C49.4327 51.0832 49.2363 51.528 49.1682 52.0004C49.1002 52.4728 49.1632 52.9546 49.3503 53.3938L55.4704 68.355C55.6698 68.828 55.7288 69.3481 55.6406 69.8537C55.5524 70.3592 55.3207 70.829 54.9729 71.2073C54.6251 71.5856 54.1759 71.8565 53.6785 71.9879C53.181 72.1193 52.6563 72.1056 52.1665 71.9485L37.3751 67.2956C36.8603 67.1365 36.3096 67.134 35.7933 67.2883C35.277 67.4426 34.8184 67.7469 34.4761 68.1622L24.9132 79.8023C24.5768 80.1785 24.1418 80.4536 23.6572 80.5965C23.1725 80.7393 22.6575 80.7443 22.1703 80.6109C21.6831 80.4775 21.243 80.211 20.8996 79.8414C20.5563 79.4718 20.3233 79.0139 20.227 78.5193L17.6534 62.7724C17.5788 62.2982 17.381 61.8519 17.0798 61.4777C16.7785 61.1035 16.3844 60.8146 15.9364 60.6395L1.74465 55.2503C1.26917 55.0725 0.853842 54.764 0.546954 54.3606C0.240067 53.9571 0.0540568 53.4752 0.010437 52.9706C-0.0331826 52.466 0.0673677 51.9593 0.300473 51.5091C0.533578 51.059 0.88981 50.6839 1.32773 50.4271L13.4548 43.3105C13.8087 43.104 14.1111 42.8202 14.3393 42.4804C14.5675 42.1406 14.7154 41.7537 14.7721 41.3487Z" fill="#FFC7A2"/>
</svg>
