<svg width="50" height="39" viewBox="0 0 50 39" fill="none" xmlns="http://www.w3.org/2000/svg">
<mask id="path-1-outside-1_28789_1720" maskUnits="userSpaceOnUse" x="-0.704835" y="-0.705574" width="51.4097" height="40.3213" fill="black">
<rect fill="white" x="-0.704835" y="-0.705574" width="51.4097" height="40.3213"/>
<path d="M44.978 15.0592H44.8897C43.0022 9.8523 38.4421 5.54979 32.3649 3.56537C31.9176 2.64521 31.231 1.86106 30.3764 1.29438C29.5217 0.727697 28.5303 0.399155 27.505 0.342883C26.5461 0.224845 25.573 0.366448 24.6882 0.752775C23.8034 1.1391 23.0396 1.75585 22.4774 2.53804C14.1422 3.4161 7.48291 8.41228 5.10143 15.0592H5.02205C2.42007 15.0592 0.303197 17.4827 0.303197 20.4593C0.303197 23.4359 2.42007 25.8594 5.02205 25.8594H5.08379C7.72988 33.2175 15.6681 38.5825 25 38.5825C34.3319 38.5825 42.2789 33.2175 44.9162 25.8594H44.978C47.624 25.8594 49.6968 23.4359 49.6968 20.4593C49.6968 17.4827 47.5799 15.0592 44.978 15.0592ZM27.3374 2.09901C28.1 2.12555 28.8388 2.37088 29.4647 2.80549C30.0906 3.2401 30.577 3.84548 30.8655 4.5488C30.9724 4.88079 31.026 5.22751 31.0243 5.57614C31.0243 7.33226 30.5039 8.56155 29.4366 9.27278C27.2139 10.7567 22.9449 9.84352 20.4487 9.04448C21.7766 7.68639 22.8226 6.08116 23.527 4.32051C23.5873 4.13554 23.6641 3.9563 23.7563 3.78489C24.1158 3.1778 24.6503 2.69238 25.2905 2.39172C25.9307 2.09107 26.647 1.98908 27.3462 2.09901H27.3374ZM2.06725 20.4593C2.01502 19.6681 2.23326 18.8825 2.68648 18.2305C3.13969 17.5784 3.8012 17.0982 4.5634 16.868C4.28809 18.0546 4.1461 19.2679 4.14002 20.4856C4.14369 21.6857 4.28274 22.8815 4.55458 24.0506C3.79402 23.8187 3.13449 23.3378 2.68298 22.6859C2.23148 22.034 2.0145 21.2494 2.06725 20.4593ZM25 36.8176C14.4686 36.8176 5.90408 29.4858 5.90408 20.4856C5.90408 12.4953 12.5546 5.79565 21.5954 4.41709L21.516 4.57514C21.492 4.63621 21.4624 4.69498 21.4278 4.75076C21.3837 4.84734 21.3308 4.93515 21.2867 5.02296L21.1896 5.18979L21.022 5.47077L20.9338 5.61126L20.6957 5.96248V6.01517L20.4046 6.41908L20.3517 6.48054L20.1136 6.79664L20.0165 6.90201C19.9562 6.98448 19.8914 7.06363 19.8225 7.13909L19.7166 7.27079L19.5402 7.46397L19.4256 7.59568L19.2756 7.76251L19.1698 7.87666L19.0287 8.02593L18.9316 8.1313C18.8883 8.17005 18.8471 8.21109 18.8082 8.25423L18.72 8.34203L18.6229 8.43862L18.5436 8.50887L18.4642 8.58789L18.4201 8.63179L18.3583 8.68448C18.249 8.78407 18.1666 8.90949 18.1188 9.04914C18.071 9.18879 18.0594 9.33818 18.0849 9.48351C18.1091 9.63026 18.1704 9.76847 18.263 9.8852C18.3555 10.0019 18.4764 10.0933 18.6141 10.1508L18.7288 10.1947H18.7905L19.011 10.2826H19.0639L19.452 10.423H19.5579L19.9548 10.5548L20.0871 10.5987L20.6781 10.783H20.7927L21.3572 10.9323L21.5513 10.985L22.2922 11.1694L23.0507 11.3187L23.2359 11.547L23.9504 11.6611H24.0915C24.3649 11.705 24.6472 11.7314 24.9294 11.7577H25.1499C25.3793 11.7577 25.6086 11.7577 25.8467 11.7577H26.3936H27.1521L27.5314 11.7138L28.2106 11.5996L28.5281 11.547C28.7556 11.49 28.9794 11.4197 29.1985 11.3362L29.5072 11.2221C30.2064 10.935 30.8323 10.4958 31.339 9.93666C31.8457 9.37756 32.2203 8.71271 32.4355 7.99081C32.4355 7.99081 32.4355 7.99081 32.4355 7.9469C32.5088 7.71957 32.5677 7.48789 32.6119 7.25324C32.6119 7.14787 32.6119 7.03372 32.6119 6.92835C32.6119 6.82298 32.6648 6.62103 32.6825 6.4542C32.7001 6.28737 32.6825 6.17322 32.6825 6.03273C32.6825 5.89224 32.6825 5.74297 32.6825 5.5937C39.4917 8.22788 43.9813 14.0494 43.9813 20.5208C44.0959 29.4858 35.5314 36.8176 25 36.8176ZM45.4454 24.0506C46.0157 21.69 46.0157 19.2285 45.4454 16.868C46.206 17.0999 46.8655 17.5808 47.317 18.2327C47.7685 18.8846 47.9855 19.6692 47.9327 20.4593C47.9855 21.2494 47.7685 22.034 47.317 22.6859C46.8655 23.3378 46.206 23.8187 45.4454 24.0506Z"/>
</mask>
<path d="M44.978 15.0592H44.8897C43.0022 9.8523 38.4421 5.54979 32.3649 3.56537C31.9176 2.64521 31.231 1.86106 30.3764 1.29438C29.5217 0.727697 28.5303 0.399155 27.505 0.342883C26.5461 0.224845 25.573 0.366448 24.6882 0.752775C23.8034 1.1391 23.0396 1.75585 22.4774 2.53804C14.1422 3.4161 7.48291 8.41228 5.10143 15.0592H5.02205C2.42007 15.0592 0.303197 17.4827 0.303197 20.4593C0.303197 23.4359 2.42007 25.8594 5.02205 25.8594H5.08379C7.72988 33.2175 15.6681 38.5825 25 38.5825C34.3319 38.5825 42.2789 33.2175 44.9162 25.8594H44.978C47.624 25.8594 49.6968 23.4359 49.6968 20.4593C49.6968 17.4827 47.5799 15.0592 44.978 15.0592ZM27.3374 2.09901C28.1 2.12555 28.8388 2.37088 29.4647 2.80549C30.0906 3.2401 30.577 3.84548 30.8655 4.5488C30.9724 4.88079 31.026 5.22751 31.0243 5.57614C31.0243 7.33226 30.5039 8.56155 29.4366 9.27278C27.2139 10.7567 22.9449 9.84352 20.4487 9.04448C21.7766 7.68639 22.8226 6.08116 23.527 4.32051C23.5873 4.13554 23.6641 3.9563 23.7563 3.78489C24.1158 3.1778 24.6503 2.69238 25.2905 2.39172C25.9307 2.09107 26.647 1.98908 27.3462 2.09901H27.3374ZM2.06725 20.4593C2.01502 19.6681 2.23326 18.8825 2.68648 18.2305C3.13969 17.5784 3.8012 17.0982 4.5634 16.868C4.28809 18.0546 4.1461 19.2679 4.14002 20.4856C4.14369 21.6857 4.28274 22.8815 4.55458 24.0506C3.79402 23.8187 3.13449 23.3378 2.68298 22.6859C2.23148 22.034 2.0145 21.2494 2.06725 20.4593ZM25 36.8176C14.4686 36.8176 5.90408 29.4858 5.90408 20.4856C5.90408 12.4953 12.5546 5.79565 21.5954 4.41709L21.516 4.57514C21.492 4.63621 21.4624 4.69498 21.4278 4.75076C21.3837 4.84734 21.3308 4.93515 21.2867 5.02296L21.1896 5.18979L21.022 5.47077L20.9338 5.61126L20.6957 5.96248V6.01517L20.4046 6.41908L20.3517 6.48054L20.1136 6.79664L20.0165 6.90201C19.9562 6.98448 19.8914 7.06363 19.8225 7.13909L19.7166 7.27079L19.5402 7.46397L19.4256 7.59568L19.2756 7.76251L19.1698 7.87666L19.0287 8.02593L18.9316 8.1313C18.8883 8.17005 18.8471 8.21109 18.8082 8.25423L18.72 8.34203L18.6229 8.43862L18.5436 8.50887L18.4642 8.58789L18.4201 8.63179L18.3583 8.68448C18.249 8.78407 18.1666 8.90949 18.1188 9.04914C18.071 9.18879 18.0594 9.33818 18.0849 9.48351C18.1091 9.63026 18.1704 9.76847 18.263 9.8852C18.3555 10.0019 18.4764 10.0933 18.6141 10.1508L18.7288 10.1947H18.7905L19.011 10.2826H19.0639L19.452 10.423H19.5579L19.9548 10.5548L20.0871 10.5987L20.6781 10.783H20.7927L21.3572 10.9323L21.5513 10.985L22.2922 11.1694L23.0507 11.3187L23.2359 11.547L23.9504 11.6611H24.0915C24.3649 11.705 24.6472 11.7314 24.9294 11.7577H25.1499C25.3793 11.7577 25.6086 11.7577 25.8467 11.7577H26.3936H27.1521L27.5314 11.7138L28.2106 11.5996L28.5281 11.547C28.7556 11.49 28.9794 11.4197 29.1985 11.3362L29.5072 11.2221C30.2064 10.935 30.8323 10.4958 31.339 9.93666C31.8457 9.37756 32.2203 8.71271 32.4355 7.99081C32.4355 7.99081 32.4355 7.99081 32.4355 7.9469C32.5088 7.71957 32.5677 7.48789 32.6119 7.25324C32.6119 7.14787 32.6119 7.03372 32.6119 6.92835C32.6119 6.82298 32.6648 6.62103 32.6825 6.4542C32.7001 6.28737 32.6825 6.17322 32.6825 6.03273C32.6825 5.89224 32.6825 5.74297 32.6825 5.5937C39.4917 8.22788 43.9813 14.0494 43.9813 20.5208C44.0959 29.4858 35.5314 36.8176 25 36.8176ZM45.4454 24.0506C46.0157 21.69 46.0157 19.2285 45.4454 16.868C46.206 17.0999 46.8655 17.5808 47.317 18.2327C47.7685 18.8846 47.9855 19.6692 47.9327 20.4593C47.9855 21.2494 47.7685 22.034 47.317 22.6859C46.8655 23.3378 46.206 23.8187 45.4454 24.0506Z" fill="#64A7E9"/>
<path d="M44.978 15.0592H44.8897C43.0022 9.8523 38.4421 5.54979 32.3649 3.56537C31.9176 2.64521 31.231 1.86106 30.3764 1.29438C29.5217 0.727697 28.5303 0.399155 27.505 0.342883C26.5461 0.224845 25.573 0.366448 24.6882 0.752775C23.8034 1.1391 23.0396 1.75585 22.4774 2.53804C14.1422 3.4161 7.48291 8.41228 5.10143 15.0592H5.02205C2.42007 15.0592 0.303197 17.4827 0.303197 20.4593C0.303197 23.4359 2.42007 25.8594 5.02205 25.8594H5.08379C7.72988 33.2175 15.6681 38.5825 25 38.5825C34.3319 38.5825 42.2789 33.2175 44.9162 25.8594H44.978C47.624 25.8594 49.6968 23.4359 49.6968 20.4593C49.6968 17.4827 47.5799 15.0592 44.978 15.0592ZM27.3374 2.09901C28.1 2.12555 28.8388 2.37088 29.4647 2.80549C30.0906 3.2401 30.577 3.84548 30.8655 4.5488C30.9724 4.88079 31.026 5.22751 31.0243 5.57614C31.0243 7.33226 30.5039 8.56155 29.4366 9.27278C27.2139 10.7567 22.9449 9.84352 20.4487 9.04448C21.7766 7.68639 22.8226 6.08116 23.527 4.32051C23.5873 4.13554 23.6641 3.9563 23.7563 3.78489C24.1158 3.1778 24.6503 2.69238 25.2905 2.39172C25.9307 2.09107 26.647 1.98908 27.3462 2.09901H27.3374ZM2.06725 20.4593C2.01502 19.6681 2.23326 18.8825 2.68648 18.2305C3.13969 17.5784 3.8012 17.0982 4.5634 16.868C4.28809 18.0546 4.1461 19.2679 4.14002 20.4856C4.14369 21.6857 4.28274 22.8815 4.55458 24.0506C3.79402 23.8187 3.13449 23.3378 2.68298 22.6859C2.23148 22.034 2.0145 21.2494 2.06725 20.4593ZM25 36.8176C14.4686 36.8176 5.90408 29.4858 5.90408 20.4856C5.90408 12.4953 12.5546 5.79565 21.5954 4.41709L21.516 4.57514C21.492 4.63621 21.4624 4.69498 21.4278 4.75076C21.3837 4.84734 21.3308 4.93515 21.2867 5.02296L21.1896 5.18979L21.022 5.47077L20.9338 5.61126L20.6957 5.96248V6.01517L20.4046 6.41908L20.3517 6.48054L20.1136 6.79664L20.0165 6.90201C19.9562 6.98448 19.8914 7.06363 19.8225 7.13909L19.7166 7.27079L19.5402 7.46397L19.4256 7.59568L19.2756 7.76251L19.1698 7.87666L19.0287 8.02593L18.9316 8.1313C18.8883 8.17005 18.8471 8.21109 18.8082 8.25423L18.72 8.34203L18.6229 8.43862L18.5436 8.50887L18.4642 8.58789L18.4201 8.63179L18.3583 8.68448C18.249 8.78407 18.1666 8.90949 18.1188 9.04914C18.071 9.18879 18.0594 9.33818 18.0849 9.48351C18.1091 9.63026 18.1704 9.76847 18.263 9.8852C18.3555 10.0019 18.4764 10.0933 18.6141 10.1508L18.7288 10.1947H18.7905L19.011 10.2826H19.0639L19.452 10.423H19.5579L19.9548 10.5548L20.0871 10.5987L20.6781 10.783H20.7927L21.3572 10.9323L21.5513 10.985L22.2922 11.1694L23.0507 11.3187L23.2359 11.547L23.9504 11.6611H24.0915C24.3649 11.705 24.6472 11.7314 24.9294 11.7577H25.1499C25.3793 11.7577 25.6086 11.7577 25.8467 11.7577H26.3936H27.1521L27.5314 11.7138L28.2106 11.5996L28.5281 11.547C28.7556 11.49 28.9794 11.4197 29.1985 11.3362L29.5072 11.2221C30.2064 10.935 30.8323 10.4958 31.339 9.93666C31.8457 9.37756 32.2203 8.71271 32.4355 7.99081C32.4355 7.99081 32.4355 7.99081 32.4355 7.9469C32.5088 7.71957 32.5677 7.48789 32.6119 7.25324C32.6119 7.14787 32.6119 7.03372 32.6119 6.92835C32.6119 6.82298 32.6648 6.62103 32.6825 6.4542C32.7001 6.28737 32.6825 6.17322 32.6825 6.03273C32.6825 5.89224 32.6825 5.74297 32.6825 5.5937C39.4917 8.22788 43.9813 14.0494 43.9813 20.5208C44.0959 29.4858 35.5314 36.8176 25 36.8176ZM45.4454 24.0506C46.0157 21.69 46.0157 19.2285 45.4454 16.868C46.206 17.0999 46.8655 17.5808 47.317 18.2327C47.7685 18.8846 47.9855 19.6692 47.9327 20.4593C47.9855 21.2494 47.7685 22.034 47.317 22.6859C46.8655 23.3378 46.206 23.8187 45.4454 24.0506Z" stroke="#64A7E9" stroke-width="0.6" mask="url(#path-1-outside-1_28789_1720)"/>
<path d="M16.0478 18.9575C16.0478 19.2307 15.9384 19.493 15.7446 19.6859C15.5509 19.8786 15.2887 19.987 15.0152 19.9872C14.7414 19.9872 14.4785 19.8788 14.2847 19.6859C14.0926 19.4947 13.9835 19.2359 13.9815 18.9653L13.9766 18.7911C13.9749 17.922 14.2949 17.0802 14.8783 16.4285C15.5008 15.7333 16.3736 15.3104 17.3069 15.2512L17.3167 15.2502L17.3265 15.2512C18.2599 15.3103 19.1326 15.7333 19.7551 16.4285C20.3774 17.1237 20.6997 18.0351 20.6519 18.9653C20.6499 19.2358 20.5416 19.4947 20.3497 19.6859C20.1559 19.8788 19.8929 19.9871 19.6192 19.9872C19.3455 19.9872 19.0826 19.8788 18.8888 19.6859C18.695 19.493 18.5856 19.2307 18.5856 18.9575V18.9496L18.5866 18.9417C18.6275 18.5562 18.5161 18.1698 18.2755 17.8648C18.0389 17.5648 17.6955 17.3665 17.3167 17.3106C16.9381 17.3665 16.5954 17.565 16.3589 17.8648C16.1182 18.1699 16.0059 18.5561 16.0468 18.9417L16.0478 18.9496V18.9575Z" fill="#64A7E9" stroke="#64A7E9" stroke-width="0.3"/>
<path d="M30.6466 18.9575C30.6466 19.2307 30.5372 19.493 30.3434 19.6859C30.1497 19.8786 29.8875 19.987 29.6139 19.9872C29.3402 19.9872 29.0773 19.8788 28.8835 19.6859C28.6914 19.4947 28.5822 19.2359 28.5803 18.9653L28.5754 18.7911C28.5737 17.922 28.8937 17.0802 29.4771 16.4285C30.0996 15.7333 30.9723 15.3104 31.9056 15.2512L31.9155 15.2502L31.9253 15.2512C32.8587 15.3103 33.7313 15.7333 34.3538 16.4285C34.9762 17.1237 35.2985 18.0351 35.2506 18.9653C35.2487 19.2358 35.1404 19.4947 34.9484 19.6859C34.7547 19.8788 34.4917 19.9871 34.218 19.9872C33.9442 19.9872 33.6814 19.8788 33.4876 19.6859C33.2937 19.493 33.1844 19.2307 33.1844 18.9575V18.9496L33.1853 18.9417C33.2262 18.5562 33.1148 18.1698 32.8743 17.8648C32.6377 17.5648 32.2942 17.3665 31.9155 17.3106C31.5368 17.3665 31.1942 17.565 30.9576 17.8648C30.7169 18.1699 30.6047 18.5561 30.6456 18.9417L30.6466 18.9496V18.9575Z" fill="#64A7E9" stroke="#64A7E9" stroke-width="0.3"/>
<path d="M28.8362 25.1897C29.1099 25.1897 29.3729 25.2982 29.5667 25.491C29.7605 25.6839 29.8699 25.9462 29.8699 26.2194C29.8699 27.5055 29.3566 28.7389 28.4435 29.6481C27.5302 30.5573 26.2913 31.0685 25 31.0686C23.7086 31.0686 22.4699 30.5573 21.5565 29.6481C20.6432 28.7388 20.1292 27.5056 20.1292 26.2194C20.1292 25.9462 20.2385 25.6839 20.4324 25.491C20.6262 25.2981 20.889 25.1897 21.1628 25.1897C21.4365 25.1897 21.6994 25.2981 21.8932 25.491C22.0871 25.6839 22.1964 25.9462 22.1964 26.2194C22.1964 26.9592 22.4917 27.6689 23.0174 28.1922C23.5431 28.7154 24.2563 29.0092 25 29.0092C25.7436 29.0091 26.457 28.7155 26.9826 28.1922C27.5082 27.6689 27.8036 26.9592 27.8036 26.2194C27.8036 25.9462 27.912 25.6839 28.1058 25.491C28.2996 25.2981 28.5625 25.1898 28.8362 25.1897Z" fill="#64A7E9" stroke="#64A7E9" stroke-width="0.3"/>
</svg>
