<svg width="130" height="119" viewBox="0 0 130 119" fill="none" xmlns="http://www.w3.org/2000/svg">
<path d="M106.027 73.7965C110.337 77.2601 115.215 79.9534 120.447 81.7568C124.163 83.1858 126.871 76.7075 122.953 75.342C117.768 73.3362 112.268 72.2611 106.707 72.1664C106.512 72.153 106.317 72.201 106.151 72.3036C105.985 72.4062 105.855 72.5582 105.78 72.7382C105.705 72.9182 105.688 73.1172 105.733 73.307C105.777 73.4969 105.88 73.6681 106.027 73.7965Z" fill="#EFBA1D"/>
<path d="M98.7429 89.3043C99.956 91.9346 101.463 94.4203 103.234 96.7141C105.008 99.0454 106.961 101.236 109.075 103.266C109.396 103.599 109.791 103.851 110.228 104.004C110.665 104.157 111.132 104.205 111.591 104.145C112.491 103.973 113.312 103.521 113.938 102.854C115.265 101.499 115.775 99.4346 114.267 97.942C112.212 95.8654 109.993 93.9574 107.63 92.2364C105.302 90.5095 102.783 89.0534 100.123 87.8964C99.9269 87.8143 99.7104 87.7929 99.5017 87.835C99.293 87.8771 99.1018 87.9808 98.953 88.1326C98.8042 88.2843 98.7046 88.4772 98.6671 88.6862C98.6296 88.8951 98.656 89.1105 98.7429 89.3043Z" fill="#EFBA1D"/>
<path d="M83.0383 96.7562C83.1735 99.6523 83.6475 102.523 84.4505 105.309C85.2446 108.125 86.2564 110.875 87.4767 113.534C89.1757 117.504 95.9715 114.36 94.2406 110.549C92.1807 105.542 88.751 99.6672 84.8646 95.9305C84.7126 95.7715 84.5147 95.6635 84.2983 95.6215C84.082 95.5796 83.8579 95.6058 83.6572 95.6966C83.4565 95.7873 83.2891 95.9381 83.1781 96.128C83.0672 96.3178 83.0184 96.5374 83.0383 96.7562Z" fill="#EFBA1D"/>
<path d="M66.5373 100.346C64.7534 104.971 64.4136 111.397 64.7852 116.298C64.987 120.087 72.3562 119.844 72.1332 115.864C71.9845 110.889 70.8908 104.675 68.5654 100.261C68.463 100.077 68.3115 99.9261 68.1278 99.8235C67.9441 99.721 67.7355 99.6714 67.5251 99.6801C67.3148 99.6889 67.111 99.7558 66.9366 99.8733C66.7622 99.9908 66.6239 100.154 66.5373 100.346Z" fill="#EFBA1D"/>
<path d="M48.2099 98.948C44.8226 102.992 42.03 109.406 40.5328 114.54C39.9275 116.52 41.3292 118.087 43.1131 118.669C43.541 118.839 43.9991 118.922 44.4599 118.912C44.9207 118.902 45.3748 118.8 45.7951 118.611C46.2153 118.423 46.5931 118.151 46.9058 117.814C47.2185 117.476 47.4598 117.079 47.6152 116.647C49.3354 111.576 50.6628 104.759 50.1318 99.5514C50.1282 99.3291 50.0545 99.1137 49.9212 98.9356C49.7879 98.7574 49.6017 98.6256 49.3891 98.5589C49.1764 98.4921 48.9481 98.4938 48.7365 98.5636C48.5248 98.6335 48.3406 98.7679 48.2099 98.948Z" fill="#EFBA1D"/>
<path d="M31.762 92.0884C27.5146 94.449 22.9487 99.0113 19.9437 102.917C18.7438 104.42 19.434 106.252 20.772 107.353C21.0832 107.641 21.4493 107.865 21.8485 108.01C22.2477 108.155 22.6721 108.219 23.0966 108.199C23.5211 108.178 23.9372 108.073 24.3202 107.889C24.7033 107.706 25.0457 107.448 25.3273 107.13C28.5128 103.33 31.8894 97.8893 33.1849 93.2317C33.2355 93.0452 33.2305 92.8481 33.1707 92.6644C33.1108 92.4807 32.9986 92.3183 32.8477 92.1971C32.6969 92.0759 32.5139 92.001 32.3211 91.9818C32.1283 91.9625 31.934 91.9995 31.762 92.0884Z" fill="#EFBA1D"/>
<path d="M22.5771 79.598C17.321 80.1908 10.7907 82.7736 6.11856 85.3565C4.28158 86.3303 4.21785 88.4686 5.1098 90.1517C5.29168 90.5803 5.55943 90.9673 5.89659 91.2891C6.23375 91.6109 6.63325 91.8608 7.07065 92.0233C7.50804 92.1858 7.9741 92.2576 8.4403 92.2343C8.9065 92.211 9.36304 92.0931 9.78192 91.8877C14.5602 89.4213 20.2198 85.3776 23.469 81.3022C23.593 81.1422 23.6684 80.9501 23.6863 80.7487C23.7042 80.5472 23.6638 80.3449 23.57 80.1656C23.4762 79.9864 23.3328 79.8376 23.1568 79.737C22.9809 79.6364 22.7797 79.5882 22.5771 79.598Z" fill="#EFBA1D"/>
<path d="M20.2941 62.0257C15.2398 60.3849 8.24224 59.9721 2.90119 60.3849C-1.26123 60.5755 -0.847124 68.2393 3.51704 67.89C8.90057 67.6148 15.6751 66.2704 20.3897 63.9522C20.5714 63.8592 20.7223 63.716 20.8244 63.5397C20.9265 63.3634 20.9754 63.1615 20.9653 62.9582C20.9552 62.7549 20.8866 62.5588 20.7675 62.3934C20.6485 62.228 20.4841 62.1003 20.2941 62.0257Z" fill="#EFBA1D"/>
<path d="M22.9381 46.1683C18.6886 42.3936 13.7841 39.4234 8.46522 37.4035C4.72754 35.8263 2.01987 42.9609 5.9593 44.464C10.7694 46.4753 17.1936 48.0843 22.2585 47.9678C22.461 47.9533 22.655 47.8813 22.8176 47.7603C22.9803 47.6393 23.1047 47.4743 23.1762 47.285C23.2478 47.0956 23.2633 46.8898 23.2211 46.6919C23.1789 46.494 23.0807 46.3123 22.9381 46.1683Z" fill="#EFBA1D"/>
<path d="M29.702 31.6769C28.6985 28.9547 27.3876 26.3551 25.7945 23.9283C24.2039 21.4728 22.4291 19.1408 20.4853 16.9525C20.1866 16.6015 19.8111 16.3235 19.3877 16.1399C18.9643 15.9564 18.5042 15.8722 18.043 15.894C17.1304 16.001 16.2753 16.3938 15.6008 17.016C14.1673 18.2545 13.4771 20.2869 14.9 21.8853C16.7852 24.1223 18.8521 26.2006 21.0799 28.099C23.2678 29.9995 25.6695 31.6406 28.2367 32.9895C28.4268 33.0825 28.6406 33.1166 28.8504 33.0876C29.0602 33.0585 29.2564 32.9676 29.414 32.8265C29.5715 32.6854 29.6832 32.5005 29.7345 32.2956C29.7858 32.0908 29.7745 31.8753 29.702 31.6769Z" fill="#EFBA1D"/>
<path d="M45.4173 22.3721C45.2829 19.4759 44.8089 16.6054 44.005 13.819C43.2109 11.0002 42.1991 8.24677 40.9788 5.58354C39.2905 1.61399 32.4841 4.75787 34.2149 8.57923C36.3385 13.5862 39.7046 19.4611 43.5909 23.1978C43.7429 23.3569 43.9408 23.4648 44.1572 23.5068C44.3735 23.5487 44.5976 23.5225 44.7983 23.4317C44.9991 23.341 45.1665 23.1902 45.2774 23.0003C45.3883 22.8105 45.4372 22.5909 45.4173 22.3721Z" fill="#EFBA1D"/>
<path d="M62.1837 20.255C63.957 15.2269 64.3074 8.25103 63.9251 2.92654C63.7234 -1.18062 56.3542 -0.915986 56.5772 3.41347C56.7258 8.80148 57.8302 15.5444 60.1556 20.3502C60.2324 20.5635 60.3757 20.7465 60.5646 20.8725C60.7535 20.9984 60.978 21.0606 61.205 21.05C61.432 21.0393 61.6496 20.9563 61.8258 20.8132C62.0019 20.6701 62.1274 20.4744 62.1837 20.255Z" fill="#EFBA1D"/>
<path d="M79.2263 21.9495C82.6135 17.9059 85.4062 11.4911 86.8927 6.36771C87.5086 4.37764 86.0964 2.811 84.3231 2.2288C83.8948 2.06123 83.4373 1.98073 82.9773 1.99202C82.5174 2.00331 82.0644 2.10617 81.6449 2.29454C81.2254 2.48292 80.8479 2.75301 80.5347 3.08893C80.2215 3.42485 79.9788 3.81982 79.8209 4.25062C78.1007 9.32106 76.7734 16.1381 77.3043 21.3462C77.308 21.5684 77.3817 21.7838 77.515 21.9619C77.6483 22.1401 77.8344 22.2719 78.0471 22.3386C78.2597 22.4054 78.488 22.4037 78.6997 22.3339C78.9113 22.264 79.0956 22.1296 79.2263 21.9495Z" fill="#EFBA1D"/>
<path d="M94.7185 28.6283C99.3375 26.0772 104.275 21.1443 107.577 16.9102C108.873 15.2906 108.13 13.3111 106.675 12.1044C106.336 11.791 105.937 11.5484 105.502 11.3907C105.068 11.233 104.606 11.1634 104.144 11.1861C103.682 11.2088 103.229 11.3232 102.812 11.5227C102.395 11.7222 102.023 12.0027 101.716 12.3478C98.2757 16.455 94.5804 22.3511 93.2213 27.3898C93.1642 27.5875 93.1662 27.7976 93.227 27.9943C93.2878 28.1909 93.4048 28.3656 93.5637 28.497C93.7225 28.6284 93.9164 28.7108 94.1215 28.7341C94.3266 28.7575 94.534 28.7207 94.7185 28.6283Z" fill="#EFBA1D"/>
<path d="M104.402 42.5797C109.659 41.9869 116.189 39.4041 120.861 36.8212C122.698 35.8473 122.762 33.7197 121.859 32.026C121.677 31.5974 121.41 31.2104 121.072 30.8886C120.735 30.5668 120.336 30.3169 119.898 30.1544C119.461 29.9919 118.995 29.9201 118.529 29.9434C118.062 29.9667 117.606 30.0846 117.187 30.29C112.419 32.7564 106.76 36.8 103.5 40.8754C103.375 41.0362 103.3 41.2294 103.282 41.4318C103.264 41.6343 103.306 41.8375 103.401 42.0172C103.496 42.1969 103.641 42.3455 103.819 42.4453C103.996 42.545 104.199 42.5917 104.402 42.5797Z" fill="#EFBA1D"/>
<path d="M109.712 57.8447C114.755 59.4854 121.764 59.8982 127.094 59.4854C131.256 59.2949 130.853 51.6204 126.489 51.9803C121.095 52.2449 114.32 53.5999 109.605 55.9181C109.424 56.012 109.274 56.1561 109.173 56.333C109.071 56.5099 109.023 56.7122 109.035 56.9156C109.046 57.1189 109.116 57.3148 109.236 57.4796C109.356 57.6444 109.521 57.7711 109.712 57.8447Z" fill="#EFBA1D"/>
<path d="M64.611 96.5552C86.3384 96.4871 103.9 80.0863 103.837 59.9229C103.773 39.7594 86.1083 23.4689 64.3809 23.537C42.6535 23.605 25.0914 40.0059 25.155 60.1693C25.2185 80.3327 42.8836 96.6232 64.611 96.5552Z" fill="#EFBA1D"/>
<path d="M50.1849 54.3297C48.9896 54.4232 47.8059 54.0398 46.894 53.2637C45.982 52.4876 45.4165 51.3823 45.3217 50.1908C45.3159 50.1295 45.3222 50.0678 45.3405 50.009C45.3587 49.9503 45.3884 49.8957 45.4279 49.8485C45.4674 49.8013 45.5158 49.7623 45.5705 49.7338C45.6252 49.7054 45.685 49.688 45.7464 49.6827C45.8092 49.6768 45.8726 49.6835 45.9328 49.7022C45.993 49.7209 46.0489 49.7513 46.0972 49.7916C46.1456 49.832 46.1855 49.8815 46.2146 49.9372C46.2437 49.993 46.2614 50.054 46.2667 50.1167C46.2836 50.5975 46.3982 51.07 46.6035 51.5054C46.8089 51.9408 47.1007 52.3302 47.4614 52.6499C47.822 52.9697 48.244 53.2132 48.7018 53.3656C49.1596 53.5181 49.6436 53.5764 50.1246 53.537C50.6057 53.4975 51.0737 53.3612 51.5003 53.1363C51.927 52.9113 52.3034 52.6024 52.6068 52.2282C52.9103 51.8541 53.1344 51.4224 53.2657 50.9594C53.3969 50.4964 53.4326 50.0116 53.3704 49.5345C53.3566 49.4682 53.3571 49.3998 53.3718 49.3338C53.3865 49.2677 53.4152 49.2056 53.4559 49.1515C53.4966 49.0974 53.5484 49.0525 53.6079 49.0199C53.6674 48.9873 53.7331 48.9677 53.8007 48.9624C53.8684 48.9571 53.9364 48.9662 54.0003 48.9891C54.0641 49.0121 54.1223 49.0483 54.171 49.0954C54.2197 49.1425 54.2578 49.1994 54.2827 49.2624C54.3076 49.3253 54.3188 49.3928 54.3155 49.4604C54.3664 50.0507 54.2998 50.6453 54.1195 51.2099C53.9393 51.7746 53.6489 52.2982 53.2651 52.7506C52.8813 53.2031 52.4116 53.5755 51.883 53.8465C51.3544 54.1175 50.7774 54.2817 50.1849 54.3297Z" fill="#4B4B4B"/>
<path d="M78.0051 51.2498C76.8093 51.3405 75.6259 50.9564 74.713 50.1811C73.8 49.4058 73.2315 48.3022 73.1313 47.1108C73.1214 46.9845 73.1623 46.8594 73.2449 46.7632C73.3276 46.6669 73.4452 46.6073 73.5719 46.5974C73.6987 46.5876 73.8241 46.6284 73.9207 46.7108C74.0173 46.7932 74.0771 46.9104 74.0869 47.0368C74.1038 47.5176 74.2184 47.99 74.4238 48.4255C74.6291 48.8609 74.9209 49.2503 75.2816 49.57C75.6422 49.8898 76.0642 50.1333 76.522 50.2857C76.9798 50.4382 77.4638 50.4965 77.9449 50.4571C78.4259 50.4176 78.8939 50.2813 79.3205 50.0564C79.7472 49.8314 80.1236 49.5225 80.4271 49.1483C80.7305 48.7742 80.9546 48.3425 81.0858 47.8795C81.2171 47.4165 81.2528 46.9317 81.1906 46.4545C81.1766 46.3887 81.1768 46.3206 81.1911 46.2548C81.2054 46.1889 81.2335 46.1269 81.2737 46.0727C81.3138 46.0186 81.365 45.9735 81.4239 45.9405C81.4827 45.9075 81.548 45.8873 81.6153 45.8812C81.6826 45.8752 81.7504 45.8835 81.8142 45.9055C81.8781 45.9275 81.9365 45.9628 81.9857 46.0089C82.0348 46.0551 82.0736 46.1111 82.0995 46.1734C82.1254 46.2356 82.1377 46.3025 82.1357 46.3699C82.2357 47.5627 81.857 48.7464 81.0826 49.6613C80.3082 50.5761 79.2015 51.1474 78.0051 51.2498Z" fill="#4B4B4B"/>
<path d="M64.9658 55.441C63.7699 55.5318 62.5865 55.1477 61.6736 54.3724C60.7606 53.5971 60.1921 52.4935 60.0919 51.3021C60.0863 51.2395 60.0931 51.1765 60.112 51.1166C60.1309 51.0567 60.1614 51.001 60.2018 50.9529C60.2423 50.9047 60.2918 50.8649 60.3476 50.8359C60.4035 50.8068 60.4645 50.789 60.5272 50.7834C60.59 50.7778 60.6532 50.7847 60.7133 50.8035C60.7734 50.8223 60.8293 50.8527 60.8776 50.893C60.9259 50.9333 60.9658 50.9827 60.9949 51.0383C61.0241 51.094 61.042 51.1549 61.0476 51.2174C61.0645 51.6983 61.179 52.1707 61.3844 52.6061C61.5897 53.0416 61.8815 53.4309 62.2422 53.7507C62.6029 54.0704 63.0248 54.3139 63.4826 54.4664C63.9404 54.6188 64.4245 54.6771 64.9055 54.6377C65.3865 54.5983 65.8545 54.462 66.2812 54.237C66.7078 54.0121 67.0843 53.7032 67.3877 53.329C67.6911 52.9548 67.9152 52.5232 68.0465 52.0601C68.1777 51.5971 68.2134 51.1124 68.1513 50.6352C68.1455 50.5732 68.1522 50.5106 68.1711 50.4512C68.19 50.3918 68.2206 50.3368 68.2612 50.2894C68.3018 50.242 68.3515 50.2033 68.4074 50.1754C68.4633 50.1475 68.5242 50.1311 68.5866 50.1271C68.7117 50.1183 68.8353 50.1589 68.9306 50.2401C69.026 50.3213 69.0855 50.4366 69.0963 50.5611C69.1935 51.7534 68.8137 52.9355 68.0399 53.8497C67.2661 54.7639 66.161 55.3359 64.9658 55.441Z" fill="#4B4B4B"/>
</svg>
