<svg width="43" height="43" viewBox="0 0 43 43" fill="none" xmlns="http://www.w3.org/2000/svg">
<path d="M23.0952 10.533H9.15607C6.09232 10.533 3.58398 13.0414 3.58398 16.1051V36.4584C3.58398 39.0563 5.44732 40.1672 7.72273 38.8951L14.764 34.9713C15.5165 34.5593 16.7348 34.5593 17.4694 34.9713L24.5107 38.8951C26.804 40.1493 28.6673 39.0563 28.6673 36.4584V16.1051C28.6673 13.0414 26.159 10.533 23.0952 10.533Z" fill="#353535"/>
<path d="M39.4164 9.1554V29.5087C39.4164 32.1066 37.5531 33.1996 35.2776 31.9454L31.8197 30.0104C31.5331 29.8491 31.3539 29.5446 31.3539 29.2221V16.1071C31.3539 11.5562 27.6451 7.84748 23.0943 7.84748H15.8023C15.1394 7.84748 14.6735 7.14873 14.9781 6.5754C15.9098 4.80165 17.7731 3.58331 19.9051 3.58331H33.8443C36.9081 3.58331 39.4164 6.09165 39.4164 9.1554Z" fill="#353535"/>
</svg>
