<svg width="39" height="39" viewBox="0 0 39 39" fill="none" xmlns="http://www.w3.org/2000/svg">
<circle cx="19.5" cy="19.5" r="19.5" fill="#64A7E9" fill-opacity="0.35"/>
<path d="M14.6273 11.0231C10.1086 10.5967 8.9724 16.1634 10.8996 19.5608C13.2507 23.7045 17.9573 27.4913 22.2226 28.9096C22.3755 28.9606 22.5328 29.0116 22.6902 28.9977C22.913 28.9745 23.101 28.8308 23.2801 28.6918C26.042 26.5133 28.5024 23.7879 29.5469 20.1819C30.3073 17.9895 30.2592 14.847 28.2402 13.4194C25.5657 11.533 22.6945 14.4484 21.9036 17.0486C21.5889 15.7184 20.5095 14.7775 19.701 13.7532C18.5997 12.358 16.5589 11.2132 14.6273 11.0278V11.0231Z" fill="#64A7E9"/>
</svg>
