<svg width="202" height="124" viewBox="0 0 202 124" fill="none" xmlns="http://www.w3.org/2000/svg">
<path d="M102.917 123.717C102.917 123.717 37.8954 123.473 10.9583 96.9636C-15.9788 70.454 13.2397 54.946 29.3099 63.9788C29.3099 63.9788 18.8433 41.0823 37.6352 32.8006C56.4271 24.5189 67.1339 45.9945 67.1339 45.9945C67.1339 45.9945 64.052 4.09869 100.635 0.201411C137.218 -3.69587 144.663 50.2571 144.663 50.2571C144.663 50.2571 186.83 25.6962 200.018 62.7203C213.747 101.023 153.429 127.025 102.917 123.717Z" fill="white"/>
<path d="M101.376 73.0115C99.1206 73.191 96.8874 72.4564 95.1655 70.9687C93.4436 69.4809 92.3735 67.3615 92.1898 65.0748C92.1637 64.9478 92.1645 64.8167 92.1923 64.69C92.2201 64.5634 92.2741 64.4442 92.3509 64.3404C92.4276 64.2366 92.5252 64.1506 92.6373 64.0881C92.7494 64.0256 92.8733 63.988 93.0008 63.9778C93.1283 63.9676 93.2565 63.9851 93.3768 64.0291C93.4971 64.0731 93.6068 64.1426 93.6986 64.2329C93.7904 64.3233 93.8621 64.4324 93.9091 64.5531C93.956 64.6737 93.9771 64.8032 93.9709 64.9327C94.0027 65.8548 94.2187 66.7607 94.6057 67.5957C94.9927 68.4307 95.5427 69.1774 96.2225 69.7905C96.9022 70.4036 97.6975 70.8705 98.5603 71.1629C99.4231 71.4552 100.335 71.567 101.242 71.4914C102.149 71.4158 103.031 71.1544 103.835 70.723C104.639 70.2917 105.348 69.6993 105.92 68.9818C106.492 68.2643 106.915 67.4366 107.162 66.5487C107.409 65.6608 107.476 64.7313 107.359 63.8164C107.342 63.5751 107.419 63.3365 107.572 63.1509C107.725 62.9654 107.943 62.8474 108.18 62.8217C108.298 62.8105 108.418 62.8233 108.531 62.8592C108.645 62.895 108.75 62.9533 108.841 63.0307C108.932 63.1081 109.007 63.203 109.062 63.31C109.117 63.4169 109.15 63.5338 109.161 63.6539C109.344 65.9401 108.628 68.207 107.17 69.9601C105.711 71.7131 103.628 72.81 101.376 73.0115Z" fill="#4B4B4B"/>
<path d="M76.68 64.8905C76.68 65.7376 76.4323 66.5657 75.9683 67.27C75.5043 67.9743 74.8448 68.5233 74.0732 68.8474C73.3017 69.1716 72.4526 69.2565 71.6335 69.0912C70.8143 68.9259 70.0619 68.518 69.4714 67.919C68.8808 67.32 68.4787 66.5569 68.3157 65.7261C68.1528 64.8953 68.2364 64.0341 68.556 63.2515C68.8756 62.4689 69.4169 61.8 70.1113 61.3294C70.8057 60.8587 71.6221 60.6076 72.4573 60.6076C73.0118 60.6076 73.5609 60.7183 74.0732 60.9336C74.5856 61.1488 75.051 61.4643 75.4432 61.862C75.8353 62.2597 76.1463 62.7319 76.3585 63.2515C76.5707 63.7712 76.68 64.3281 76.68 64.8905Z" fill="#4B4B4B"/>
<path d="M133.116 61.7443C133.12 62.5931 132.875 63.4239 132.412 64.1313C131.95 64.8388 131.291 65.3909 130.518 65.7176C129.746 66.0443 128.895 66.1308 128.074 65.9662C127.253 65.8015 126.499 65.3932 125.907 64.793C125.315 64.1928 124.913 63.4278 124.751 62.5951C124.588 61.7624 124.674 60.8996 124.996 60.1161C125.318 59.3327 125.862 58.664 126.56 58.195C127.257 57.7259 128.076 57.4776 128.913 57.4816C130.028 57.4816 131.097 57.9307 131.885 58.7301C132.673 59.5295 133.116 60.6137 133.116 61.7443Z" fill="#4B4B4B"/>
<path d="M76.0396 82.3684C76.0396 84.3557 75.4586 86.2983 74.37 87.9506C73.2815 89.6029 71.7344 90.8908 69.9243 91.6513C68.1141 92.4118 66.1223 92.6107 64.2007 92.2231C62.279 91.8354 60.5139 90.8784 59.1285 89.4732C57.7431 88.068 56.7996 86.2777 56.4173 84.3286C56.0351 82.3796 56.2313 80.3593 56.9811 78.5233C57.7308 76.6874 59.0005 75.1181 60.6296 74.0141C62.2587 72.91 64.174 72.3207 66.1333 72.3207C68.7606 72.3207 71.2803 73.3793 73.1381 75.2636C74.9959 77.148 76.0396 79.7036 76.0396 82.3684Z" fill="#EFBAB2"/>
<path d="M151.567 77.2531C151.548 79.2316 150.952 81.1601 149.856 82.7967C148.76 84.4334 147.212 85.7055 145.406 86.4533C143.6 87.2012 141.617 87.3916 139.704 87.0007C137.792 86.6098 136.036 85.6549 134.657 84.2559C133.278 82.8568 132.336 81.0759 131.951 79.1363C131.565 77.1968 131.753 75.185 132.49 73.3532C133.228 71.5214 134.482 69.9512 136.095 68.8395C137.709 67.7278 139.611 67.124 141.561 67.104C142.879 67.0904 144.186 67.3436 145.406 67.8488C146.626 68.3541 147.735 69.1012 148.666 70.0463C149.598 70.9915 150.335 72.1157 150.833 73.3532C151.331 74.5907 151.581 75.9165 151.567 77.2531Z" fill="#EFBAB2"/>
</svg>
